%TF.GenerationSoftware,Altium Limited,Altium Designer,25.4.2 (15)*%
G04 Layer_Physical_Order=4*
G04 Layer_Color=16711680*
%FSLAX45Y45*%
%MOMM*%
%TF.SameCoordinates,D0FDF368-1468-4A38-90CB-FD56B44771C5*%
%TF.FilePolarity,Positive*%
%TF.FileFunction,Copper,L4,Bot,Signal*%
%TF.Part,Single*%
G01*
G75*
%TA.AperFunction,SMDPad,CuDef*%
%ADD11R,0.53933X0.47247*%
%ADD23R,0.47247X0.53933*%
%ADD26R,1.01213X1.20840*%
%ADD29R,1.20840X1.01213*%
%TA.AperFunction,Conductor*%
%ADD30C,0.25400*%
%TA.AperFunction,ComponentPad*%
%ADD33C,1.95000*%
%ADD34R,1.95000X1.95000*%
%ADD35O,1.00000X2.00000*%
%ADD36O,1.00000X2.00000*%
%ADD37R,1.95000X1.95000*%
%ADD38R,1.06000X1.06000*%
%ADD39C,1.06000*%
%TA.AperFunction,ViaPad*%
%ADD40C,0.50000*%
%TA.AperFunction,SMDPad,CuDef*%
%ADD41O,2.10000X0.65000*%
%ADD42R,0.30000X1.60000*%
%ADD43R,1.60000X0.30000*%
G04:AMPARAMS|DCode=44|XSize=0.65mm|YSize=1.2mm|CornerRadius=0.04875mm|HoleSize=0mm|Usage=FLASHONLY|Rotation=90.000|XOffset=0mm|YOffset=0mm|HoleType=Round|Shape=RoundedRectangle|*
%AMROUNDEDRECTD44*
21,1,0.65000,1.10250,0,0,90.0*
21,1,0.55250,1.20000,0,0,90.0*
1,1,0.09750,0.55125,0.27625*
1,1,0.09750,0.55125,-0.27625*
1,1,0.09750,-0.55125,-0.27625*
1,1,0.09750,-0.55125,0.27625*
%
%ADD44ROUNDEDRECTD44*%
G36*
X2998143Y1744980D02*
X2969731Y1716569D01*
X2961311Y1703966D01*
X2958353Y1689100D01*
Y1358900D01*
X2961311Y1344034D01*
X2957236Y1330604D01*
X2950871Y1327967D01*
X2942283Y1319380D01*
X2921012D01*
X2906146Y1316423D01*
X2893544Y1308002D01*
X2875751Y1290210D01*
X2867331Y1277607D01*
X2864373Y1262741D01*
Y1251295D01*
X2857799Y1245900D01*
X2431398D01*
Y1263498D01*
X2332145D01*
Y1322576D01*
X2351066D01*
Y1420624D01*
X2227956D01*
X2226997Y1421583D01*
X2214394Y1430004D01*
X2199528Y1432961D01*
X2191476D01*
X2177899Y1458361D01*
X2182224Y1464833D01*
X2228170D01*
X2232051Y1460953D01*
X2247900Y1454388D01*
Y1503680D01*
X2260600D01*
Y1516380D01*
X2309892D01*
X2307045Y1523253D01*
X2318567Y1545689D01*
X2321924Y1548653D01*
X2394369D01*
X2548020Y1395003D01*
Y1389515D01*
X2555693Y1370991D01*
X2569871Y1356813D01*
X2588395Y1349140D01*
X2608445D01*
X2626969Y1356813D01*
X2641147Y1370991D01*
X2648820Y1389515D01*
Y1409565D01*
X2641147Y1428089D01*
X2626969Y1442267D01*
X2608445Y1449940D01*
X2602957D01*
X2437929Y1614969D01*
X2425326Y1623389D01*
X2410460Y1626347D01*
X2214290D01*
X2210409Y1630227D01*
X2191885Y1637900D01*
X2171835D01*
X2153311Y1630227D01*
X2139133Y1616049D01*
X2131460Y1597525D01*
Y1577475D01*
X2136167Y1566112D01*
X2134136Y1549473D01*
X2126733Y1535430D01*
X2120325Y1531149D01*
X2101223Y1512047D01*
X2073491D01*
X2000693Y1584844D01*
X1988090Y1593265D01*
X1973224Y1596222D01*
X1930206D01*
Y1643195D01*
X1866900D01*
Y1557376D01*
X1854200D01*
Y1544676D01*
X1778194D01*
Y1471556D01*
Y1423147D01*
X1462450D01*
X1458569Y1427027D01*
X1440045Y1434700D01*
X1419995D01*
X1401471Y1427027D01*
X1387293Y1412849D01*
X1379620Y1394325D01*
Y1374275D01*
X1387293Y1355751D01*
X1401471Y1341573D01*
X1419995Y1333900D01*
X1440045D01*
X1458569Y1341573D01*
X1462450Y1345453D01*
X1778194D01*
Y1311180D01*
X1930206D01*
Y1311180D01*
X1943349Y1316594D01*
X1958873Y1300948D01*
X1958937Y1300905D01*
X1958980Y1300841D01*
X1965216Y1296675D01*
X1971443Y1292478D01*
X1971519Y1292463D01*
X1971583Y1292420D01*
X1978947Y1290955D01*
X1986297Y1289463D01*
X1990944Y1287453D01*
X2000601Y1263498D01*
X1982491Y1245900D01*
X1586799D01*
X1576888Y1243929D01*
X1568487Y1238315D01*
X1562873Y1229913D01*
X1560901Y1220003D01*
Y1090061D01*
X1489527D01*
X1475740Y1095772D01*
Y1046480D01*
Y997188D01*
X1491589Y1003753D01*
X1500204Y1012368D01*
X1560901D01*
Y770448D01*
X1556703Y767451D01*
X1528609Y764069D01*
X1488040Y804637D01*
Y810125D01*
X1480367Y828649D01*
X1466189Y842827D01*
X1447665Y850500D01*
X1427615D01*
X1409091Y842827D01*
X1394913Y828649D01*
X1387240Y810125D01*
Y790075D01*
X1394913Y771551D01*
X1409091Y757373D01*
X1427615Y749700D01*
X1433103D01*
X1462293Y720509D01*
Y687385D01*
X1440180Y672019D01*
Y619760D01*
Y567501D01*
X1453227Y558435D01*
X1455172Y529670D01*
X1442232Y516729D01*
X1433811Y504126D01*
X1430854Y489260D01*
Y483694D01*
X1367275D01*
X1355462Y481344D01*
X1345448Y474653D01*
X1338757Y464639D01*
X1338639Y464048D01*
X1333139D01*
X1318273Y461091D01*
X1305670Y452670D01*
X1290791Y437791D01*
X1282371Y425188D01*
X1279413Y410322D01*
Y243479D01*
X1282371Y228613D01*
X1290791Y216010D01*
X1305670Y201131D01*
X1318273Y192711D01*
X1333139Y189753D01*
X1342771D01*
X1345448Y185747D01*
X1355462Y179056D01*
X1367275Y176706D01*
X1477525D01*
X1489338Y179056D01*
X1499352Y185747D01*
X1506043Y195761D01*
X1507350Y202332D01*
X1521900Y212718D01*
X1533793Y217247D01*
X1544320Y215153D01*
X1600394D01*
Y168180D01*
X1655333D01*
Y93390D01*
X1651453Y89509D01*
X1644888Y73660D01*
X1743472D01*
X1736907Y89509D01*
X1733027Y93390D01*
Y168180D01*
X1752406D01*
Y202453D01*
X1968500D01*
X1983366Y205411D01*
X1995969Y213831D01*
X2004389Y226434D01*
X2007347Y241300D01*
Y255319D01*
X2017524D01*
Y268839D01*
X2109976D01*
Y253877D01*
X2146300D01*
Y306243D01*
X2159000D01*
Y318943D01*
X2208024D01*
Y370658D01*
X2233424Y381179D01*
X2272553Y342049D01*
Y278810D01*
X2268673Y274929D01*
X2261000Y256405D01*
Y236355D01*
X2268673Y217831D01*
X2282851Y203653D01*
X2301375Y195980D01*
X2321425D01*
X2339949Y203653D01*
X2354127Y217831D01*
X2356096Y222585D01*
X2385267Y229336D01*
X2398231Y216371D01*
X2410834Y207951D01*
X2425700Y204993D01*
X2464390D01*
X2468271Y201113D01*
X2486795Y193440D01*
X2506845D01*
X2525369Y201113D01*
X2539547Y215291D01*
X2547220Y233815D01*
Y253865D01*
X2539547Y272389D01*
X2525369Y286567D01*
X2506845Y294240D01*
X2486795D01*
X2468271Y286567D01*
X2464390Y282687D01*
X2441791D01*
X2422964Y301513D01*
X2433485Y326913D01*
X2456180D01*
X2471046Y329871D01*
X2483649Y338291D01*
X2492069Y350894D01*
X2495027Y365760D01*
X2492069Y380626D01*
X2483649Y393229D01*
X2471046Y401649D01*
X2456180Y404607D01*
X2431631D01*
X2429845Y406392D01*
Y432699D01*
X2431398D01*
Y532105D01*
X2857800D01*
X2867710Y534076D01*
X2876112Y539690D01*
X2881726Y548092D01*
X2883697Y558002D01*
Y691780D01*
X3036945Y694540D01*
X3046879Y674283D01*
X3048129Y669337D01*
X3038443Y652561D01*
X3033100Y632622D01*
Y611978D01*
X3038443Y592039D01*
X3048765Y574161D01*
X3062669Y558800D01*
X3048764Y543438D01*
X3038443Y525561D01*
X3033100Y505622D01*
Y484978D01*
X3038443Y465039D01*
X3048765Y447161D01*
X3062669Y431800D01*
X3048764Y416438D01*
X3038443Y398561D01*
X3033100Y378622D01*
Y357978D01*
X3038443Y338039D01*
X3048765Y320161D01*
X3062669Y304800D01*
X3048764Y289438D01*
X3038443Y271561D01*
X3033100Y251622D01*
Y230978D01*
X3038443Y211039D01*
X3048765Y193161D01*
X3062669Y177800D01*
X3048764Y162438D01*
X3038443Y144561D01*
X3033100Y124622D01*
Y103978D01*
X3038443Y84039D01*
X3048765Y66161D01*
X3063361Y51565D01*
X3073484Y45720D01*
X3066678Y20320D01*
X1758003D01*
X1742420Y45720D01*
X1743472Y48260D01*
X1644888D01*
X1645940Y45720D01*
X1630357Y20320D01*
X99714D01*
X81066Y24029D01*
X63501Y31305D01*
X47692Y41868D01*
X34248Y55312D01*
X23685Y71121D01*
X16409Y88686D01*
X12700Y107334D01*
Y116840D01*
Y1722120D01*
Y1725151D01*
X15020Y1730753D01*
X19307Y1735040D01*
X24909Y1737360D01*
X27940D01*
Y1743928D01*
X32967Y1756064D01*
X42255Y1765353D01*
X54392Y1770380D01*
X2987622D01*
X2998143Y1744980D01*
D02*
G37*
G36*
X8420100Y1755140D02*
X8443410D01*
X8463015Y1747019D01*
X8478019Y1732015D01*
X8486140Y1712410D01*
Y1701800D01*
Y88900D01*
X8486238Y87909D01*
X8486996Y86078D01*
X8488397Y84676D01*
X8486970Y63399D01*
X8486333Y59392D01*
X8481553Y47850D01*
X8463690Y29987D01*
X8440351Y20320D01*
X3335847D01*
X3316900Y35900D01*
Y192700D01*
X3316900Y192700D01*
X3313449Y218100D01*
X3316900Y230978D01*
Y251622D01*
X3311557Y271561D01*
X3301235Y289439D01*
X3287331Y304800D01*
X3301236Y320162D01*
X3311557Y338039D01*
X3316900Y357978D01*
Y378622D01*
X3311557Y398561D01*
X3301235Y416439D01*
X3287331Y431800D01*
X3301236Y447162D01*
X3311557Y465039D01*
X3316263Y482600D01*
X3238500D01*
Y508000D01*
X3316263D01*
X3311557Y525561D01*
X3301235Y543439D01*
X3287331Y558800D01*
X3301236Y574162D01*
X3311557Y592039D01*
X3316900Y611978D01*
Y632622D01*
X3311557Y652561D01*
X3301235Y670439D01*
X3297839Y673835D01*
X3308170Y699425D01*
X3342156Y700037D01*
X3391508Y637393D01*
X3396952Y549781D01*
X3385955Y538080D01*
X3367431Y530407D01*
X3353253Y516229D01*
X3345580Y497705D01*
Y477655D01*
X3353253Y459131D01*
X3367431Y444953D01*
X3385955Y437280D01*
X3406005D01*
X3424529Y444953D01*
X3438707Y459130D01*
X3450312Y461743D01*
X3515176Y403072D01*
X3520987Y399597D01*
X3526644Y395879D01*
X3527466Y395722D01*
X3528184Y395293D01*
X3534881Y394306D01*
X3541532Y393036D01*
X4490823Y400312D01*
X4498022Y401801D01*
X4505226Y403200D01*
X4505428Y403334D01*
X4505665Y403383D01*
X4511739Y407509D01*
X4517867Y411563D01*
X4688242Y580382D01*
X4688293Y580457D01*
X4688369Y580507D01*
X4692524Y586726D01*
X4696721Y592945D01*
X4696739Y593035D01*
X4696789Y593110D01*
X4698253Y600469D01*
X4699746Y607798D01*
X4699729Y607887D01*
X4699747Y607976D01*
Y908056D01*
X4709726Y914746D01*
X4725147Y920859D01*
X4739775Y914800D01*
X4759825D01*
X4780222Y895756D01*
X4783273Y888391D01*
X4797451Y874213D01*
X4813300Y867648D01*
Y916940D01*
Y969838D01*
X4795578Y986384D01*
X4792527Y993749D01*
X4778349Y1007927D01*
X4759825Y1015600D01*
X4739775D01*
X4725147Y1009541D01*
X4709726Y1015654D01*
X4699747Y1022344D01*
Y1339170D01*
X4703627Y1343051D01*
X4711300Y1361575D01*
Y1381625D01*
X4703627Y1400149D01*
X4689449Y1414327D01*
X4670925Y1422000D01*
X4650875D01*
X4632351Y1414327D01*
X4618173Y1400149D01*
X4610500Y1381625D01*
Y1361575D01*
X4618173Y1343051D01*
X4622053Y1339170D01*
Y624171D01*
X4474415Y477881D01*
X4261729Y476251D01*
X4253324Y501588D01*
X4261667Y509931D01*
X4269340Y528455D01*
Y548505D01*
X4261667Y567029D01*
X4260327Y568370D01*
Y629920D01*
X4257369Y644786D01*
X4248949Y657389D01*
X4175806Y730531D01*
X4175853Y733846D01*
X4180716Y757971D01*
X4189648Y761671D01*
X4201744Y773766D01*
X4216100Y774889D01*
X4230457Y773766D01*
X4242552Y761671D01*
X4258401Y755106D01*
Y804398D01*
X4271101D01*
Y817098D01*
X4320393D01*
X4313828Y832947D01*
X4301733Y845043D01*
X4300610Y859399D01*
X4301733Y873755D01*
X4313828Y885851D01*
X4320393Y901700D01*
X4271101D01*
Y927100D01*
X4320393D01*
X4313828Y942949D01*
X4301733Y955045D01*
X4300610Y969401D01*
X4301733Y983757D01*
X4313828Y995853D01*
X4320393Y1011702D01*
X4271101D01*
Y1037102D01*
X4320393D01*
X4313828Y1052952D01*
X4301736Y1065044D01*
X4300612Y1079401D01*
X4301736Y1093758D01*
X4313828Y1105850D01*
X4320393Y1121700D01*
X4271101D01*
Y1147100D01*
X4320393D01*
X4313828Y1162949D01*
X4301733Y1175044D01*
X4300610Y1189401D01*
X4301733Y1203757D01*
X4313828Y1215853D01*
X4320393Y1231702D01*
X4271101D01*
Y1257102D01*
X4320393D01*
X4313828Y1272951D01*
X4301736Y1285043D01*
X4300612Y1299400D01*
X4301736Y1313758D01*
X4313828Y1325850D01*
X4320393Y1341699D01*
X4271101D01*
Y1354399D01*
X4258401D01*
Y1403691D01*
X4242552Y1397126D01*
X4230457Y1385031D01*
X4216100Y1383908D01*
X4201744Y1385031D01*
X4189648Y1397126D01*
X4173799Y1403691D01*
Y1354399D01*
X4148399D01*
Y1403691D01*
X4132550Y1397126D01*
X4120458Y1385034D01*
X4106101Y1383910D01*
X4091743Y1385034D01*
X4079651Y1397126D01*
X4063802Y1403691D01*
Y1354399D01*
X4038402D01*
Y1403691D01*
X4022553Y1397126D01*
X4010457Y1385031D01*
X3996101Y1383908D01*
X3981744Y1385031D01*
X3969649Y1397126D01*
X3953800Y1403691D01*
Y1354399D01*
X3928400D01*
Y1403691D01*
X3912550Y1397126D01*
X3900458Y1385034D01*
X3886101Y1383910D01*
X3871744Y1385034D01*
X3859652Y1397126D01*
X3843802Y1403691D01*
Y1354399D01*
X3818402D01*
Y1403691D01*
X3802553Y1397126D01*
X3790457Y1385031D01*
X3776101Y1383908D01*
X3761745Y1385031D01*
X3749649Y1397126D01*
X3733800Y1403691D01*
Y1354399D01*
X3721100D01*
Y1341699D01*
X3671808D01*
X3678373Y1325850D01*
X3690465Y1313758D01*
X3691590Y1299400D01*
X3690465Y1285043D01*
X3678373Y1272951D01*
X3671808Y1257102D01*
X3721100D01*
Y1231702D01*
X3671808D01*
X3678373Y1215853D01*
X3690469Y1203757D01*
X3691591Y1189401D01*
X3690469Y1175044D01*
X3678373Y1162949D01*
X3671808Y1147100D01*
X3721100D01*
Y1121700D01*
X3671808D01*
X3678373Y1105850D01*
X3690465Y1093758D01*
X3691590Y1079401D01*
X3690465Y1065044D01*
X3678373Y1052952D01*
X3671808Y1037102D01*
X3721100D01*
Y1011702D01*
X3671808D01*
X3678373Y995853D01*
X3690469Y983757D01*
X3691591Y969401D01*
X3690469Y955045D01*
X3678373Y942949D01*
X3671808Y927100D01*
X3721100D01*
Y901700D01*
X3671808D01*
X3678373Y885851D01*
X3690469Y873755D01*
X3691591Y859399D01*
X3690469Y845043D01*
X3678373Y832947D01*
X3671808Y817098D01*
X3721100D01*
Y791698D01*
X3671808D01*
X3678373Y775848D01*
X3686395Y767827D01*
X3677689Y742427D01*
X3549231D01*
X3476789Y814869D01*
X3464186Y823289D01*
X3449320Y826247D01*
X3412974D01*
X3403200Y840875D01*
Y860925D01*
X3395527Y879449D01*
X3381349Y893627D01*
X3362825Y901300D01*
X3342775D01*
X3336652Y898764D01*
X3315447Y919970D01*
Y1079500D01*
X3312489Y1094366D01*
X3304069Y1106969D01*
X3102147Y1308890D01*
X3101938Y1314436D01*
X3109587Y1337372D01*
X3119729Y1341573D01*
X3133907Y1355751D01*
X3141580Y1374275D01*
Y1384843D01*
X3210017Y1453280D01*
X3210425D01*
X3228949Y1460953D01*
X3243127Y1475131D01*
X3250800Y1493655D01*
Y1513705D01*
X3243127Y1532229D01*
X3228949Y1546407D01*
X3210425Y1554080D01*
X3190375D01*
X3188469Y1553291D01*
X3174081Y1574824D01*
X3220662Y1621405D01*
X3416850D01*
X3422533Y1612900D01*
X3526907D01*
X3532590Y1621405D01*
X4613801D01*
X4618853Y1596005D01*
X4609491Y1592127D01*
X4595313Y1577949D01*
X4587640Y1559425D01*
Y1539375D01*
X4595313Y1520851D01*
X4609491Y1506673D01*
X4628015Y1499000D01*
X4648065D01*
X4666589Y1506673D01*
X4680767Y1520851D01*
X4688440Y1539375D01*
Y1559425D01*
X4680767Y1577949D01*
X4666589Y1592127D01*
X4657227Y1596005D01*
X4662279Y1621405D01*
X5667225D01*
X5670452Y1620355D01*
X6073298Y1327380D01*
X6073550Y1327264D01*
X6073742Y1327062D01*
X6145763Y1276217D01*
X6149413Y1274595D01*
X6152693Y1272321D01*
X6156269Y1271546D01*
X6159613Y1270060D01*
X6163605Y1269957D01*
X6167507Y1269112D01*
X6369360Y1265683D01*
X6384855Y1242060D01*
X6488716D01*
X6504310Y1263390D01*
X7423288Y1247778D01*
X7432364Y1222220D01*
X7424873Y1214729D01*
X7417200Y1196205D01*
Y1176155D01*
X7424873Y1157631D01*
X7433460Y1149043D01*
Y1103581D01*
X7431276D01*
Y1092947D01*
X7344877D01*
X7342941Y1095844D01*
X7323789Y1108641D01*
X7301198Y1113134D01*
X7156198D01*
X7133606Y1108641D01*
X7114454Y1095844D01*
X7101657Y1076692D01*
X7097163Y1054100D01*
X7101657Y1031508D01*
X7114454Y1012356D01*
X7125895Y1004711D01*
X7126678Y1002371D01*
Y978829D01*
X7125895Y976489D01*
X7114454Y968844D01*
X7101657Y949692D01*
X7099690Y939800D01*
X7228698D01*
Y914400D01*
X7099690D01*
X7101657Y904508D01*
X7114454Y885356D01*
X7125895Y877711D01*
X7126678Y875371D01*
Y851829D01*
X7125895Y849489D01*
X7114454Y841844D01*
X7101657Y822692D01*
X7097163Y800100D01*
X7101657Y777508D01*
X7114454Y758356D01*
X7125895Y750711D01*
X7126678Y748371D01*
Y724829D01*
X7125895Y722489D01*
X7114454Y714844D01*
X7101657Y695692D01*
X7097163Y673100D01*
X7101657Y650508D01*
X7114454Y631356D01*
X7125895Y623711D01*
X7126678Y621371D01*
Y597829D01*
X7125895Y595489D01*
X7114454Y587844D01*
X7101657Y568692D01*
X7097163Y546100D01*
X7101657Y523508D01*
X7114454Y504356D01*
X7125895Y496711D01*
X7126678Y494371D01*
Y470829D01*
X7125895Y468489D01*
X7114454Y460844D01*
X7101657Y441692D01*
X7100961Y438195D01*
X7073401Y429834D01*
X6955066Y548169D01*
X6942464Y556589D01*
X6927598Y559547D01*
X6750730D01*
X6746849Y563427D01*
X6728325Y571100D01*
X6708275D01*
X6689751Y563427D01*
X6675573Y549249D01*
X6667900Y530725D01*
Y510675D01*
X6675573Y492151D01*
X6689751Y477973D01*
X6708275Y470300D01*
X6728325D01*
X6746849Y477973D01*
X6750730Y481853D01*
X6911507D01*
X7097843Y295518D01*
X7097163Y292100D01*
X7101657Y269508D01*
X7114454Y250356D01*
X7125895Y242711D01*
X7126678Y240371D01*
Y216829D01*
X7125895Y214489D01*
X7114454Y206844D01*
X7101657Y187692D01*
X7099690Y177800D01*
X7228698D01*
Y165100D01*
X7241398D01*
Y106066D01*
X7301198D01*
X7323789Y110559D01*
X7342941Y123356D01*
X7366512Y114731D01*
X7402031Y79211D01*
X7414634Y70791D01*
X7429500Y67833D01*
X7745050D01*
X7748931Y63953D01*
X7764780Y57388D01*
Y106680D01*
Y155972D01*
X7748931Y149407D01*
X7745050Y145527D01*
X7541624D01*
X7538267Y148491D01*
X7526745Y170927D01*
X7530700Y180475D01*
Y200525D01*
X7523027Y219049D01*
X7512087Y229990D01*
X7505968Y260912D01*
X7522733Y268799D01*
X7530558Y270743D01*
X7532523Y269430D01*
X7535551Y266518D01*
X7580088Y237996D01*
X7582910Y236891D01*
X7585394Y235153D01*
X7589903Y234153D01*
X7594202Y232470D01*
X7597232Y232529D01*
X7600192Y231873D01*
X7774395Y228077D01*
X7780141Y229091D01*
X7785954Y229575D01*
X7787552Y230398D01*
X7789322Y230710D01*
X7794242Y233845D01*
X7799428Y236517D01*
X7901115Y317427D01*
X7902593Y319173D01*
X7904492Y320451D01*
X7907451Y324913D01*
X7910907Y328997D01*
X7911604Y331176D01*
X7912869Y333083D01*
X7913895Y338337D01*
X7915526Y343433D01*
X7915336Y345713D01*
X7915775Y347959D01*
X7912882Y1183465D01*
X7911677Y1189415D01*
X7910947Y1195438D01*
X7910183Y1196794D01*
X7909874Y1198320D01*
X7906484Y1203356D01*
X7903504Y1208642D01*
X7845234Y1276480D01*
X7842448Y1278664D01*
X7840181Y1281384D01*
X7836541Y1283294D01*
X7833305Y1285831D01*
X7829894Y1286782D01*
X7826759Y1288427D01*
X7723208Y1318980D01*
X7717993Y1319454D01*
X7712875Y1320563D01*
X6180793Y1346590D01*
X6118785Y1390366D01*
X5711169Y1686810D01*
X5705643Y1689361D01*
X5700334Y1692336D01*
X5685395Y1697194D01*
X5679352Y1697910D01*
X5673382Y1699098D01*
X4621779D01*
X4609700Y1717175D01*
Y1737225D01*
X4606488Y1744980D01*
X4620016Y1769358D01*
X4621367Y1770380D01*
X8404860D01*
X8420100Y1755140D01*
D02*
G37*
G36*
X3237753Y1063409D02*
Y903879D01*
X3239049Y897367D01*
X3226516Y876383D01*
X3221552Y871967D01*
X3187110D01*
X3183229Y875847D01*
X3164705Y883520D01*
X3144655D01*
X3126131Y875847D01*
X3111953Y861669D01*
X3104280Y843145D01*
Y823095D01*
X3111953Y804571D01*
X3117424Y799099D01*
X3107093Y773509D01*
X2901819Y769812D01*
X2883697Y787610D01*
Y994560D01*
X2895531Y1000168D01*
X2909097Y1002346D01*
X2920391Y991053D01*
X2936240Y984488D01*
Y1033780D01*
X2948940D01*
Y1046480D01*
X2998232D01*
X2991667Y1062329D01*
X2977489Y1076507D01*
X2967710Y1080558D01*
X2966734Y1107647D01*
X2967329Y1107893D01*
X2981507Y1122071D01*
X2989180Y1140595D01*
Y1160645D01*
X2981507Y1179169D01*
X2967329Y1193347D01*
X2955980Y1198048D01*
X2951852Y1216706D01*
X2969759Y1234840D01*
X2989445D01*
X3007969Y1242513D01*
X3022147Y1256690D01*
X3040768Y1260394D01*
X3237753Y1063409D01*
D02*
G37*
G36*
X7493000Y925534D02*
X7529323D01*
Y925534D01*
X7553747Y923176D01*
X7579831Y897091D01*
X7592434Y888671D01*
X7607300Y885713D01*
X7607494D01*
Y824592D01*
X7649733D01*
Y763655D01*
X7648739Y762617D01*
X7641177Y757134D01*
X7626087Y751449D01*
X7622974Y752492D01*
X7620171Y754202D01*
X7399773Y835019D01*
X7396385Y835549D01*
X7393191Y836795D01*
X7384446Y838348D01*
X7381018Y838277D01*
X7377655Y838947D01*
X7344877D01*
X7342941Y841844D01*
X7331500Y849489D01*
X7330718Y851829D01*
Y875371D01*
X7331500Y877711D01*
X7342941Y885356D01*
X7355738Y904508D01*
X7358589Y918838D01*
X7371184Y931433D01*
X7431276D01*
Y925534D01*
X7467600D01*
Y977900D01*
X7493000D01*
Y925534D01*
D02*
G37*
G36*
X7706282Y1242970D02*
X7793772Y1217156D01*
X7835239Y1168879D01*
X7836816Y713341D01*
X7811453Y702784D01*
X7808569Y705667D01*
X7790045Y713340D01*
X7784557D01*
X7727427Y770471D01*
Y824592D01*
X7759507D01*
Y897712D01*
X7683500D01*
Y923112D01*
X7759507D01*
Y984968D01*
Y1156608D01*
X7607494D01*
Y1104327D01*
X7511153D01*
Y1159626D01*
X7518000Y1176155D01*
Y1196205D01*
X7510327Y1214729D01*
X7504054Y1221002D01*
X7514753Y1246224D01*
X7706282Y1242970D01*
D02*
G37*
G36*
X7376239Y760897D02*
X7582919Y685110D01*
X7593853Y670976D01*
Y495930D01*
X7592278Y494112D01*
X7568453Y483021D01*
X7402633Y590053D01*
X7396868Y592334D01*
X7391283Y595027D01*
X7389862Y595107D01*
X7388539Y595631D01*
X7382341Y595532D01*
X7376150Y595882D01*
X7354021Y592767D01*
X7343293Y602131D01*
X7342941Y631357D01*
X7355738Y650508D01*
X7360232Y673100D01*
X7355738Y695692D01*
X7342941Y714844D01*
X7336863Y718905D01*
X7334856Y745747D01*
X7350782Y761253D01*
X7374232D01*
X7376239Y760897D01*
D02*
G37*
G36*
X4106433Y581769D02*
Y565830D01*
X4102553Y561949D01*
X4094880Y543425D01*
Y523375D01*
X4102553Y504851D01*
X4106938Y500466D01*
X4096498Y474985D01*
X3859507Y473168D01*
X3854041Y497187D01*
X3854024Y498527D01*
X3867967Y512471D01*
X3875640Y530995D01*
Y551045D01*
X3867967Y569569D01*
X3859163Y578373D01*
X3866605Y603249D01*
X3866950Y603773D01*
X4086860D01*
X4106433Y581769D01*
D02*
G37*
G36*
X3783875Y603249D02*
X3791317Y578373D01*
X3782513Y569569D01*
X3774840Y551045D01*
Y530995D01*
X3782513Y512471D01*
X3796691Y498293D01*
X3797177Y498091D01*
X3792218Y472653D01*
X3556070Y470843D01*
X3520530Y502989D01*
X3525654Y532604D01*
X3528669Y533853D01*
X3542847Y548031D01*
X3550520Y566555D01*
Y572043D01*
X3582251Y603773D01*
X3783530D01*
X3783875Y603249D01*
D02*
G37*
G36*
X1568487Y539690D02*
X1576888Y534076D01*
X1586799Y532105D01*
X2000602D01*
Y493308D01*
X1999968Y474771D01*
X1997737Y461785D01*
X1964274Y433366D01*
X1919476D01*
Y418577D01*
X1870120D01*
X1867509Y421187D01*
X1848985Y428860D01*
X1828935D01*
X1810411Y421187D01*
X1796233Y407009D01*
X1788560Y388485D01*
Y368435D01*
X1796233Y349911D01*
X1810411Y335733D01*
X1828935Y328060D01*
X1848985D01*
X1867509Y335733D01*
X1872660Y340883D01*
X1919476D01*
Y320385D01*
X1968500D01*
Y294985D01*
X1919476D01*
Y280147D01*
X1752406D01*
Y328556D01*
Y500195D01*
X1600394D01*
Y445247D01*
X1565491D01*
X1558067Y452670D01*
X1545465Y461091D01*
X1534558Y463260D01*
X1528253Y474369D01*
X1524825Y489448D01*
X1528609Y493231D01*
X1537029Y505834D01*
X1539987Y520700D01*
Y540105D01*
X1549456Y543410D01*
X1565387Y544330D01*
X1568487Y539690D01*
D02*
G37*
G36*
X7729620Y658403D02*
Y652915D01*
X7737293Y634391D01*
X7751471Y620213D01*
X7767320Y613648D01*
Y662940D01*
X7792720D01*
Y613648D01*
X7808569Y620213D01*
X7811728Y623371D01*
X7837164Y612887D01*
X7838017Y366507D01*
X7762045Y306058D01*
X7655455Y308380D01*
X7650669Y333891D01*
X7661249Y338273D01*
X7675427Y352451D01*
X7683100Y370975D01*
Y391025D01*
X7675427Y409549D01*
X7671547Y413430D01*
Y680555D01*
X7680312Y687095D01*
X7695872Y692151D01*
X7729620Y658403D01*
D02*
G37*
%LPC*%
G36*
X1841500Y1643195D02*
X1778194D01*
Y1570076D01*
X1841500D01*
Y1643195D01*
D02*
G37*
G36*
X2309892Y1490980D02*
X2273300D01*
Y1454388D01*
X2289149Y1460953D01*
X2303327Y1475131D01*
X2309892Y1490980D01*
D02*
G37*
G36*
X1432425Y1267060D02*
X1412375D01*
X1393851Y1259387D01*
X1387430Y1252967D01*
X921430D01*
X920089Y1254307D01*
X901565Y1261980D01*
X881515D01*
X862991Y1254307D01*
X848813Y1240129D01*
X841140Y1221605D01*
Y1201555D01*
X848813Y1183031D01*
X862991Y1168853D01*
X881515Y1161180D01*
X901565D01*
X920089Y1168853D01*
X926510Y1175273D01*
X1392510D01*
X1393851Y1173933D01*
X1412375Y1166260D01*
X1432425D01*
X1450949Y1173933D01*
X1465127Y1188111D01*
X1472800Y1206635D01*
Y1226685D01*
X1465127Y1245209D01*
X1450949Y1259387D01*
X1432425Y1267060D01*
D02*
G37*
G36*
X1450340Y1095772D02*
X1434491Y1089207D01*
X1420313Y1075029D01*
X1413748Y1059180D01*
X1450340D01*
Y1095772D01*
D02*
G37*
G36*
Y1033780D02*
X1413748D01*
X1420313Y1017931D01*
X1434491Y1003753D01*
X1450340Y997188D01*
Y1033780D01*
D02*
G37*
G36*
X503900Y1232499D02*
X258100D01*
Y986699D01*
X503900D01*
Y1232499D01*
D02*
G37*
G36*
X1414780Y669052D02*
X1398931Y662487D01*
X1384753Y648309D01*
X1378188Y632460D01*
X1414780D01*
Y669052D01*
D02*
G37*
G36*
Y607060D02*
X1378188D01*
X1384753Y591211D01*
X1398931Y577033D01*
X1414780Y570468D01*
Y607060D01*
D02*
G37*
G36*
X397180Y732500D02*
X364820D01*
X333562Y724125D01*
X305538Y707944D01*
X282656Y685062D01*
X266475Y657038D01*
X258100Y625780D01*
Y593420D01*
X266475Y562162D01*
X282656Y534138D01*
X305538Y511256D01*
X333562Y495075D01*
X364820Y486700D01*
X397180D01*
X428438Y495075D01*
X456462Y511256D01*
X479344Y534138D01*
X495525Y562162D01*
X503900Y593420D01*
Y625780D01*
X495525Y657038D01*
X479344Y685062D01*
X456462Y707944D01*
X428438Y724125D01*
X397180Y732500D01*
D02*
G37*
G36*
X723900Y533206D02*
X650780D01*
Y469900D01*
X723900D01*
Y533206D01*
D02*
G37*
G36*
X741545Y733660D02*
X721495D01*
X702971Y725987D01*
X688793Y711809D01*
X681120Y693285D01*
Y673235D01*
X688793Y654711D01*
X702971Y640533D01*
X721495Y632860D01*
X728427D01*
X776615Y584671D01*
X789218Y576251D01*
X804084Y573293D01*
X858129D01*
Y533206D01*
X749300D01*
Y457200D01*
X736600D01*
Y444500D01*
X650780D01*
Y381194D01*
X677078D01*
Y291906D01*
X630105D01*
Y254747D01*
X497840D01*
X482974Y251789D01*
X470371Y243369D01*
X461951Y230766D01*
X458993Y215900D01*
Y134030D01*
X455113Y130149D01*
X448548Y114300D01*
X547132D01*
X540567Y130149D01*
X536687Y134030D01*
Y177053D01*
X630105D01*
Y139894D01*
X703224D01*
Y215900D01*
X728624D01*
Y139894D01*
X962120D01*
Y196352D01*
X1043639D01*
X1043756Y195761D01*
X1050447Y185747D01*
X1060462Y179056D01*
X1072274Y176706D01*
X1182524D01*
X1194337Y179056D01*
X1204351Y185747D01*
X1211043Y195761D01*
X1213392Y207574D01*
Y262824D01*
X1211043Y274637D01*
X1204351Y284651D01*
X1194337Y291342D01*
X1182524Y293692D01*
X1072274D01*
X1060462Y291342D01*
X1050447Y284651D01*
X1043756Y274637D01*
X1043639Y274045D01*
X962120D01*
Y291906D01*
X754771D01*
Y381194D01*
X982795D01*
Y418353D01*
X1041406D01*
Y397576D01*
X1043756Y385763D01*
X1050447Y375749D01*
X1060462Y369058D01*
X1072274Y366708D01*
X1182524D01*
X1194337Y369058D01*
X1204351Y375749D01*
X1211043Y385763D01*
X1213392Y397576D01*
Y452826D01*
X1211043Y464639D01*
X1204351Y474653D01*
X1194337Y481344D01*
X1182524Y483694D01*
X1096343D01*
X1095369Y484669D01*
X1082766Y493089D01*
X1067900Y496047D01*
X982795D01*
Y533206D01*
X935822D01*
Y591464D01*
X932865Y606330D01*
X924444Y618933D01*
X903769Y639609D01*
X891166Y648029D01*
X876300Y650987D01*
X820175D01*
X781920Y689241D01*
Y693285D01*
X774247Y711809D01*
X760069Y725987D01*
X741545Y733660D01*
D02*
G37*
G36*
X2208024Y293543D02*
X2171700D01*
Y253877D01*
X2208024D01*
Y293543D01*
D02*
G37*
G36*
X547132Y88900D02*
X510540D01*
Y52308D01*
X526389Y58873D01*
X540567Y73051D01*
X547132Y88900D01*
D02*
G37*
G36*
X485140D02*
X448548D01*
X455113Y73051D01*
X469291Y58873D01*
X485140Y52308D01*
Y88900D01*
D02*
G37*
G36*
X7226300Y1711879D02*
Y1600200D01*
X7289651D01*
Y1637500D01*
X7287059Y1657184D01*
X7279462Y1675525D01*
X7267376Y1691276D01*
X7251625Y1703362D01*
X7233283Y1710959D01*
X7226300Y1711879D01*
D02*
G37*
G36*
X3524012Y1587500D02*
X3487420D01*
Y1550908D01*
X3503269Y1557473D01*
X3517447Y1571651D01*
X3524012Y1587500D01*
D02*
G37*
G36*
X3462020D02*
X3425428D01*
X3431993Y1571651D01*
X3446171Y1557473D01*
X3462020Y1550908D01*
Y1587500D01*
D02*
G37*
G36*
X7289651Y1574800D02*
X7226300D01*
Y1463121D01*
X7233283Y1464041D01*
X7251625Y1471638D01*
X7267376Y1483724D01*
X7279462Y1499475D01*
X7287059Y1517816D01*
X7289651Y1537500D01*
Y1574800D01*
D02*
G37*
G36*
X6959600Y1713551D02*
X6939917Y1710959D01*
X6921575Y1703362D01*
X6905824Y1691276D01*
X6893738Y1675525D01*
X6886141Y1657184D01*
X6883549Y1637500D01*
Y1537500D01*
X6886141Y1517816D01*
X6893738Y1499475D01*
X6905824Y1483724D01*
X6921575Y1471638D01*
X6939917Y1464041D01*
X6959600Y1461449D01*
X6979283Y1464041D01*
X6997625Y1471638D01*
X7013376Y1483724D01*
X7040735Y1477654D01*
X7048575Y1471638D01*
X7066917Y1464041D01*
X7086600Y1461449D01*
X7106283Y1464041D01*
X7124625Y1471638D01*
X7132465Y1477654D01*
X7159824Y1483724D01*
X7175575Y1471638D01*
X7193917Y1464041D01*
X7200900Y1463121D01*
Y1587500D01*
Y1711879D01*
X7193917Y1710959D01*
X7175575Y1703362D01*
X7159824Y1691276D01*
X7132465Y1697346D01*
X7124625Y1703362D01*
X7106283Y1710959D01*
X7086600Y1713551D01*
X7066917Y1710959D01*
X7048575Y1703362D01*
X7040735Y1697346D01*
X7013376Y1691276D01*
X6997625Y1703362D01*
X6979283Y1710959D01*
X6959600Y1713551D01*
D02*
G37*
G36*
X6603865Y1490580D02*
X6583815D01*
X6565291Y1482907D01*
X6551113Y1468729D01*
X6543440Y1450205D01*
Y1430155D01*
X6551113Y1411631D01*
X6565291Y1397453D01*
X6583815Y1389780D01*
X6603865D01*
X6622389Y1397453D01*
X6636567Y1411631D01*
X6644240Y1430155D01*
Y1450205D01*
X6636567Y1468729D01*
X6622389Y1482907D01*
X6603865Y1490580D01*
D02*
G37*
G36*
X4283801Y1403691D02*
Y1367099D01*
X4320393D01*
X4313828Y1382948D01*
X4299651Y1397126D01*
X4283801Y1403691D01*
D02*
G37*
G36*
X3708400D02*
X3692551Y1397126D01*
X3678373Y1382948D01*
X3671808Y1367099D01*
X3708400D01*
Y1403691D01*
D02*
G37*
G36*
X6485652Y1216660D02*
X6449060D01*
Y1180068D01*
X6464909Y1186633D01*
X6479087Y1200811D01*
X6485652Y1216660D01*
D02*
G37*
G36*
X6423660D02*
X6387068D01*
X6393633Y1200811D01*
X6407811Y1186633D01*
X6423660Y1180068D01*
Y1216660D01*
D02*
G37*
G36*
X3388225Y1259440D02*
X3368175D01*
X3349651Y1251767D01*
X3335473Y1237589D01*
X3327800Y1219065D01*
Y1199015D01*
X3335473Y1180491D01*
X3349651Y1166313D01*
X3368175Y1158640D01*
X3388225D01*
X3406749Y1166313D01*
X3420927Y1180491D01*
X3428600Y1199015D01*
Y1219065D01*
X3420927Y1237589D01*
X3406749Y1251767D01*
X3388225Y1259440D01*
D02*
G37*
G36*
X5892606Y1165320D02*
X5740594D01*
Y1090407D01*
X5579790D01*
X5575909Y1094287D01*
X5557385Y1101960D01*
X5537335D01*
X5518811Y1094287D01*
X5504633Y1080109D01*
X5496960Y1061585D01*
Y1041535D01*
X5504633Y1023011D01*
X5518811Y1008833D01*
X5537335Y1001160D01*
X5557385D01*
X5575909Y1008833D01*
X5579790Y1012713D01*
X5740594D01*
Y958327D01*
X5595030D01*
X5591149Y962207D01*
X5572625Y969880D01*
X5552575D01*
X5534051Y962207D01*
X5519873Y948029D01*
X5512200Y929505D01*
Y909455D01*
X5519873Y890931D01*
X5534051Y876753D01*
X5552575Y869080D01*
X5572625D01*
X5591149Y876753D01*
X5595030Y880633D01*
X5740594D01*
Y833305D01*
X5892606D01*
Y880278D01*
X5961482D01*
X5976347Y883235D01*
X5988950Y891656D01*
X6019800Y922506D01*
X6042674Y899631D01*
X6055277Y891211D01*
X6070143Y888253D01*
X6142518D01*
X6144454Y885356D01*
X6155895Y877711D01*
X6156677Y875371D01*
Y851829D01*
X6155895Y849489D01*
X6144454Y841844D01*
X6131657Y822692D01*
X6127163Y800100D01*
X6129365Y789026D01*
X6124996Y782488D01*
X6108493Y769936D01*
X6108059Y769947D01*
X6105139Y770731D01*
X6067134Y773243D01*
X6061049Y779327D01*
X6042525Y787000D01*
X6022475D01*
X6003951Y779327D01*
X5989773Y765149D01*
X5982100Y746625D01*
Y726575D01*
X5989773Y708051D01*
X6003951Y693873D01*
X6022475Y686200D01*
X6042525D01*
X6061049Y693873D01*
X6062840Y695664D01*
X6089133Y693926D01*
X6128538Y666185D01*
X6131657Y650508D01*
X6144454Y631356D01*
X6150532Y627295D01*
X6152539Y600453D01*
X6136613Y584947D01*
X6103690D01*
X6100780Y584368D01*
X6097816Y584500D01*
X6093416Y582903D01*
X6088824Y581989D01*
X6086358Y580341D01*
X6083568Y579329D01*
X6028034Y545700D01*
X6009775D01*
X5991251Y538027D01*
X5977073Y523849D01*
X5969400Y505325D01*
Y485275D01*
X5977073Y466751D01*
X5991251Y452573D01*
X6009775Y444900D01*
X6029825D01*
X6048349Y452573D01*
X6062527Y466751D01*
X6067508Y478776D01*
X6114535Y507253D01*
X6142518D01*
X6144454Y504356D01*
X6155895Y496711D01*
X6156677Y494371D01*
Y470829D01*
X6155895Y468489D01*
X6144454Y460844D01*
X6131657Y441692D01*
X6127163Y419100D01*
X6131657Y396508D01*
X6144454Y377356D01*
X6155895Y369711D01*
X6156677Y367371D01*
Y343829D01*
X6155895Y341489D01*
X6144454Y333844D01*
X6131657Y314692D01*
X6127163Y292100D01*
X6131657Y269508D01*
X6144454Y250356D01*
X6155895Y242711D01*
X6156677Y240371D01*
Y216829D01*
X6155895Y214489D01*
X6144454Y206844D01*
X6131657Y187692D01*
X6127163Y165100D01*
X6131657Y142508D01*
X6144454Y123356D01*
X6163606Y110559D01*
X6186197Y106066D01*
X6331197D01*
X6353789Y110559D01*
X6372941Y123356D01*
X6374877Y126253D01*
X6451600D01*
X6466466Y129211D01*
X6479069Y137631D01*
X6494309Y152871D01*
X6502729Y165474D01*
X6505687Y180340D01*
Y912221D01*
X6502729Y927087D01*
X6494309Y939690D01*
X6479430Y954569D01*
X6466827Y962989D01*
X6451961Y965947D01*
X6374877D01*
X6372941Y968844D01*
X6361500Y976489D01*
X6360717Y978829D01*
Y1002371D01*
X6361500Y1004711D01*
X6372941Y1012356D01*
X6385738Y1031508D01*
X6390232Y1054100D01*
X6385738Y1076692D01*
X6372941Y1095844D01*
X6353789Y1108641D01*
X6331197Y1113134D01*
X6186197D01*
X6163606Y1108641D01*
X6144454Y1095844D01*
X6142518Y1092947D01*
X6068824D01*
Y1106466D01*
X5970776D01*
Y1088994D01*
X5937775D01*
X5919055Y1107285D01*
X5912884Y1111306D01*
X5906772Y1115389D01*
X5906547Y1115434D01*
X5906355Y1115559D01*
X5899126Y1116910D01*
X5892606Y1118207D01*
Y1165320D01*
D02*
G37*
G36*
X8118780Y1227800D02*
X8086420D01*
X8055162Y1219425D01*
X8027138Y1203244D01*
X8004256Y1180362D01*
X7988075Y1152338D01*
X7979700Y1121080D01*
Y1088720D01*
X7988075Y1057462D01*
X8004256Y1029438D01*
X8027138Y1006556D01*
X8055162Y990375D01*
X8086420Y982000D01*
X8118780D01*
X8150038Y990375D01*
X8178062Y1006556D01*
X8200944Y1029438D01*
X8217125Y1057462D01*
X8225500Y1088720D01*
Y1121080D01*
X8217125Y1152338D01*
X8200944Y1180362D01*
X8178062Y1203244D01*
X8150038Y1219425D01*
X8118780Y1227800D01*
D02*
G37*
G36*
X6687820Y1001792D02*
Y965200D01*
X6724412D01*
X6717847Y981049D01*
X6703669Y995227D01*
X6687820Y1001792D01*
D02*
G37*
G36*
X6662420D02*
X6646571Y995227D01*
X6632393Y981049D01*
X6625828Y965200D01*
X6662420D01*
Y1001792D01*
D02*
G37*
G36*
X4838700Y966232D02*
Y929640D01*
X4875292D01*
X4868727Y945489D01*
X4854549Y959667D01*
X4838700Y966232D01*
D02*
G37*
G36*
X6724412Y939800D02*
X6687820D01*
Y903208D01*
X6703669Y909773D01*
X6717847Y923951D01*
X6724412Y939800D01*
D02*
G37*
G36*
X6662420D02*
X6625828D01*
X6632393Y923951D01*
X6646571Y909773D01*
X6662420Y903208D01*
Y939800D01*
D02*
G37*
G36*
X4875292Y904240D02*
X4838700D01*
Y867648D01*
X4854549Y874213D01*
X4868727Y888391D01*
X4875292Y904240D01*
D02*
G37*
G36*
X4320393Y791698D02*
X4283801D01*
Y755106D01*
X4299651Y761671D01*
X4313828Y775848D01*
X4320393Y791698D01*
D02*
G37*
G36*
X8225500Y727801D02*
X7979700D01*
Y482001D01*
X8225500D01*
Y727801D01*
D02*
G37*
G36*
X5091481Y554700D02*
X5088001D01*
Y444500D01*
X5198201D01*
Y447980D01*
X5189826Y479238D01*
X5173645Y507262D01*
X5150763Y530144D01*
X5122739Y546325D01*
X5091481Y554700D01*
D02*
G37*
G36*
X5062601D02*
X5059121D01*
X5027863Y546325D01*
X4999839Y530144D01*
X4976957Y507262D01*
X4960776Y479238D01*
X4952401Y447980D01*
Y444500D01*
X5062601D01*
Y554700D01*
D02*
G37*
G36*
X4836025Y1536300D02*
X4815975D01*
X4797451Y1528627D01*
X4783273Y1514449D01*
X4775600Y1495925D01*
Y1475875D01*
X4783273Y1457351D01*
X4788528Y1452095D01*
X4799292Y1193761D01*
X4800325Y1189505D01*
X4800633Y1185135D01*
X4802095Y1182209D01*
X4802865Y1179031D01*
X4805448Y1175494D01*
X4807406Y1171575D01*
X4809875Y1169431D01*
X4811804Y1166790D01*
X4815543Y1164511D01*
X4818851Y1161639D01*
X5523642Y759452D01*
Y554700D01*
X5452400D01*
Y308900D01*
X5698200D01*
Y554700D01*
X5601335D01*
Y782010D01*
X5600325Y787089D01*
X5599960Y792254D01*
X5598859Y794459D01*
X5598378Y796876D01*
X5595501Y801182D01*
X5593188Y805814D01*
X5591327Y807429D01*
X5589957Y809479D01*
X5585652Y812356D01*
X5581742Y815750D01*
X4876023Y1218467D01*
X4866176Y1454800D01*
X4868727Y1457351D01*
X4876400Y1475875D01*
Y1495925D01*
X4868727Y1514449D01*
X4854549Y1528627D01*
X4836025Y1536300D01*
D02*
G37*
G36*
X5198201Y419100D02*
X5088001D01*
Y308900D01*
X5091481D01*
X5122739Y317275D01*
X5150763Y333456D01*
X5173645Y356338D01*
X5189826Y384362D01*
X5198201Y415620D01*
Y419100D01*
D02*
G37*
G36*
X5062601D02*
X4952401D01*
Y415620D01*
X4960776Y384362D01*
X4976957Y356338D01*
X4999839Y333456D01*
X5027863Y317275D01*
X5059121Y308900D01*
X5062601D01*
Y419100D01*
D02*
G37*
G36*
X4037904Y345116D02*
Y308524D01*
X4074496D01*
X4067931Y324373D01*
X4053753Y338551D01*
X4037904Y345116D01*
D02*
G37*
G36*
X4012504D02*
X3996655Y338551D01*
X3982477Y324373D01*
X3975912Y308524D01*
X4012504D01*
Y345116D01*
D02*
G37*
G36*
X4074496Y283124D02*
X4037904D01*
Y246532D01*
X4053753Y253097D01*
X4067931Y267274D01*
X4074496Y283124D01*
D02*
G37*
G36*
X4012504D02*
X3975912D01*
X3982477Y267274D01*
X3996655Y253097D01*
X4012504Y246532D01*
Y283124D01*
D02*
G37*
G36*
X3593965Y261220D02*
X3573915D01*
X3555391Y253547D01*
X3541213Y239369D01*
X3533540Y220845D01*
Y200795D01*
X3541213Y182271D01*
X3555391Y168093D01*
X3573915Y160420D01*
X3593965D01*
X3612489Y168093D01*
X3626667Y182271D01*
X3634340Y200795D01*
Y220845D01*
X3626667Y239369D01*
X3612489Y253547D01*
X3593965Y261220D01*
D02*
G37*
G36*
X7790180Y155972D02*
Y119380D01*
X7826772D01*
X7820207Y135229D01*
X7806029Y149407D01*
X7790180Y155972D01*
D02*
G37*
G36*
X7215998Y152400D02*
X7099690D01*
X7101657Y142508D01*
X7114454Y123356D01*
X7133606Y110559D01*
X7156198Y106066D01*
X7215998D01*
Y152400D01*
D02*
G37*
G36*
X7826772Y93980D02*
X7790180D01*
Y57388D01*
X7806029Y63953D01*
X7820207Y78131D01*
X7826772Y93980D01*
D02*
G37*
%LPD*%
G36*
X6427993Y203947D02*
X6374877D01*
X6372941Y206844D01*
X6361500Y214489D01*
X6360717Y216829D01*
Y240371D01*
X6361500Y242711D01*
X6372941Y250356D01*
X6385738Y269508D01*
X6390232Y292100D01*
X6385738Y314692D01*
X6372941Y333844D01*
X6361500Y341489D01*
X6360717Y343829D01*
Y367371D01*
X6361500Y369711D01*
X6372941Y377356D01*
X6385738Y396508D01*
X6390232Y419100D01*
X6385738Y441692D01*
X6372941Y460844D01*
X6361500Y468489D01*
X6360717Y470829D01*
Y494371D01*
X6361500Y496711D01*
X6372941Y504356D01*
X6385738Y523508D01*
X6390232Y546100D01*
X6385738Y568692D01*
X6372941Y587844D01*
X6361500Y595489D01*
X6360717Y597829D01*
Y621371D01*
X6361500Y623711D01*
X6372941Y631356D01*
X6385738Y650508D01*
X6390232Y673100D01*
X6385738Y695692D01*
X6372941Y714844D01*
X6361500Y722489D01*
X6360717Y724829D01*
Y748371D01*
X6361500Y750711D01*
X6372941Y758356D01*
X6385738Y777508D01*
X6390232Y800100D01*
X6385738Y822692D01*
X6372941Y841844D01*
X6366862Y845905D01*
X6364855Y872747D01*
X6380781Y888253D01*
X6427993D01*
Y203947D01*
D02*
G37*
%LPC*%
G36*
X2998232Y1021080D02*
X2961640D01*
Y984488D01*
X2977489Y991053D01*
X2991667Y1005231D01*
X2998232Y1021080D01*
D02*
G37*
%LPD*%
D11*
X2225385Y1371600D02*
D03*
X2298700D02*
D03*
D23*
X7480300Y1051215D02*
D03*
Y977900D02*
D03*
X6019800Y980785D02*
D03*
Y1054100D02*
D03*
X1968500Y307685D02*
D03*
Y381000D02*
D03*
X2159000Y306243D02*
D03*
Y379557D02*
D03*
X2057400Y1394115D02*
D03*
Y1320800D02*
D03*
X1701800Y1051215D02*
D03*
Y977900D02*
D03*
D26*
X7683501Y1070788D02*
D03*
Y910412D02*
D03*
X5816600Y919124D02*
D03*
Y1079500D02*
D03*
X1854200Y1557376D02*
D03*
Y1397000D02*
D03*
X1676400Y254000D02*
D03*
Y414376D02*
D03*
D29*
X715924Y215900D02*
D03*
X876300D02*
D03*
X736600Y457200D02*
D03*
X896976D02*
D03*
D30*
X2141002Y1158098D02*
X2241001D01*
X2057400Y1394115D02*
X2199528D01*
X2222043Y1371600D01*
X2225385D01*
X2057400Y1473200D02*
X2117314D01*
X2147794Y1503680D01*
X2260600D01*
X1430020Y1384300D02*
X1841500D01*
X1854200Y1397000D01*
X731520Y683260D02*
X732964D01*
X804084Y612140D01*
X876300D01*
X896976Y591464D01*
Y457200D02*
Y591464D01*
X1838960Y378460D02*
X1840230Y379730D01*
X1967230D01*
X1968500Y381000D01*
X2225385Y1371600D02*
X2228728D01*
X2241001Y1359327D01*
Y1158098D02*
Y1359327D01*
X2057400Y1394115D02*
Y1473200D01*
X1973224Y1557376D02*
X2057400Y1473200D01*
X1854200Y1557376D02*
X1973224D01*
X6718300Y520700D02*
X6927598D01*
X7156198Y292100D01*
X7228698D01*
X7467600Y1186180D02*
X7472307Y1181473D01*
Y1065481D02*
Y1181473D01*
X2181860Y1587500D02*
X2410460D01*
X2598420Y1399540D01*
X5562600Y919480D02*
X5816244D01*
X5816600Y919124D01*
X1415801Y228600D02*
X1422400Y235199D01*
X1333139Y228600D02*
X1415801D01*
X1318260Y243479D02*
X1333139Y228600D01*
X1318260Y243479D02*
Y410322D01*
X1333139Y425201D01*
X1422400D01*
X1449900D02*
X1469700Y445001D01*
Y489260D01*
X1501140Y520700D01*
Y736600D01*
X1437640Y800100D02*
X1501140Y736600D01*
X1449900Y425201D02*
X1530599D01*
X5547360Y1051560D02*
X5788660D01*
X5816600Y1079500D01*
X6258697Y165100D02*
X6451600D01*
X6466840Y180340D01*
Y912221D01*
X6451961Y927100D02*
X6466840Y912221D01*
X6258697Y927100D02*
X6451961D01*
X6070143D02*
X6258697D01*
X6019800Y977443D02*
X6070143Y927100D01*
X6019800Y977443D02*
Y980785D01*
X5961482Y919124D02*
X6019800Y977443D01*
X5816600Y919124D02*
X5961482D01*
X2288699Y1155798D02*
X2290999Y1158098D01*
X2288699Y1064419D02*
Y1155798D01*
X2199640Y975360D02*
X2288699Y1064419D01*
X1908261Y975360D02*
X2199640D01*
X1906001Y973099D02*
X1908261Y975360D01*
X2292309Y781009D02*
X2293620Y782320D01*
X2292309Y539410D02*
Y781009D01*
X2290999Y538099D02*
X2292309Y539410D01*
X2190999Y538099D02*
Y905759D01*
X2344420Y1059180D01*
X2763520D02*
X2903220Y1198880D01*
X2344420Y1059180D02*
X2763520D01*
X1463040Y1046480D02*
Y1051215D01*
X1701800D01*
X1694180Y60960D02*
Y251460D01*
X1676400Y254000D02*
X1691640D01*
X1676400Y241300D02*
X1968500D01*
X1691640Y254000D02*
X1694180Y251460D01*
X1676400Y241300D02*
Y254000D01*
X497840Y101600D02*
Y215900D01*
X715924D01*
Y457200D01*
X736600D01*
X2159000Y306243D02*
Y307685D01*
X1968500D02*
X2159000D01*
X1968500Y241300D02*
Y307685D01*
X1544320Y254000D02*
X1676400D01*
X1544320D02*
Y330200D01*
X1422400D02*
X1544320D01*
X1419860Y1214120D02*
X1422400Y1216660D01*
X894080Y1214120D02*
X1419860D01*
X891540Y1211580D02*
X894080Y1214120D01*
X3200400Y1498600D02*
Y1503680D01*
X3091180Y1389380D02*
X3200400Y1498600D01*
X3091180Y1384300D02*
Y1389380D01*
X2903220Y1262741D02*
X2921012Y1280533D01*
X2974713D01*
X2979420Y1285240D01*
X2903220Y1198880D02*
Y1262741D01*
X2726383Y632460D02*
X2733040D01*
X2685743Y673100D02*
X2726383Y632460D01*
X2526000Y673100D02*
X2685743D01*
X2814320Y830580D02*
Y1023620D01*
X2862580Y1071880D01*
Y1074420D01*
X2938780Y1150620D01*
X2131060Y784860D02*
Y855980D01*
X2069302Y723102D02*
X2131060Y784860D01*
X1906001Y723102D02*
X2069302D01*
X5673382Y1660251D02*
X5688321Y1655393D01*
X3204571Y1660251D02*
X5673382D01*
X5688321Y1655393D02*
X6096146Y1358797D01*
X3091180Y1546860D02*
X3204571Y1660251D01*
X2393109Y1011349D02*
X2395220Y1013460D01*
X2393109Y540210D02*
Y1011349D01*
X2390999Y538099D02*
X2393109Y540210D01*
X2338701Y535799D02*
X2341001Y538099D01*
X2338701Y421723D02*
Y535799D01*
X2336800Y419822D02*
X2338701Y421723D01*
X2336800Y398780D02*
Y419822D01*
Y398780D02*
X2352040Y383540D01*
Y317500D02*
Y383540D01*
Y317500D02*
X2425700Y243840D01*
X2496820D01*
X3500120Y576580D02*
X3566160Y642620D01*
X4086860D01*
X4094119Y649879D01*
X4115161D01*
X4145280Y619760D01*
Y533400D02*
Y619760D01*
X2311400Y246380D02*
Y358140D01*
X2241001Y428539D02*
X2311400Y358140D01*
X2241001Y428539D02*
Y538099D01*
X3154680Y833120D02*
X3271520D01*
X3317240Y787400D01*
X3449320D01*
X3533140Y703580D01*
X4147820D01*
X4221480Y629920D01*
Y541020D02*
Y629920D01*
X4218940Y538480D02*
X4221480Y541020D01*
X7688580Y754380D02*
X7780020Y662940D01*
X2415540Y365760D02*
X2456180D01*
X2390999Y390302D02*
Y538099D01*
Y390302D02*
X2415540Y365760D01*
X7688580Y754380D02*
Y905333D01*
X7683501Y910412D02*
X7688580Y905333D01*
X7669353Y924560D02*
X7683501Y910412D01*
X7607300Y924560D02*
X7669353D01*
X7769860Y673100D02*
X7780020Y662940D01*
X7553960Y977900D02*
X7607300Y924560D01*
X7480300Y977900D02*
X7553960D01*
X7472680Y970280D02*
X7480300Y977900D01*
X7355093Y970280D02*
X7472680D01*
X7311913Y927100D02*
X7355093Y970280D01*
X7228698Y927100D02*
X7311913D01*
X7429500Y106680D02*
X7777480D01*
X7371080Y165100D02*
X7429500Y106680D01*
X7228698Y165100D02*
X7371080D01*
X3329579Y850900D02*
X3352800D01*
X3276600Y903879D02*
X3329579Y850900D01*
X3276600Y903879D02*
Y1079500D01*
X2997200Y1358900D02*
X3276600Y1079500D01*
X2997200Y1358900D02*
Y1689100D01*
X3035300Y1727200D01*
X4559300D01*
X7606797Y717730D02*
X7632700Y684248D01*
Y381000D02*
Y684248D01*
X7228698Y800100D02*
X7377655D01*
X7386400Y798547D02*
X7606797Y717730D01*
X7377655Y800100D02*
X7386400Y798547D01*
X6096146Y1358797D02*
X6168167Y1307953D01*
X7712215Y1281722D01*
X7815766Y1251169D01*
X7874036Y1183330D01*
X7876928Y347825D01*
X7775241Y266915D02*
X7876928Y347825D01*
X7601038Y270710D02*
X7775241Y266915D01*
X7556500Y299232D02*
X7601038Y270710D01*
X7556500Y299232D02*
Y444500D01*
X7381566Y557415D02*
X7556500Y444500D01*
X7301198Y546100D02*
X7381566Y557415D01*
X7228698Y546100D02*
X7301198D01*
X7228698D02*
Y673100D01*
X7467477Y255314D02*
X7480300Y190500D01*
X7457356Y363217D02*
X7467477Y255314D01*
X7382204Y419100D02*
X7457356Y363217D01*
X7228698Y419100D02*
X7382204D01*
X6032500Y736600D02*
X6102577Y731969D01*
X6186197Y673100D01*
X6258697D01*
X6019800Y495300D02*
X6103690Y546100D01*
X6258697D01*
X6019800Y1054100D02*
X6258697D01*
X6008876Y1050147D02*
X6019800Y1054100D01*
X5921948Y1050147D02*
X6008876D01*
X5891906Y1079500D02*
X5921948Y1050147D01*
X5816600Y1079500D02*
X5891906D01*
X7645594Y1065481D02*
X7683501Y1070788D01*
X7472307Y1065481D02*
X7645594D01*
X7469376Y1054100D02*
X7480300Y1051215D01*
X7228698Y1054100D02*
X7469376D01*
X3429528Y651906D02*
X3437361Y525837D01*
X2593300Y725402D02*
X3360737Y739225D01*
X3429528Y651906D01*
X2526000Y723102D02*
X2593300Y725402D01*
X4660900Y607976D02*
Y1371600D01*
X4490525Y439157D02*
X4660900Y607976D01*
X3541235Y431881D02*
X4490525Y439157D01*
X3437361Y525837D02*
X3541235Y431881D01*
X5562489Y516600D02*
X5575300Y431800D01*
X5562489Y516600D02*
Y782010D01*
X4838105Y1195378D02*
X5562489Y782010D01*
X4826000Y1485900D02*
X4838105Y1195378D01*
X2148076Y393824D02*
X2159000Y379557D01*
X2094946Y422612D02*
X2148076Y393824D01*
X2093299Y470799D02*
X2094946Y422612D01*
X2090999Y538099D02*
X2093299Y470799D01*
X1968500Y381000D02*
X1979424Y395266D01*
X2033633Y441306D01*
X2038702Y470799D01*
X2041002Y538099D01*
X2042571Y470799D01*
X2046476Y1328310D02*
X2057400Y1320800D01*
X1986449Y1328310D02*
X2046476D01*
X1930892Y1384300D02*
X1986449Y1328310D01*
X1892107Y1384300D02*
X1930892D01*
X1854200Y1397000D02*
X1892107Y1384300D01*
X2088699Y1225398D02*
X2090999Y1158098D01*
X2079034Y1288348D02*
X2088699Y1225398D01*
X2057400Y1320800D02*
X2079034Y1288348D01*
X2290999Y1158098D02*
X2293299Y1225398D01*
Y1360676D01*
X2298700Y1371600D01*
X1838701Y974682D02*
X1906001Y973099D01*
X1712724Y974682D02*
X1838701D01*
X1701800Y977900D02*
X1712724Y974682D01*
X1668424Y406400D02*
X1676400Y414376D01*
X1549400Y406400D02*
X1668424D01*
X1530599Y425201D02*
X1549400Y406400D01*
X895599Y235199D02*
X1127399D01*
X876300Y215900D02*
X895599Y235199D01*
X1099899Y425201D02*
X1127399D01*
X1067900Y457200D02*
X1099899Y425201D01*
X896976Y457200D02*
X1067900D01*
D33*
X5075301Y431800D02*
D03*
X8102600Y1104900D02*
D03*
X381000Y609600D02*
D03*
D34*
X5575300Y431800D02*
D03*
D35*
X7213600Y1587500D02*
D03*
X6959600D02*
D03*
D36*
X7086600D02*
D03*
D37*
X8102600Y604901D02*
D03*
X381000Y1109599D02*
D03*
D38*
X3238500Y114300D02*
D03*
D39*
Y241300D02*
D03*
Y368300D02*
D03*
Y495300D02*
D03*
Y622300D02*
D03*
X3111500Y114300D02*
D03*
Y241300D02*
D03*
Y368300D02*
D03*
Y495300D02*
D03*
Y622300D02*
D03*
D40*
X1430020Y1384300D02*
D03*
X731520Y683260D02*
D03*
X1838960Y378460D02*
D03*
X2260600Y1503680D02*
D03*
X6593840Y1440180D02*
D03*
X3378200Y1209040D02*
D03*
X3395980Y487680D02*
D03*
X4749800Y965200D02*
D03*
X4826000Y916940D02*
D03*
X4638040Y1549400D02*
D03*
X6718300Y520700D02*
D03*
X7467600Y1186180D02*
D03*
X3825240Y541020D02*
D03*
X3583940Y210820D02*
D03*
X2181860Y1587500D02*
D03*
X2598420Y1399540D02*
D03*
X5562600Y919480D02*
D03*
X1437640Y800100D02*
D03*
X5547360Y1051560D02*
D03*
X2293620Y782320D02*
D03*
X1463040Y1046480D02*
D03*
X1694180Y60960D02*
D03*
X497840Y101600D02*
D03*
X1422400Y1216660D02*
D03*
X891540Y1211580D02*
D03*
X3474720Y1600200D02*
D03*
X3200400Y1503680D02*
D03*
X2979420Y1285240D02*
D03*
X3091180Y1384300D02*
D03*
X2733040Y632460D02*
D03*
X2814320Y830580D02*
D03*
X2938780Y1150620D02*
D03*
X2131060Y855980D02*
D03*
X3091180Y1546860D02*
D03*
X2395220Y1013460D02*
D03*
X2496820Y243840D02*
D03*
X3500120Y576580D02*
D03*
X2311400Y246380D02*
D03*
X3154680Y833120D02*
D03*
X4145280Y533400D02*
D03*
X4218940Y538480D02*
D03*
X7780020Y662940D02*
D03*
X7777480Y106680D02*
D03*
X1427480Y619760D02*
D03*
X2948940Y1033780D02*
D03*
X4025204Y295824D02*
D03*
X6436360Y1229360D02*
D03*
X6675120Y952500D02*
D03*
X3352800Y850900D02*
D03*
X4559300Y1727200D02*
D03*
X7632700Y381000D02*
D03*
X7480300Y190500D02*
D03*
X6032500Y736600D02*
D03*
X6019800Y495300D02*
D03*
X4660900Y1371600D02*
D03*
X4826000Y1485900D02*
D03*
X3721100Y1354399D02*
D03*
X3831102D02*
D03*
X3941100D02*
D03*
X4051102D02*
D03*
X4161099D02*
D03*
X4271101D02*
D03*
X3721100Y1244402D02*
D03*
X3831102D02*
D03*
X3941100D02*
D03*
X4051102D02*
D03*
X4161099D02*
D03*
X4271101D02*
D03*
X3721100Y1134400D02*
D03*
X3831102D02*
D03*
X3941100D02*
D03*
X4051102D02*
D03*
X4161099D02*
D03*
X4271101D02*
D03*
X3721100Y1024402D02*
D03*
X3831102D02*
D03*
X3941100D02*
D03*
X4051102D02*
D03*
X4161099D02*
D03*
X4271101D02*
D03*
X3721100Y914400D02*
D03*
X3831102D02*
D03*
X3941100D02*
D03*
X4051102D02*
D03*
X4161099D02*
D03*
X4271101D02*
D03*
X3721100Y804398D02*
D03*
X3831102D02*
D03*
X3941100D02*
D03*
X4051102D02*
D03*
X4161099D02*
D03*
X4271101D02*
D03*
D41*
X7228698Y1054100D02*
D03*
Y927100D02*
D03*
Y800100D02*
D03*
Y673100D02*
D03*
Y546100D02*
D03*
Y419100D02*
D03*
Y292100D02*
D03*
Y165100D02*
D03*
X6258697Y1054100D02*
D03*
Y927100D02*
D03*
Y800100D02*
D03*
Y673100D02*
D03*
Y546100D02*
D03*
Y419100D02*
D03*
Y292100D02*
D03*
Y165100D02*
D03*
D42*
X2390999Y1158098D02*
D03*
X2341001D02*
D03*
X2290999D02*
D03*
X2241001D02*
D03*
X2190999D02*
D03*
X2141002D02*
D03*
X2090999D02*
D03*
X2041002D02*
D03*
Y538099D02*
D03*
X2090999D02*
D03*
X2141002D02*
D03*
X2190999D02*
D03*
X2241001D02*
D03*
X2290999D02*
D03*
X2341001D02*
D03*
X2390999D02*
D03*
D43*
X1906001Y1023102D02*
D03*
Y973099D02*
D03*
Y923102D02*
D03*
Y873100D02*
D03*
Y823102D02*
D03*
Y773100D02*
D03*
Y723102D02*
D03*
Y673100D02*
D03*
X2526000D02*
D03*
Y723102D02*
D03*
Y773100D02*
D03*
Y823102D02*
D03*
Y873100D02*
D03*
Y923102D02*
D03*
Y973099D02*
D03*
Y1023102D02*
D03*
D44*
X1127399Y425201D02*
D03*
Y235199D02*
D03*
X1422400D02*
D03*
Y330200D02*
D03*
Y425201D02*
D03*
%TF.MD5,baa27abb6189cefec93f425870339565*%
M02*
