%TF.GenerationSoftware,Altium Limited,Altium Designer,25.4.2 (15)*%
G04 Layer_Physical_Order=1*
G04 Layer_Color=255*
%FSLAX45Y45*%
%MOMM*%
%TF.SameCoordinates,D0FDF368-1468-4A38-90CB-FD56B44771C5*%
%TF.FilePolarity,Positive*%
%TF.FileFunction,Copper,L1,Top,Signal*%
%TF.Part,Single*%
G01*
G75*
%TA.AperFunction,SMDPad,CuDef*%
%ADD10R,0.98000X0.92000*%
%ADD11R,0.53933X0.47247*%
%ADD12R,0.70000X0.60000*%
G04:AMPARAMS|DCode=13|XSize=0.65mm|YSize=1.65mm|CornerRadius=0.04875mm|HoleSize=0mm|Usage=FLASHONLY|Rotation=90.000|XOffset=0mm|YOffset=0mm|HoleType=Round|Shape=RoundedRectangle|*
%AMROUNDEDRECTD13*
21,1,0.65000,1.55250,0,0,90.0*
21,1,0.55250,1.65000,0,0,90.0*
1,1,0.09750,0.77625,0.27625*
1,1,0.09750,0.77625,-0.27625*
1,1,0.09750,-0.77625,-0.27625*
1,1,0.09750,-0.77625,0.27625*
%
%ADD13ROUNDEDRECTD13*%
%ADD14R,1.04000X1.02000*%
%ADD15R,0.80000X0.60000*%
%ADD16R,1.05000X1.00000*%
%ADD17R,0.90000X0.60000*%
%ADD18R,0.80000X0.90000*%
%ADD19R,2.30000X1.00000*%
%ADD20O,0.85000X0.25000*%
%ADD21O,0.25000X0.85000*%
%ADD22R,7.20000X7.20000*%
%ADD23R,0.47247X0.53933*%
%ADD24R,0.90000X0.80000*%
%ADD25R,1.10000X1.35000*%
%ADD26R,1.01213X1.20840*%
%ADD27R,1.80000X1.00000*%
%ADD28R,1.75000X2.65000*%
%ADD29R,1.20840X1.01213*%
%TA.AperFunction,Conductor*%
%ADD30C,0.25400*%
%TA.AperFunction,NonConductor*%
%ADD31C,0.25400*%
%ADD32C,0.15240*%
%TA.AperFunction,ComponentPad*%
%ADD33C,1.95000*%
%ADD34R,1.95000X1.95000*%
%ADD35O,1.00000X2.00000*%
%ADD36O,1.00000X2.00000*%
%ADD37R,1.95000X1.95000*%
%ADD38R,1.06000X1.06000*%
%ADD39C,1.06000*%
%TA.AperFunction,ViaPad*%
%ADD40C,0.50000*%
G36*
X4511060Y1742440D02*
X4508900Y1737225D01*
Y1717175D01*
X4516573Y1698651D01*
X4527917Y1687307D01*
X4525816Y1673988D01*
X4520130Y1661907D01*
X4129066D01*
Y1738124D01*
X4016085D01*
Y1689100D01*
Y1640076D01*
X4032255D01*
Y1604699D01*
X4021099Y1595543D01*
X4006312Y1592602D01*
X3996101Y1585779D01*
X3985890Y1592602D01*
X3971102Y1595543D01*
X3956314Y1592602D01*
X3946101Y1585777D01*
X3935887Y1592602D01*
X3921100Y1595543D01*
X3906312Y1592602D01*
X3896101Y1585779D01*
X3885890Y1592602D01*
X3871102Y1595543D01*
X3856314Y1592602D01*
X3846101Y1585777D01*
X3835888Y1592602D01*
X3821100Y1595543D01*
X3806312Y1592602D01*
X3796101Y1585779D01*
X3785890Y1592602D01*
X3771102Y1595543D01*
X3756315Y1592602D01*
X3746101Y1585777D01*
X3735888Y1592602D01*
X3721100Y1595543D01*
X3706312Y1592602D01*
X3696099Y1585777D01*
X3685885Y1592602D01*
X3671098Y1595543D01*
X3656310Y1592602D01*
X3646099Y1585779D01*
X3635888Y1592602D01*
X3621100Y1595543D01*
X3606312Y1592602D01*
X3593776Y1584225D01*
X3585399Y1571689D01*
X3582458Y1556901D01*
Y1517735D01*
X3579120Y1496379D01*
X3557764Y1493041D01*
X3549625D01*
X3548598Y1493245D01*
X3535089D01*
X3499794Y1528541D01*
X3503270Y1557473D01*
X3517447Y1571651D01*
X3525120Y1590175D01*
Y1595663D01*
X3579711Y1650253D01*
X3951019D01*
Y1640076D01*
X3990685D01*
Y1689100D01*
Y1738124D01*
X3951019D01*
Y1727947D01*
X3563620D01*
X3548754Y1724989D01*
X3536151Y1716569D01*
X3470183Y1650600D01*
X3464695D01*
X3452607Y1645593D01*
X3433433Y1654317D01*
X3427207Y1659884D01*
Y1740261D01*
X3426773Y1742440D01*
X3442854Y1766180D01*
X3445647Y1767840D01*
X4495477D01*
X4511060Y1742440D01*
D02*
G37*
G36*
X2575896Y1744373D02*
X2367751Y1536229D01*
X2359331Y1523626D01*
X2356373Y1508760D01*
Y1245900D01*
X1963944D01*
X1954224Y1269367D01*
X2006129Y1321271D01*
X2014549Y1333874D01*
X2017507Y1348740D01*
Y1487589D01*
X2078571Y1548653D01*
X2149430D01*
X2153311Y1544773D01*
X2171835Y1537100D01*
X2191885D01*
X2192504Y1537356D01*
X2211944Y1517916D01*
X2211308Y1516380D01*
X2247900D01*
Y1555880D01*
X2230516Y1573264D01*
X2232260Y1577475D01*
Y1597525D01*
X2224587Y1616049D01*
X2210409Y1630227D01*
X2191885Y1637900D01*
X2171835D01*
X2153311Y1630227D01*
X2149430Y1626347D01*
X2062480D01*
X2047614Y1623389D01*
X2035011Y1614969D01*
X1951191Y1531149D01*
X1942771Y1518546D01*
X1939813Y1503680D01*
Y1364831D01*
X1883829Y1308847D01*
X1842200D01*
Y1345400D01*
X1561400D01*
Y1308847D01*
X1503233D01*
X1488367Y1305889D01*
X1475764Y1297469D01*
X1441568Y1263273D01*
X1432425Y1267060D01*
X1412375D01*
X1393851Y1259387D01*
X1379673Y1245209D01*
X1372000Y1226685D01*
X1346947Y1227522D01*
Y1485153D01*
X1561400D01*
Y1448600D01*
X1842200D01*
Y1599400D01*
X1561400D01*
Y1562847D01*
X1322979D01*
X1308113Y1559889D01*
X1295510Y1551469D01*
X1280631Y1536590D01*
X1272211Y1523987D01*
X1269253Y1509121D01*
Y295491D01*
X1241520Y267757D01*
X1216120Y278278D01*
Y291906D01*
X1169147D01*
Y330200D01*
X1166189Y345066D01*
X1157769Y357669D01*
X1118347Y397091D01*
Y427199D01*
X1192400D01*
Y742999D01*
X966600D01*
Y427199D01*
X1040653D01*
Y381000D01*
X1043611Y366134D01*
X1052031Y353531D01*
X1088256Y317306D01*
X1083735Y291906D01*
X884105D01*
Y254747D01*
X435087D01*
Y498914D01*
X456462Y511256D01*
X479344Y534138D01*
X495525Y562162D01*
X503900Y593420D01*
Y625780D01*
X495525Y657038D01*
X479344Y685062D01*
X456462Y707944D01*
X450020Y711664D01*
X478752Y813951D01*
X480198Y816421D01*
X834530Y1170753D01*
X861090D01*
X862991Y1168853D01*
X881515Y1161180D01*
X901565D01*
X920089Y1168853D01*
X934267Y1183031D01*
X941940Y1201555D01*
Y1221605D01*
X934267Y1240129D01*
X920089Y1254307D01*
X901565Y1261980D01*
X881515D01*
X862991Y1254307D01*
X859110Y1250427D01*
X820420D01*
X805554Y1247469D01*
X792951Y1239049D01*
X421728Y867825D01*
X418969Y863697D01*
X415672Y859982D01*
X409179Y848891D01*
X407555Y844198D01*
X405305Y839770D01*
X375172Y732500D01*
X364820D01*
X333562Y724125D01*
X305538Y707944D01*
X282656Y685062D01*
X266475Y657038D01*
X258100Y625780D01*
Y593420D01*
X266475Y562162D01*
X282656Y534138D01*
X305538Y511256D01*
X333562Y495075D01*
X357393Y488690D01*
Y231140D01*
X360351Y216274D01*
X368771Y203671D01*
X384011Y188431D01*
X396614Y180011D01*
X411480Y177053D01*
X486978D01*
X487815Y152000D01*
X469291Y144327D01*
X455113Y130149D01*
X448548Y114300D01*
X547132D01*
X540567Y130149D01*
X526389Y144327D01*
X507865Y152000D01*
X508702Y177053D01*
X884105D01*
Y139894D01*
X1216120D01*
Y177053D01*
X1244600D01*
X1259466Y180011D01*
X1272069Y188431D01*
X1320994Y237356D01*
X1346394Y226835D01*
Y160205D01*
X1498406D01*
Y207178D01*
X1561400D01*
Y178600D01*
X1842200D01*
X1842200Y305275D01*
X1848985Y328060D01*
X1850869Y328840D01*
X1867509Y335733D01*
X1881687Y349911D01*
X1889360Y368435D01*
Y388485D01*
X1881687Y407009D01*
X1867509Y421187D01*
X1863552Y422826D01*
X1842200Y432600D01*
X1842200Y448782D01*
Y495300D01*
X1714500D01*
Y432600D01*
X1785903D01*
X1796424Y407200D01*
X1796233Y407009D01*
X1788560Y388485D01*
Y368435D01*
X1794208Y354800D01*
X1787011Y337636D01*
X1780823Y329400D01*
X1561400D01*
Y284871D01*
X1498406D01*
Y320580D01*
Y393700D01*
X1422400D01*
Y419100D01*
X1498406D01*
Y469153D01*
X1561400D01*
Y432600D01*
X1689100D01*
Y508000D01*
X1701800D01*
Y520700D01*
X1842200D01*
Y532105D01*
X2602399D01*
Y432600D01*
X2802557D01*
X2815383Y407200D01*
X2809723Y399527D01*
X2613660D01*
X2598794Y396569D01*
X2586191Y388149D01*
X2492283Y294240D01*
X2486795D01*
X2468271Y286567D01*
X2454093Y272389D01*
X2446420Y253865D01*
Y233815D01*
X2454093Y215291D01*
X2462897Y206487D01*
X2455455Y181611D01*
X2431286Y181432D01*
X2361800Y250917D01*
Y256405D01*
X2354127Y274929D01*
X2339949Y289107D01*
X2321425Y296780D01*
X2301375D01*
X2282851Y289107D01*
X2268673Y274929D01*
X2261000Y256405D01*
Y236355D01*
X2268673Y217831D01*
X2282851Y203653D01*
X2301375Y195980D01*
X2306863D01*
X2388071Y114771D01*
X2400674Y106351D01*
X2415540Y103393D01*
X2934061D01*
X2948927Y106351D01*
X2961530Y114771D01*
X2976409Y129650D01*
X2984829Y142253D01*
X2987787Y157119D01*
Y786549D01*
X2995511Y794273D01*
X3122250D01*
X3126131Y790393D01*
X3144655Y782720D01*
X3164705D01*
X3177369Y787966D01*
X3200485Y780334D01*
X3205010Y777696D01*
X3205640Y776882D01*
X3213571Y765011D01*
X3253587Y724996D01*
X3252375Y718818D01*
X3241962Y700700D01*
X3228178D01*
X3208239Y695357D01*
X3190361Y685035D01*
X3175000Y671131D01*
X3159638Y685036D01*
X3141761Y695357D01*
X3121822Y700700D01*
X3101178D01*
X3081239Y695357D01*
X3063361Y685035D01*
X3048765Y670439D01*
X3038443Y652561D01*
X3033100Y632622D01*
Y611978D01*
X3038443Y592039D01*
X3048765Y574161D01*
X3062669Y558800D01*
X3048764Y543438D01*
X3038443Y525561D01*
X3033100Y505622D01*
Y484978D01*
X3038443Y465039D01*
X3048765Y447161D01*
X3062669Y431800D01*
X3048764Y416438D01*
X3038443Y398561D01*
X3033100Y378622D01*
Y357978D01*
X3038443Y338039D01*
X3048765Y320161D01*
X3062669Y304800D01*
X3048764Y289438D01*
X3038443Y271561D01*
X3033100Y251622D01*
Y230978D01*
X3038443Y211039D01*
X3048765Y193161D01*
X3062669Y177800D01*
X3048764Y162438D01*
X3038443Y144561D01*
X3033100Y124622D01*
Y103978D01*
X3038443Y84039D01*
X3048765Y66161D01*
X3061586Y53340D01*
X3060806Y45457D01*
X3053480Y27940D01*
X1762548D01*
X1746670Y48260D01*
X1641690D01*
X1625812Y27940D01*
X518084D01*
X513031Y53340D01*
X526389Y58873D01*
X540567Y73051D01*
X547132Y88900D01*
X448548D01*
X455113Y73051D01*
X469291Y58873D01*
X482649Y53340D01*
X477596Y27940D01*
X115663D01*
X104038Y35708D01*
X81620Y1744477D01*
X88900Y1751853D01*
X103766Y1754811D01*
X116369Y1763231D01*
X119448Y1767840D01*
X2566176D01*
X2575896Y1744373D01*
D02*
G37*
G36*
X5014600Y1669799D02*
X5014600Y1662953D01*
Y1565202D01*
X5014600Y1558999D01*
Y1539802D01*
X4992867Y1524747D01*
X4858430D01*
X4854549Y1528627D01*
X4836025Y1536300D01*
X4815975D01*
X4797451Y1528627D01*
X4783273Y1514449D01*
X4775600Y1495925D01*
Y1475875D01*
X4783273Y1457351D01*
X4797451Y1443173D01*
X4815975Y1435500D01*
X4815138Y1410447D01*
X4693330D01*
X4689449Y1414327D01*
X4670925Y1422000D01*
X4650875D01*
X4632351Y1414327D01*
X4618173Y1400149D01*
X4610500Y1381625D01*
Y1361575D01*
X4618173Y1343051D01*
X4632351Y1328873D01*
X4650875Y1321200D01*
X4670925D01*
X4689449Y1328873D01*
X4693330Y1332753D01*
X4890751D01*
X4928898Y1308128D01*
X4931113Y1268057D01*
X4931800Y1265381D01*
Y1155500D01*
X4965972D01*
Y1126800D01*
X4929400D01*
Y997200D01*
X4929400Y984001D01*
Y973747D01*
X4911439Y955787D01*
X4864847D01*
Y1056096D01*
X4861889Y1070962D01*
X4853469Y1083565D01*
X4821467Y1115567D01*
X4819598Y1116816D01*
Y1130198D01*
X4739198D01*
Y1142898D01*
X4726498D01*
Y1235798D01*
X4534438D01*
X4512904Y1253844D01*
X4511490Y1258171D01*
X4509299Y1269187D01*
X4502475Y1279401D01*
X4509299Y1289614D01*
X4512240Y1304402D01*
X4509299Y1319190D01*
X4502476Y1329400D01*
X4509299Y1339611D01*
X4512240Y1354399D01*
X4509299Y1369187D01*
X4502475Y1379400D01*
X4509299Y1389614D01*
X4512240Y1404402D01*
X4509299Y1419189D01*
X4502476Y1429400D01*
X4509299Y1439611D01*
X4512240Y1454399D01*
X4509299Y1469187D01*
X4500922Y1481723D01*
X4488386Y1490100D01*
X4473598Y1493041D01*
X4434438D01*
X4413077Y1496380D01*
X4409744Y1517734D01*
Y1556901D01*
X4409363Y1558813D01*
X4426656Y1584213D01*
X4548289D01*
X4587640Y1544863D01*
Y1539375D01*
X4595313Y1520851D01*
X4609491Y1506673D01*
X4628015Y1499000D01*
X4648065D01*
X4666589Y1506673D01*
X4680767Y1520851D01*
X4688440Y1539375D01*
Y1559425D01*
X4680767Y1577949D01*
X4666589Y1592127D01*
X4648065Y1599800D01*
X4642577D01*
X4591849Y1650529D01*
X4593290Y1677684D01*
X4602403Y1688353D01*
X4998075D01*
X5014600Y1669799D01*
D02*
G37*
G36*
X8412480Y48260D02*
X8392160Y27940D01*
X7593165D01*
X7587724Y53340D01*
X7648613Y80681D01*
X7654335Y84753D01*
X7660169Y88651D01*
X7660490Y89132D01*
X7660963Y89468D01*
X7664690Y95418D01*
X7668589Y101253D01*
X7668702Y101822D01*
X7669010Y102313D01*
X7670177Y109235D01*
X7671547Y116119D01*
Y348570D01*
X7675427Y352451D01*
X7683100Y370975D01*
Y391025D01*
X7675427Y409549D01*
X7661249Y423727D01*
X7642725Y431400D01*
X7622675D01*
X7604151Y423727D01*
X7589973Y409549D01*
X7582300Y391025D01*
Y370975D01*
X7589973Y352451D01*
X7593853Y348570D01*
Y141259D01*
X7514684Y105709D01*
X4757279Y140040D01*
X4494666Y497887D01*
X4490721Y501499D01*
X4487224Y505546D01*
X4485176Y506575D01*
X4483487Y508122D01*
X4478461Y509949D01*
X4473681Y512351D01*
X4394753Y534129D01*
X4382727Y556502D01*
X4385878Y566167D01*
X4386341Y566503D01*
X4398426Y574577D01*
X4406802Y587113D01*
X4407631Y591282D01*
X4568253Y583676D01*
X4756298Y235194D01*
X4759602Y231200D01*
X4762379Y226825D01*
X4764392Y225411D01*
X4765960Y223515D01*
X4770540Y221090D01*
X4774781Y218110D01*
X4777182Y217574D01*
X4779355Y216423D01*
X4784515Y215936D01*
X4789573Y214805D01*
X7447102Y152422D01*
X7451751Y147773D01*
X7470275Y140100D01*
X7490325D01*
X7508849Y147773D01*
X7523027Y161951D01*
X7530700Y180475D01*
Y200525D01*
X7523027Y219049D01*
X7508849Y233227D01*
X7490325Y240900D01*
X7470275D01*
X7451751Y233227D01*
X7448625Y230101D01*
X7382987Y231642D01*
X7380642Y235304D01*
X7372083Y259223D01*
X7375230Y262179D01*
X7378834Y264558D01*
X7380702Y267318D01*
X7383131Y269600D01*
X7471747Y393633D01*
X7473920Y398447D01*
X7476656Y402965D01*
X7540694Y579452D01*
X7541711Y586105D01*
X7543023Y592702D01*
Y681200D01*
X7566100D01*
Y715799D01*
X7728902Y719020D01*
X7739631Y693827D01*
X7737293Y691489D01*
X7730728Y675640D01*
X7829312D01*
X7822747Y691489D01*
X7818843Y695394D01*
X7829155Y721003D01*
X7913841Y722678D01*
X7979700Y670356D01*
Y482001D01*
X8225500D01*
Y727801D01*
X8032293D01*
X7951220Y792209D01*
X7946078Y794854D01*
X7941209Y797970D01*
X7939386Y798295D01*
X7937741Y799141D01*
X7931980Y799616D01*
X7926287Y800632D01*
X7527232Y792739D01*
X7523867Y792000D01*
X7486332D01*
X7473591Y813974D01*
X7506351Y871202D01*
X7566100D01*
Y888253D01*
X7926424D01*
X7926513Y888271D01*
X7926602Y888254D01*
X7933936Y889748D01*
X7941290Y891211D01*
X7941365Y891261D01*
X7941454Y891279D01*
X7947674Y895476D01*
X7953892Y899631D01*
X7953943Y899707D01*
X7954018Y899758D01*
X8047940Y994545D01*
X8055162Y990375D01*
X8086420Y982000D01*
X8118780D01*
X8150038Y990375D01*
X8178062Y1006556D01*
X8200944Y1029438D01*
X8217125Y1057462D01*
X8225500Y1088720D01*
Y1121080D01*
X8217125Y1152338D01*
X8200944Y1180362D01*
X8178062Y1203244D01*
X8150038Y1219425D01*
X8118780Y1227800D01*
X8086420D01*
X8055162Y1219425D01*
X8027138Y1203244D01*
X8004256Y1180362D01*
X7988075Y1152338D01*
X7979700Y1121080D01*
Y1088720D01*
X7988075Y1057462D01*
X7992800Y1049279D01*
X7910229Y965947D01*
X7566100D01*
Y982002D01*
X7445300D01*
Y920939D01*
X7390647Y825464D01*
X7366100Y831993D01*
Y887001D01*
X7318400D01*
Y831601D01*
Y776201D01*
X7337128D01*
X7349868Y754227D01*
X7201758Y495491D01*
X6787323Y489261D01*
X6771060Y507961D01*
X6768700Y514384D01*
Y530725D01*
X6761027Y549249D01*
X6746849Y563427D01*
X6728325Y571100D01*
X6708275D01*
X6689751Y563427D01*
X6685870Y559547D01*
X6655651D01*
X6647470Y567727D01*
X6631300Y585098D01*
X6631300D01*
X6631300Y585098D01*
Y725898D01*
X6500500D01*
Y585098D01*
X6537213D01*
Y584200D01*
X6540171Y569334D01*
X6548591Y556731D01*
X6593572Y511751D01*
X6583210Y486192D01*
X6504494Y485009D01*
X6160789Y607982D01*
X6090210Y644151D01*
X6063108Y668274D01*
X6067059Y699883D01*
X6075227Y708051D01*
X6082900Y726575D01*
Y746625D01*
X6076841Y761253D01*
X6082954Y776674D01*
X6089644Y786653D01*
X6500500D01*
Y755100D01*
X6631300D01*
Y818652D01*
X6718400D01*
Y802099D01*
X6859200D01*
Y913653D01*
X6958400D01*
Y870199D01*
X7028800D01*
Y844799D01*
X6958400D01*
Y802099D01*
X7004375D01*
X7013934Y795712D01*
X7028800Y792755D01*
X7245300D01*
Y776201D01*
X7293000D01*
Y831601D01*
Y887001D01*
X7245300D01*
Y870448D01*
X7099200D01*
Y939800D01*
X7028800D01*
Y965200D01*
X7099200D01*
Y992101D01*
Y1047964D01*
X7157930Y1106693D01*
X7264400D01*
X7279266Y1109651D01*
X7291869Y1118071D01*
X7313367Y1139570D01*
X7321788Y1152173D01*
X7324745Y1167039D01*
Y1191900D01*
X7356298D01*
Y1191900D01*
X7374149Y1199294D01*
X7414731Y1158711D01*
X7427334Y1150291D01*
X7433425Y1149079D01*
X7439051Y1143453D01*
X7457575Y1135780D01*
X7477625D01*
X7496149Y1143453D01*
X7510327Y1157631D01*
X7518000Y1176155D01*
Y1196205D01*
X7510327Y1214729D01*
X7496149Y1228907D01*
X7477625Y1236580D01*
X7457575D01*
X7449911Y1233406D01*
X7398549Y1284769D01*
X7385946Y1293189D01*
X7371080Y1296147D01*
X7356298D01*
Y1322700D01*
X7215499D01*
Y1216317D01*
X7200900Y1207853D01*
X7186301Y1216317D01*
Y1322700D01*
X7125447D01*
Y1472269D01*
X7132465Y1477654D01*
X7159824Y1483724D01*
X7175575Y1471638D01*
X7193917Y1464041D01*
X7200900Y1463121D01*
Y1587500D01*
Y1711879D01*
X7193917Y1710959D01*
X7175575Y1703362D01*
X7159824Y1691276D01*
X7132465Y1697346D01*
X7124625Y1703362D01*
X7111173Y1708934D01*
Y1716074D01*
X7108216Y1730940D01*
X7100531Y1742440D01*
X7101457Y1747018D01*
X7111418Y1767840D01*
X8412480D01*
Y48260D01*
D02*
G37*
G36*
X5326263Y1576389D02*
X5345698Y1551034D01*
X5345691Y1548123D01*
X5345438Y1547586D01*
X5339058Y1538038D01*
X5336708Y1526226D01*
X5336708Y1526225D01*
X5336708Y1525393D01*
Y1471807D01*
X5336708Y1470975D01*
X5336708Y1470974D01*
X5339058Y1459162D01*
X5345438Y1449614D01*
X5345691Y1449077D01*
X5345725Y1435100D01*
X5345691Y1421123D01*
X5345438Y1420586D01*
X5339058Y1411038D01*
X5336708Y1399226D01*
X5336708Y1399225D01*
X5336708Y1398393D01*
Y1344807D01*
X5336708Y1343975D01*
X5336708Y1343974D01*
X5339058Y1332162D01*
X5345438Y1322614D01*
X5345691Y1322077D01*
X5345725Y1308100D01*
X5345691Y1294123D01*
X5345438Y1293586D01*
X5331325Y1272473D01*
X5233600D01*
Y1308300D01*
X5006700D01*
X5005381Y1332175D01*
X5004617Y1335146D01*
X5004569Y1338212D01*
X5002748Y1342417D01*
X5001608Y1346855D01*
X4999766Y1349307D01*
X4998548Y1352122D01*
X4995257Y1355310D01*
X4992504Y1358974D01*
X4989864Y1360535D01*
X4987662Y1362669D01*
X4923269Y1404237D01*
X4919994Y1405533D01*
X4917066Y1407489D01*
X4913015Y1408295D01*
X4909175Y1409815D01*
X4905654Y1409759D01*
X4902200Y1410447D01*
X4836862D01*
X4836025Y1435500D01*
X4854549Y1443173D01*
X4858430Y1447053D01*
X5014600D01*
Y1429001D01*
X5145400D01*
Y1533598D01*
X5145400Y1539801D01*
Y1558998D01*
X5166166Y1576389D01*
X5326263D01*
D02*
G37*
G36*
X2869453Y1345400D02*
X2709253D01*
X2705499Y1346147D01*
X2701744Y1345400D01*
X2657336D01*
X2641973Y1360763D01*
Y1372986D01*
X2648820Y1389515D01*
Y1409565D01*
X2643172Y1423200D01*
X2650369Y1440364D01*
X2656557Y1448600D01*
X2869453D01*
Y1345400D01*
D02*
G37*
G36*
X3081155Y1597260D02*
X3062631Y1589587D01*
X3048453Y1575409D01*
X3040780Y1556885D01*
Y1536835D01*
X3048453Y1518311D01*
X3052333Y1514430D01*
Y1477937D01*
X3052604Y1476577D01*
X3052430Y1475201D01*
X3053261Y1463434D01*
X3053627Y1462096D01*
X3053550Y1460712D01*
X3055613Y1454828D01*
X3057258Y1448814D01*
X3061851Y1430187D01*
X3052433Y1416846D01*
X3052300Y1416696D01*
X3048453Y1412849D01*
X3041390Y1395797D01*
X2981233Y1335640D01*
X2969395D01*
X2947147Y1353917D01*
Y1605789D01*
X2949438Y1609757D01*
X2971186Y1622313D01*
X3080318D01*
X3081155Y1597260D01*
D02*
G37*
G36*
X1560901Y1220002D02*
Y558003D01*
X1538956Y546847D01*
X1466327D01*
Y587330D01*
X1470207Y591211D01*
X1476772Y607060D01*
X1378188D01*
X1384753Y591211D01*
X1388633Y587330D01*
Y492220D01*
X1346947D01*
Y1205798D01*
X1372000Y1206635D01*
X1379673Y1188111D01*
X1393851Y1173933D01*
X1412375Y1166260D01*
X1432425D01*
X1450949Y1173933D01*
X1456056Y1179039D01*
X1464759Y1180771D01*
X1477361Y1189191D01*
X1519323Y1231153D01*
X1538953D01*
X1560901Y1220002D01*
D02*
G37*
G36*
X6893836Y1675653D02*
X6893738Y1675525D01*
X6886141Y1657184D01*
X6883549Y1637500D01*
Y1537500D01*
X6886141Y1517816D01*
X6893738Y1499475D01*
X6905824Y1483724D01*
X6921575Y1471638D01*
X6939917Y1464041D01*
X6959600Y1461449D01*
X6979283Y1464041D01*
X6997625Y1471638D01*
X7013376Y1483724D01*
X7040735Y1477654D01*
X7047753Y1472269D01*
Y1322700D01*
X7045502D01*
Y1191900D01*
X7098657D01*
X7107862Y1166500D01*
X7044263Y1102901D01*
X6958400D01*
Y991347D01*
X6859200D01*
Y1102901D01*
X6718400D01*
Y1086348D01*
X6618600D01*
Y1124500D01*
X6487800D01*
Y1092947D01*
X5892800D01*
X5877934Y1089989D01*
X5865331Y1081569D01*
X5627007Y843244D01*
X5078200D01*
Y887700D01*
X5003800D01*
Y913100D01*
X5078200D01*
Y958600D01*
X5078200Y971799D01*
X5078200Y997200D01*
Y1126800D01*
X5043665D01*
Y1155500D01*
X5233600D01*
Y1194780D01*
X5346299D01*
X5355763Y1188457D01*
X5367576Y1186107D01*
X5522826D01*
X5534639Y1188457D01*
X5544653Y1195148D01*
X5551344Y1205162D01*
X5553594Y1216472D01*
X5633551Y1224523D01*
X5639181Y1226244D01*
X5644940Y1227460D01*
X5646378Y1228445D01*
X5648046Y1228955D01*
X5652588Y1232699D01*
X5657444Y1236026D01*
X5691985Y1271377D01*
X5696002Y1277543D01*
X5700089Y1283658D01*
X5700134Y1283884D01*
X5700259Y1284076D01*
X5701609Y1291299D01*
X5703046Y1298524D01*
X5703048Y1384227D01*
X5703879Y1469419D01*
X5703404Y1471930D01*
X5703597Y1474477D01*
X5702011Y1479311D01*
X5701067Y1484313D01*
X5699668Y1486451D01*
X5698872Y1488878D01*
X5695555Y1492738D01*
X5692769Y1496998D01*
X5690659Y1498437D01*
X5688994Y1500375D01*
X5652240Y1529177D01*
X5647532Y1531559D01*
X5643145Y1534489D01*
X5640825Y1534951D01*
X5638715Y1536019D01*
X5633454Y1536417D01*
X5628279Y1537447D01*
X5566416D01*
X5544966Y1547585D01*
X5544965Y1547586D01*
X5544711Y1548123D01*
X5544677Y1562100D01*
X5544711Y1576077D01*
X5544965Y1576614D01*
X5551345Y1586162D01*
X5553694Y1597974D01*
X5553695Y1597975D01*
X5553694Y1598807D01*
Y1653225D01*
X5551759Y1662953D01*
X5552100Y1666214D01*
X5566314Y1688353D01*
X5800878D01*
X5815744Y1691311D01*
X5828347Y1699731D01*
X5829669Y1701053D01*
X5903942D01*
X5911647Y1675653D01*
X5910747Y1675052D01*
X5904056Y1665038D01*
X5901706Y1653225D01*
Y1598807D01*
X5901705Y1597975D01*
X5901706Y1597974D01*
X5904055Y1586162D01*
X5910435Y1576614D01*
X5910689Y1576077D01*
X5910723Y1562100D01*
X5910689Y1548123D01*
X5910435Y1547586D01*
X5904055Y1538038D01*
X5901706Y1526226D01*
X5901705Y1526225D01*
X5901706Y1525393D01*
Y1471807D01*
X5901705Y1470975D01*
X5901706Y1470974D01*
X5904055Y1459162D01*
X5910435Y1449614D01*
X5910689Y1449077D01*
X5910723Y1435100D01*
X5910689Y1421123D01*
X5910435Y1420586D01*
X5904055Y1411038D01*
X5901706Y1399226D01*
X5901705Y1399225D01*
X5901706Y1398393D01*
Y1344807D01*
X5901705Y1343975D01*
X5901706Y1343974D01*
X5904055Y1332162D01*
X5910435Y1322614D01*
X5910689Y1322077D01*
X5910723Y1308100D01*
X5910689Y1294123D01*
X5910435Y1293586D01*
X5904055Y1284038D01*
X5901706Y1272226D01*
X5901705Y1272225D01*
X5901706Y1271393D01*
Y1216975D01*
X5904056Y1205162D01*
X5910747Y1195148D01*
X5920761Y1188457D01*
X5932574Y1186107D01*
X6087824D01*
X6099637Y1188457D01*
X6109651Y1195148D01*
X6116342Y1205162D01*
X6118692Y1216975D01*
Y1271393D01*
X6118692Y1272225D01*
X6118692Y1272226D01*
X6116342Y1284038D01*
X6109962Y1293586D01*
X6109709Y1294123D01*
X6109675Y1308100D01*
X6109680Y1310485D01*
X6129838Y1332326D01*
X6131241Y1333012D01*
X6221300D01*
Y1296500D01*
Y1244600D01*
X6299200D01*
Y1231900D01*
X6311900D01*
Y1156500D01*
X6377100D01*
Y1190513D01*
X6403930D01*
X6407811Y1186633D01*
X6423660Y1180068D01*
Y1229360D01*
X6449060D01*
Y1180068D01*
X6462400Y1185594D01*
X6474449Y1181203D01*
X6487800Y1173603D01*
Y1153702D01*
X6618600D01*
Y1294502D01*
X6564746D01*
Y1315080D01*
X6561789Y1329946D01*
X6553368Y1342549D01*
X6552427Y1343490D01*
X6598718Y1389780D01*
X6603865D01*
X6622389Y1397453D01*
X6636567Y1411631D01*
X6644240Y1430155D01*
Y1450205D01*
X6636567Y1468729D01*
X6622389Y1482907D01*
X6603865Y1490580D01*
X6583815D01*
X6565291Y1482907D01*
X6551113Y1468729D01*
X6543440Y1450205D01*
Y1444377D01*
X6497490Y1398427D01*
X6496549Y1399368D01*
X6483946Y1407789D01*
X6469080Y1410746D01*
X6377100D01*
Y1447300D01*
X6221300D01*
Y1410705D01*
X6131586D01*
X6109963Y1420585D01*
X6109962Y1420586D01*
X6109709Y1421123D01*
X6109675Y1435100D01*
X6109709Y1449077D01*
X6109962Y1449614D01*
X6116342Y1459162D01*
X6118692Y1470974D01*
X6118692Y1470975D01*
X6118692Y1471807D01*
Y1525393D01*
X6118692Y1526225D01*
X6118692Y1526226D01*
X6116342Y1538038D01*
X6109962Y1547586D01*
X6109709Y1548123D01*
X6109675Y1562100D01*
X6109709Y1576077D01*
X6109962Y1576614D01*
X6116342Y1586162D01*
X6118692Y1597974D01*
X6118692Y1597975D01*
X6118692Y1598807D01*
Y1653225D01*
X6116342Y1665038D01*
X6109651Y1675052D01*
X6108751Y1675653D01*
X6116456Y1701053D01*
X6881311D01*
X6893836Y1675653D01*
D02*
G37*
G36*
X6487800Y983700D02*
X6605998D01*
X6622355Y965200D01*
X6675120D01*
Y939800D01*
X6625828D01*
X6632393Y923951D01*
X6634598Y921745D01*
X6624077Y896345D01*
X6593200D01*
X6590960Y895900D01*
X6500500D01*
Y864347D01*
X5793905D01*
X5783384Y889747D01*
X5908891Y1015253D01*
X6487800D01*
Y983700D01*
D02*
G37*
G36*
X4440011Y441045D02*
X4706105Y78454D01*
X4708123Y76606D01*
X4709615Y74313D01*
X4713663Y71535D01*
X4717284Y68219D01*
X4719856Y67284D01*
X4722111Y65736D01*
X4726914Y64719D01*
X4731530Y63041D01*
X4734263Y63161D01*
X4736939Y62594D01*
X5480264Y53339D01*
X5480106Y27940D01*
X3339003D01*
X3316900Y35900D01*
Y75453D01*
X3580620D01*
X3582828Y75893D01*
X3585072Y75710D01*
X3590201Y77359D01*
X3595486Y78411D01*
X3597358Y79661D01*
X3599501Y80350D01*
X3693619Y132693D01*
X3695336Y134150D01*
X3697386Y135081D01*
X3701067Y139016D01*
X3705174Y142503D01*
X3706202Y144505D01*
X3707740Y146150D01*
X3789307Y277500D01*
X3829600D01*
Y336552D01*
X3845477Y355375D01*
X3881801D01*
Y407741D01*
X3907201D01*
Y355375D01*
X3943524D01*
Y373296D01*
X3976861D01*
Y364179D01*
X3986698D01*
Y328594D01*
X3982477Y324373D01*
X3975912Y308524D01*
X4074496D01*
X4071284Y316277D01*
X4075202Y328088D01*
X4094854Y345111D01*
X4109720Y342153D01*
X4262412D01*
X4275181Y339613D01*
X4290047Y342571D01*
X4302650Y350991D01*
X4317529Y365870D01*
X4325949Y378473D01*
X4328907Y393339D01*
Y395476D01*
X4342426D01*
Y441621D01*
X4367826Y460962D01*
X4440011Y441045D01*
D02*
G37*
G36*
X5982046Y776674D02*
X5988159Y761253D01*
X5982100Y746625D01*
Y726575D01*
X5989773Y708051D01*
X5989782Y708042D01*
X5983482Y657650D01*
X5983738Y654101D01*
X5983248Y650577D01*
X5984278Y646614D01*
X5984573Y642532D01*
X5986167Y639352D01*
X5987063Y635907D01*
X5989531Y632641D01*
X5991365Y628982D01*
X5994056Y626654D01*
X5996201Y623815D01*
X6042257Y582822D01*
X6046506Y580327D01*
X6050368Y577267D01*
X6127606Y537686D01*
X6130053Y536990D01*
X6132236Y535681D01*
X6484951Y409485D01*
X6491804Y408468D01*
X6498621Y407218D01*
X7225058Y418139D01*
X7229815Y419160D01*
X7234667Y419496D01*
X7237157Y420736D01*
X7239878Y421320D01*
X7243880Y424082D01*
X7248236Y426250D01*
X7250063Y428349D01*
X7252352Y429929D01*
X7254993Y434013D01*
X7258187Y437683D01*
X7420754Y721671D01*
X7445300Y715142D01*
Y681200D01*
X7465330D01*
Y599531D01*
X7405437Y434467D01*
X7331617Y331144D01*
X6091966Y338225D01*
X6058647Y371287D01*
Y462870D01*
X6062527Y466751D01*
X6070200Y485275D01*
Y505325D01*
X6062527Y523849D01*
X6048349Y538027D01*
X6029825Y545700D01*
X6009775D01*
X5991251Y538027D01*
X5977073Y523849D01*
X5969400Y505325D01*
Y485275D01*
X5977073Y466751D01*
X5980953Y462870D01*
Y355108D01*
X5980968Y355032D01*
X5980954Y354957D01*
X5982446Y347606D01*
X5983911Y340242D01*
X5983953Y340178D01*
X5983969Y340102D01*
X5988165Y333875D01*
X5992331Y327639D01*
X5992395Y327596D01*
X5992438Y327532D01*
X6031500Y288774D01*
X6020790Y263618D01*
X5101188Y285205D01*
X5098137Y310683D01*
X5122739Y317275D01*
X5150763Y333456D01*
X5173645Y356338D01*
X5189826Y384362D01*
X5198201Y415620D01*
Y419100D01*
X5075301D01*
X4952401D01*
Y415620D01*
X4960776Y384362D01*
X4976957Y356338D01*
X4999839Y333456D01*
X5027863Y317275D01*
X5048080Y311859D01*
X5044443Y286537D01*
X4813956Y291947D01*
X4626203Y639888D01*
X4623190Y643531D01*
X4620753Y647580D01*
X4618404Y649315D01*
X4616541Y651567D01*
X4612364Y653778D01*
X4608563Y656587D01*
X4605728Y657292D01*
X4603146Y658659D01*
X4598441Y659104D01*
X4593854Y660244D01*
X4522484Y663623D01*
X4509299Y689610D01*
X4512240Y704398D01*
X4521396Y715554D01*
X5694700D01*
X5709566Y718511D01*
X5722169Y726932D01*
X5781891Y786653D01*
X5975356D01*
X5982046Y776674D01*
D02*
G37*
G36*
X3518798Y340350D02*
Y277500D01*
X3545093D01*
Y243250D01*
X3541213Y239369D01*
X3533540Y220845D01*
Y200795D01*
X3541213Y182271D01*
X3544937Y178547D01*
X3534416Y153147D01*
X3316900D01*
Y192700D01*
X3316900Y192700D01*
X3313449Y218100D01*
X3316802Y230611D01*
X3451796Y284249D01*
X3454462Y285975D01*
X3457452Y287048D01*
X3460764Y290055D01*
X3464520Y292487D01*
X3466323Y295102D01*
X3468674Y297237D01*
X3470583Y301282D01*
X3473122Y304966D01*
X3473787Y308072D01*
X3475142Y310944D01*
X3485912Y354096D01*
X3493398Y357237D01*
X3518798Y340350D01*
D02*
G37*
%LPC*%
G36*
X1194900Y1688300D02*
X964100D01*
Y1651747D01*
X749300D01*
X734434Y1648789D01*
X721831Y1640369D01*
X353531Y1272069D01*
X345111Y1259466D01*
X342153Y1244600D01*
Y1232499D01*
X258100D01*
Y986699D01*
X503900D01*
Y1232499D01*
X457023D01*
X447303Y1255965D01*
X765391Y1574053D01*
X964100D01*
Y1537500D01*
X1194900D01*
Y1688300D01*
D02*
G37*
G36*
X2273300Y1552972D02*
Y1516380D01*
X2309892D01*
X2303327Y1532229D01*
X2289149Y1546407D01*
X2273300Y1552972D01*
D02*
G37*
G36*
X2309892Y1490980D02*
X2273300D01*
Y1454388D01*
X2289149Y1460953D01*
X2303327Y1475131D01*
X2309892Y1490980D01*
D02*
G37*
G36*
X2247900D02*
X2211308D01*
X2217873Y1475131D01*
X2232051Y1460953D01*
X2247900Y1454388D01*
Y1490980D01*
D02*
G37*
G36*
X1440045Y1434700D02*
X1419995D01*
X1401471Y1427027D01*
X1387293Y1412849D01*
X1379620Y1394325D01*
Y1374275D01*
X1387293Y1355751D01*
X1401471Y1341573D01*
X1419995Y1333900D01*
X1440045D01*
X1458569Y1341573D01*
X1472747Y1355751D01*
X1480420Y1374275D01*
Y1394325D01*
X1472747Y1412849D01*
X1458569Y1427027D01*
X1440045Y1434700D01*
D02*
G37*
G36*
X1194900Y1408300D02*
X964100D01*
Y1257501D01*
X1040653D01*
Y1173001D01*
X966600D01*
Y857201D01*
X1192400D01*
Y1173001D01*
X1118347D01*
Y1257501D01*
X1194900D01*
Y1408300D01*
D02*
G37*
G36*
X741545Y733660D02*
X721495D01*
X702971Y725987D01*
X688793Y711809D01*
X681120Y693285D01*
Y673235D01*
X688793Y654711D01*
X702971Y640533D01*
X721495Y632860D01*
X741545D01*
X760069Y640533D01*
X774247Y654711D01*
X781920Y673235D01*
Y693285D01*
X774247Y711809D01*
X760069Y725987D01*
X741545Y733660D01*
D02*
G37*
G36*
X1706880Y110252D02*
Y73660D01*
X1743472D01*
X1736907Y89509D01*
X1722729Y103687D01*
X1706880Y110252D01*
D02*
G37*
G36*
X1681480D02*
X1665631Y103687D01*
X1651453Y89509D01*
X1644888Y73660D01*
X1681480D01*
Y110252D01*
D02*
G37*
G36*
X4819598Y1235798D02*
X4751898D01*
Y1155598D01*
X4819598D01*
Y1235798D01*
D02*
G37*
G36*
X7226300Y1711879D02*
Y1600200D01*
X7289651D01*
Y1637500D01*
X7287059Y1657184D01*
X7279462Y1675525D01*
X7267376Y1691276D01*
X7251625Y1703362D01*
X7233283Y1710959D01*
X7226300Y1711879D01*
D02*
G37*
G36*
X7289651Y1574800D02*
X7226300D01*
Y1463121D01*
X7233283Y1464041D01*
X7251625Y1471638D01*
X7267376Y1483724D01*
X7279462Y1499475D01*
X7287059Y1517816D01*
X7289651Y1537500D01*
Y1574800D01*
D02*
G37*
G36*
X7829312Y650240D02*
X7792720D01*
Y613648D01*
X7808569Y620213D01*
X7822747Y634391D01*
X7829312Y650240D01*
D02*
G37*
G36*
X7767320D02*
X7730728D01*
X7737293Y634391D01*
X7751471Y620213D01*
X7767320Y613648D01*
Y650240D01*
D02*
G37*
G36*
X7790180Y155972D02*
Y119380D01*
X7826772D01*
X7820207Y135229D01*
X7806029Y149407D01*
X7790180Y155972D01*
D02*
G37*
G36*
X7764780D02*
X7748931Y149407D01*
X7734753Y135229D01*
X7728188Y119380D01*
X7764780D01*
Y155972D01*
D02*
G37*
G36*
X7826772Y93980D02*
X7790180D01*
Y57388D01*
X7806029Y63953D01*
X7820207Y78131D01*
X7826772Y93980D01*
D02*
G37*
G36*
X7764780D02*
X7728188D01*
X7734753Y78131D01*
X7748931Y63953D01*
X7764780Y57388D01*
Y93980D01*
D02*
G37*
G36*
X1475740Y1095772D02*
Y1059180D01*
X1512332D01*
X1505767Y1075029D01*
X1491589Y1089207D01*
X1475740Y1095772D01*
D02*
G37*
G36*
X1450340D02*
X1434491Y1089207D01*
X1420313Y1075029D01*
X1413748Y1059180D01*
X1450340D01*
Y1095772D01*
D02*
G37*
G36*
X1512332Y1033780D02*
X1475740D01*
Y997188D01*
X1491589Y1003753D01*
X1505767Y1017931D01*
X1512332Y1033780D01*
D02*
G37*
G36*
X1450340D02*
X1413748D01*
X1420313Y1017931D01*
X1434491Y1003753D01*
X1450340Y997188D01*
Y1033780D01*
D02*
G37*
G36*
X1447665Y850500D02*
X1427615D01*
X1409091Y842827D01*
X1394913Y828649D01*
X1387240Y810125D01*
Y790075D01*
X1394913Y771551D01*
X1409091Y757373D01*
X1427615Y749700D01*
X1447665D01*
X1466189Y757373D01*
X1480367Y771551D01*
X1488040Y790075D01*
Y810125D01*
X1480367Y828649D01*
X1466189Y842827D01*
X1447665Y850500D01*
D02*
G37*
G36*
X1440180Y669052D02*
Y632460D01*
X1476772D01*
X1470207Y648309D01*
X1456029Y662487D01*
X1440180Y669052D01*
D02*
G37*
G36*
X1414780D02*
X1398931Y662487D01*
X1384753Y648309D01*
X1378188Y632460D01*
X1414780D01*
Y669052D01*
D02*
G37*
G36*
X6286500Y1219200D02*
X6221300D01*
Y1156500D01*
X6286500D01*
Y1219200D01*
D02*
G37*
G36*
X5557385Y1101960D02*
X5537335D01*
X5518811Y1094287D01*
X5504633Y1080109D01*
X5496960Y1061585D01*
Y1041535D01*
X5504633Y1023011D01*
X5518811Y1008833D01*
X5537335Y1001160D01*
X5557385D01*
X5575909Y1008833D01*
X5590087Y1023011D01*
X5597760Y1041535D01*
Y1061585D01*
X5590087Y1080109D01*
X5575909Y1094287D01*
X5557385Y1101960D01*
D02*
G37*
G36*
X5572625Y969880D02*
X5552575D01*
X5534051Y962207D01*
X5519873Y948029D01*
X5512200Y929505D01*
Y909455D01*
X5519873Y890931D01*
X5534051Y876753D01*
X5552575Y869080D01*
X5572625D01*
X5591149Y876753D01*
X5605327Y890931D01*
X5613000Y909455D01*
Y929505D01*
X5605327Y948029D01*
X5591149Y962207D01*
X5572625Y969880D01*
D02*
G37*
G36*
X4074496Y283124D02*
X4037904D01*
Y246532D01*
X4053753Y253097D01*
X4067931Y267274D01*
X4074496Y283124D01*
D02*
G37*
G36*
X4012504D02*
X3975912D01*
X3982477Y267274D01*
X3996655Y253097D01*
X4012504Y246532D01*
Y283124D01*
D02*
G37*
G36*
X5091481Y554700D02*
X5088001D01*
Y444500D01*
X5198201D01*
Y447980D01*
X5189826Y479238D01*
X5173645Y507262D01*
X5150763Y530144D01*
X5122739Y546325D01*
X5091481Y554700D01*
D02*
G37*
G36*
X5062601D02*
X5059121D01*
X5027863Y546325D01*
X4999839Y530144D01*
X4976957Y507262D01*
X4960776Y479238D01*
X4952401Y447980D01*
Y444500D01*
X5062601D01*
Y554700D01*
D02*
G37*
G36*
X5698200D02*
X5452400D01*
Y308900D01*
X5698200D01*
Y554700D01*
D02*
G37*
%LPD*%
D10*
X5003800Y900400D02*
D03*
Y1055400D02*
D03*
D11*
X4290060Y444500D02*
D03*
X4216745D02*
D03*
X4076700Y1689100D02*
D03*
X4003385D02*
D03*
D12*
X7305700Y831601D02*
D03*
X7505700Y926602D02*
D03*
Y736600D02*
D03*
D13*
X5445201Y1625600D02*
D03*
Y1498600D02*
D03*
Y1371600D02*
D03*
Y1244600D02*
D03*
X6010199Y1625600D02*
D03*
Y1498600D02*
D03*
Y1371600D02*
D03*
Y1244600D02*
D03*
D14*
X5009200Y1231900D02*
D03*
X5156200D02*
D03*
D15*
X5080000Y1484401D02*
D03*
Y1614399D02*
D03*
D16*
X6299200Y1371900D02*
D03*
Y1231900D02*
D03*
D17*
X6788800Y1047501D02*
D03*
Y952500D02*
D03*
Y857499D02*
D03*
X7028800D02*
D03*
Y952500D02*
D03*
Y1047501D02*
D03*
D18*
X6553200Y1054100D02*
D03*
Y1224102D02*
D03*
X6565900Y825500D02*
D03*
Y655498D02*
D03*
D19*
X2742799Y1270000D02*
D03*
Y1524000D02*
D03*
Y508000D02*
D03*
Y254000D02*
D03*
X1701800D02*
D03*
Y508000D02*
D03*
Y1270000D02*
D03*
Y1524000D02*
D03*
D20*
X3548598Y1454399D02*
D03*
Y1404402D02*
D03*
Y1354399D02*
D03*
Y1304402D02*
D03*
Y1254399D02*
D03*
Y1204402D02*
D03*
Y1154400D02*
D03*
Y1104402D02*
D03*
Y1054400D02*
D03*
Y1004402D02*
D03*
Y954400D02*
D03*
Y904403D02*
D03*
Y854400D02*
D03*
Y804398D02*
D03*
Y754400D02*
D03*
Y704398D02*
D03*
X4443598D02*
D03*
Y754400D02*
D03*
Y804398D02*
D03*
Y854400D02*
D03*
Y904403D02*
D03*
Y954400D02*
D03*
Y1004402D02*
D03*
Y1054400D02*
D03*
Y1104402D02*
D03*
Y1154400D02*
D03*
Y1204402D02*
D03*
Y1254399D02*
D03*
Y1304402D02*
D03*
Y1354399D02*
D03*
Y1404402D02*
D03*
Y1454399D02*
D03*
D21*
X3621100Y631901D02*
D03*
X3671098D02*
D03*
X3721100D02*
D03*
X3771102D02*
D03*
X3821100D02*
D03*
X3871102D02*
D03*
X3921100D02*
D03*
X3971102D02*
D03*
X4021099D02*
D03*
X4071102D02*
D03*
X4121099D02*
D03*
X4171102D02*
D03*
X4221099D02*
D03*
X4271101D02*
D03*
X4321099D02*
D03*
X4371101D02*
D03*
Y1526901D02*
D03*
X4321099D02*
D03*
X4271101D02*
D03*
X4221099D02*
D03*
X4171102D02*
D03*
X4121099D02*
D03*
X4071102D02*
D03*
X4021099D02*
D03*
X3971102D02*
D03*
X3921100D02*
D03*
X3871102D02*
D03*
X3821100D02*
D03*
X3771102D02*
D03*
X3721100D02*
D03*
X3671098D02*
D03*
X3621100D02*
D03*
D22*
X3996101Y1079398D02*
D03*
D23*
X3373801Y1103356D02*
D03*
Y1030041D02*
D03*
X4605701Y965098D02*
D03*
Y891784D02*
D03*
X3894501Y481056D02*
D03*
Y407741D02*
D03*
X4025885Y489859D02*
D03*
Y416545D02*
D03*
D24*
X3759200Y342900D02*
D03*
X3589198D02*
D03*
X7115901Y1257300D02*
D03*
X7285899D02*
D03*
D25*
X4599198Y1142898D02*
D03*
X4739198D02*
D03*
D26*
X3136900Y1041400D02*
D03*
Y1201776D02*
D03*
X1422400Y406400D02*
D03*
Y246024D02*
D03*
D27*
X1079500Y1332901D02*
D03*
Y1612900D02*
D03*
D28*
Y585099D02*
D03*
Y1015101D02*
D03*
D29*
X969924Y215900D02*
D03*
X1130300D02*
D03*
D30*
X7285899Y1167039D02*
Y1257300D01*
X7264400Y1145540D02*
X7285899Y1167039D01*
X7141839Y1145540D02*
X7264400D01*
X7043800Y1047501D02*
X7141839Y1145540D01*
X7028800Y1047501D02*
X7043800D01*
X6497490Y1343490D02*
X6593840Y1439840D01*
Y1440180D01*
X6497490Y1343490D02*
X6525900Y1315080D01*
Y1251402D02*
X6553200Y1224102D01*
X6525900Y1251402D02*
Y1315080D01*
X6469080Y1371900D02*
X6497490Y1343490D01*
X6299200Y1371900D02*
X6469080D01*
X3373801Y1030041D02*
Y1030476D01*
X3362877Y1041400D02*
X3373801Y1030476D01*
X3136900Y1041400D02*
X3362877D01*
X3374730Y1117622D02*
X3376000D01*
Y1206840D01*
X3378200Y1209040D01*
X3374730Y1104285D02*
Y1117622D01*
X3373801Y1103356D02*
X3374730Y1104285D01*
X3340282Y606878D02*
X3395980Y551180D01*
Y487680D02*
Y551180D01*
X3253922Y606878D02*
X3340282D01*
X3238500Y622300D02*
X3253922Y606878D01*
X4605752Y965149D02*
X4749749D01*
X4605701Y965098D02*
X4605752Y965149D01*
X4749749D02*
X4749800Y965200D01*
X4987260Y916940D02*
X5003800Y900400D01*
X4819343Y916940D02*
X4987260D01*
X4605701Y891784D02*
X4794187D01*
X4819343Y916940D01*
X4739198Y1130399D02*
X4781498Y1088098D01*
X4793998D01*
X4826000Y1056096D01*
Y917173D02*
Y1056096D01*
X4739198Y1130399D02*
Y1142898D01*
X4071102Y1623060D02*
Y1678176D01*
X4564380Y1623060D02*
X4638040Y1549400D01*
X4071102Y1623060D02*
X4564380D01*
X4071102Y1526901D02*
Y1623060D01*
X6639560Y520700D02*
X6718300D01*
X6576060Y584200D02*
X6639560Y520700D01*
X6576060Y584200D02*
Y655320D01*
X6573520Y657860D02*
X6576060Y655320D01*
X6570980Y657860D02*
X6573520D01*
X6565900Y652780D02*
X6570980Y657860D01*
X6565900Y652780D02*
Y655498D01*
X7442200Y1186180D02*
X7467600D01*
X7371080Y1257300D02*
X7442200Y1186180D01*
X7285899Y1257300D02*
X7371080D01*
X4272641Y381000D02*
X4275181Y378460D01*
X4109720Y381000D02*
X4272641D01*
X4074175Y416545D02*
X4109720Y381000D01*
X4025885Y416545D02*
X4074175D01*
X4021483Y412143D02*
X4025544Y416204D01*
X3898903Y412143D02*
X4021483D01*
X3894501Y407741D02*
X3898903Y412143D01*
X4275181Y378460D02*
X4290060Y393339D01*
Y444500D01*
X4025544Y296164D02*
Y416204D01*
X3825240Y541020D02*
X3829947Y536313D01*
Y510913D02*
Y536313D01*
Y510913D02*
X3855720Y485140D01*
X3890416D01*
X3894501Y481056D01*
X4021483Y485457D02*
X4025885Y489859D01*
X3898903Y485457D02*
X4021483D01*
X3583940Y210820D02*
Y337642D01*
X3589198Y342900D01*
X1693824Y246024D02*
X1701800Y254000D01*
X1422400Y246024D02*
X1693824D01*
X2062480Y1587500D02*
X2181860D01*
X1978660Y1503680D02*
X2062480Y1587500D01*
X1978660Y1348740D02*
Y1503680D01*
X1899920Y1270000D02*
X1978660Y1348740D01*
X1701800Y1270000D02*
X1899920D01*
X2659149Y1288650D02*
X2724148D01*
X2603127Y1344672D02*
X2659149Y1288650D01*
X2603127Y1344672D02*
Y1394833D01*
X2598420Y1399540D02*
X2603127Y1394833D01*
X2724148Y1288650D02*
X2742799Y1270000D01*
X2705499Y1307300D02*
X2724148Y1288650D01*
X3276600Y837446D02*
Y907141D01*
Y837446D02*
X3359646Y754400D01*
X2363849Y922020D02*
X3261721D01*
X3276600Y907141D01*
X3359646Y754400D02*
X3548598D01*
X3352800Y850900D02*
X3393440D01*
X3441700Y899160D02*
Y1016000D01*
X3393440Y850900D02*
X3441700Y899160D01*
X2293620Y851791D02*
X2363849Y922020D01*
X2293620Y782320D02*
Y851791D01*
X7028800Y831601D02*
X7305700D01*
X7028800D02*
Y857499D01*
X6675120Y952500D02*
X6788800D01*
X7028800D01*
Y857499D02*
Y952500D01*
X1422400Y1216660D02*
X1449893D01*
X1503233Y1270000D01*
X1701800D01*
X381000Y609600D02*
X442704Y829265D01*
X820420Y1211580D02*
X891540D01*
X449197Y840357D02*
X820420Y1211580D01*
X442704Y829265D02*
X449197Y840357D01*
X381000Y609600D02*
X396240Y594360D01*
Y231140D02*
Y594360D01*
Y231140D02*
X411480Y215900D01*
X969924D01*
X1427480Y515620D02*
X1435100Y508000D01*
X1701800D01*
X1427480Y515620D02*
Y619760D01*
X3474720Y1600200D02*
X3563620Y1689100D01*
X4003385D01*
X3217084Y1503680D02*
X3416362Y1304402D01*
X3548598D01*
X3200400Y1503680D02*
X3217084D01*
X3084830Y1384300D02*
X3091180D01*
X2985770Y1285240D02*
X3084830Y1384300D01*
X2979420Y1285240D02*
X2985770D01*
X2908300Y1181100D02*
Y1616197D01*
Y1181100D02*
X2938780Y1150620D01*
X2921000Y1638194D02*
X2960777Y1661160D01*
X2908300Y1616197D02*
X2921000Y1638194D01*
X3091180Y1384300D02*
Y1388862D01*
Y1477937D02*
X3092011Y1466170D01*
X3357897Y1266378D01*
X3548598Y1254399D01*
X2733040Y632460D02*
X2735580D01*
X2814320Y711200D01*
Y830580D01*
X2960777Y1661160D02*
X3287121D01*
X3302000Y1646281D01*
Y1521460D02*
Y1646281D01*
Y1521460D02*
X3469061Y1354399D01*
X3548598D01*
X2131060Y855980D02*
Y868680D01*
X2225040Y962660D01*
X2476861D01*
X2491740Y977539D01*
Y1513840D01*
X2674620Y1696720D01*
X3332841D01*
X3347720Y1681841D01*
Y1536700D02*
Y1681841D01*
Y1536700D02*
X3480018Y1404402D01*
X3548598D01*
X3091180Y1477937D02*
Y1546860D01*
X2395220Y1013460D02*
Y1508760D01*
X2496820Y243840D02*
X2613660Y360680D01*
X2839720D01*
X2900680Y421640D01*
Y833120D01*
X2948940Y881380D01*
X3226161D01*
X3241040Y866501D01*
Y792480D02*
Y866501D01*
Y792480D02*
X3390900Y642620D01*
X3434080D01*
X3500120Y576580D01*
X2311400Y246380D02*
X2415540Y142240D01*
X2934061D01*
X2948940Y157119D01*
Y802640D01*
X2979420Y833120D01*
X3154680D01*
X4025885Y489859D02*
Y551165D01*
X4053840Y579120D01*
Y585039D01*
X4071102Y602301D01*
Y631901D01*
X4205822Y455424D02*
X4216745Y444500D01*
X4164836Y455424D02*
X4205822D01*
X4140200Y480060D02*
X4164836Y455424D01*
X4104279Y480060D02*
X4140200D01*
X4089400Y494939D02*
X4104279Y480060D01*
X4089400Y494939D02*
Y553720D01*
X4120899Y585219D01*
Y631701D01*
X4121099Y631901D01*
X4145280Y540057D02*
X4170902Y565678D01*
Y631701D01*
X4145280Y533400D02*
Y540057D01*
X4170902Y631701D02*
X4171102Y631901D01*
X4218940Y538480D02*
X4224020Y533400D01*
X4218940Y538480D02*
X4220899Y540439D01*
Y631701D01*
X4221099Y631901D01*
X4290060Y444500D02*
X4290781Y443779D01*
X2395220Y1508760D02*
X2641600Y1755140D01*
X3373481D01*
X3388360Y1740261D01*
Y1585037D02*
Y1740261D01*
Y1585037D02*
X3518998Y1454399D01*
X3548598D01*
X1427480Y411480D02*
Y515620D01*
X1422400Y406400D02*
X1427480Y411480D01*
X2948940Y1033780D02*
X3129280D01*
X3136900Y1041400D01*
X4025204Y295824D02*
X4025544Y296164D01*
X3896360Y406400D02*
X3897701Y407741D01*
X3895019D02*
X3896360Y406400D01*
X3894501Y407741D02*
X3895019D01*
X6301740Y1229360D02*
X6436360D01*
X6299200Y1231900D02*
X6301740Y1229360D01*
X4443598Y804398D02*
X5643098D01*
X5892800Y1054100D01*
X6553200D01*
X4443598Y754400D02*
X5694700D01*
X5765800Y825500D01*
X6565900D01*
Y830199D02*
X6593200Y857499D01*
X6788800D01*
X6553200Y1054100D02*
X6559799Y1047501D01*
X6788800D01*
X3480100Y1054400D02*
X3548598D01*
X3441700Y1016000D02*
X3480100Y1054400D01*
X4559300Y1727200D02*
X5800878D01*
X5813578Y1739900D02*
X7048500D01*
X5800878Y1727200D02*
X5813578Y1739900D01*
X7048500D02*
X7072326Y1716074D01*
Y1601774D02*
Y1716074D01*
Y1601774D02*
X7086600Y1587500D01*
Y1284600D02*
Y1587500D01*
Y1284600D02*
X7115901Y1257300D01*
X7522775Y66759D02*
X7632700Y116119D01*
X4737423Y101438D02*
X7522775Y66759D01*
X7632700Y116119D02*
Y381000D01*
X4321099Y631901D02*
X4324989Y538435D01*
X4355881Y504556D01*
X4463348Y474904D01*
X4737423Y101438D01*
X4371101Y631901D02*
X4592016Y621441D01*
X4790485Y253641D01*
X7480300Y190500D01*
X8017800Y689701D02*
X8102600Y604901D01*
X7927056Y761793D02*
X8017800Y689701D01*
X7528000Y753900D02*
X7927056Y761793D01*
X7505700Y736600D02*
X7528000Y753900D01*
X7926424Y927100D02*
X8102600Y1104900D01*
X7528000Y927100D02*
X7926424D01*
X7505700Y926602D02*
X7528000Y927100D01*
X7483400Y909302D02*
X7505700Y926602D01*
X7224474Y456982D02*
X7483400Y909302D01*
X6498038Y446061D02*
X7224474Y456982D01*
X6145322Y572257D02*
X6498038Y446061D01*
X6068084Y611839D02*
X6145322Y572257D01*
X6022029Y652832D02*
X6068084Y611839D01*
X6022029Y652832D02*
X6032500Y736600D01*
X7504177Y719300D02*
X7505700Y736600D01*
X7504177Y592702D02*
Y719300D01*
X7440139Y416215D02*
X7504177Y592702D01*
X7351523Y292183D02*
X7440139Y416215D01*
X6075873Y299470D02*
X7351523Y292183D01*
X6019800Y355108D02*
X6075873Y299470D01*
X6019800Y355108D02*
Y495300D01*
X4660900Y1371600D02*
X4902200D01*
X4966593Y1330032D01*
X4969900Y1270200D01*
X5009200Y1231900D01*
X6259400Y1371858D02*
X6299200Y1371900D01*
X6079999Y1371858D02*
X6259400D01*
X6010199Y1371600D02*
X6079999Y1371858D01*
X5003800Y1055400D02*
X5004819Y1088701D01*
Y1193600D01*
X5009200Y1231900D01*
X5156200D02*
X5195500Y1233627D01*
X5375401D01*
X5445201Y1244600D01*
X5629659Y1263174D02*
X5664199Y1298525D01*
X5445201Y1244600D02*
X5629659Y1263174D01*
X5664199Y1298525D02*
X5664201Y1384424D01*
X5665034Y1469798D01*
X5628279Y1498600D02*
X5665034Y1469798D01*
X5445201Y1498600D02*
X5628279D01*
X4826000Y1485900D02*
X5052700D01*
X5080000Y1484401D01*
Y1614399D02*
X5107300Y1615236D01*
X5375401D01*
X5445201Y1625600D01*
X3674739Y166643D02*
X3766036Y313662D01*
X3580620Y114300D02*
X3674739Y166643D01*
X3759200Y342900D02*
X3766036Y313662D01*
X3771102Y354802D02*
Y631901D01*
X3759200Y342900D02*
X3771102Y354802D01*
X3720464Y354923D02*
X3725174Y370099D01*
X3716701Y342798D02*
X3720464Y354923D01*
X3716701Y342798D02*
X3718881Y333473D01*
X3722155Y319471D01*
X3457196Y399465D02*
X3721100Y546244D01*
Y631901D01*
X3437452Y320350D02*
X3457196Y399465D01*
X3238500Y241300D02*
X3437452Y320350D01*
X3238500Y368300D02*
X3331685Y381031D01*
X3543463Y508101D01*
X3238500Y114300D02*
X3580620D01*
X4556898Y1088098D02*
X4599198Y1142898D01*
X4520997Y1054143D02*
X4556898Y1088098D01*
X4443598Y1054400D02*
X4520997Y1054143D01*
X3278270Y1193800D02*
X3362877Y1117622D01*
X3174807Y1193800D02*
X3278270D01*
X3136900Y1201776D02*
X3174807Y1193800D01*
X3384724Y1104402D02*
X3548598D01*
X3373801Y1103356D02*
X3384724Y1104402D01*
X4071102Y1678176D02*
X4076700Y1689100D01*
X4594777Y972493D02*
X4605701Y965098D01*
X4551905Y972493D02*
X4594777D01*
X4520506Y1003463D02*
X4551905Y972493D01*
X4443598Y1004402D02*
X4520506Y1003463D01*
X3543463Y508101D02*
X3670504Y586966D01*
X3671098Y631901D01*
X3894501Y481056D02*
X3905424Y491979D01*
Y539924D01*
X3921100Y555600D01*
Y631901D01*
X1308100Y279400D02*
Y1509121D01*
X1244600Y215900D02*
X1308100Y279400D01*
X1322979Y1524000D02*
X1701800D01*
X1308100Y1509121D02*
X1322979Y1524000D01*
X1130300Y215900D02*
X1244600D01*
X1130300D02*
Y330200D01*
X1079500Y381000D02*
X1130300Y330200D01*
X1079500Y381000D02*
Y585099D01*
Y1015101D02*
Y1332901D01*
X749300Y1612900D02*
X1079500D01*
X381000Y1244600D02*
X749300Y1612900D01*
X381000Y1109599D02*
Y1244600D01*
D31*
X-304800Y1790700D02*
X-254000Y1638300D01*
X-355600D02*
X-304800Y1790700D01*
X-355600Y152400D02*
X-304800Y0D01*
X-254000Y152400D01*
X-304800Y1200051D02*
Y1790700D01*
Y0D02*
Y509369D01*
X-330200Y1790700D02*
X88900D01*
X-330200Y0D02*
X88900D01*
X0Y2387600D02*
X152400Y2438400D01*
X0Y2387600D02*
X152400Y2336800D01*
X8356600D02*
X8509000Y2387600D01*
X8356600Y2438400D02*
X8509000Y2387600D01*
X0D02*
X3830431D01*
X4597289D02*
X8509000D01*
X0Y1701800D02*
Y2413000D01*
X8509000Y1701800D02*
Y2413000D01*
D32*
X-213385Y550009D02*
Y600792D01*
Y575400D01*
X-365735D01*
X-340343Y550009D01*
X-365735Y676967D02*
Y778535D01*
X-340343D01*
X-238777Y676967D01*
X-213385D01*
Y829318D02*
X-238777D01*
Y854710D01*
X-213385D01*
Y829318D01*
X-238777Y956277D02*
X-213385Y981669D01*
Y1032452D01*
X-238777Y1057844D01*
X-340343D01*
X-365735Y1032452D01*
Y981669D01*
X-340343Y956277D01*
X-314952D01*
X-289560Y981669D01*
Y1057844D01*
X-213385Y1108628D02*
Y1159411D01*
Y1134020D01*
X-365735D01*
X-340343Y1108628D01*
X3871071Y2423143D02*
X3896463Y2448535D01*
X3947246D01*
X3972638Y2423143D01*
Y2397752D01*
X3947246Y2372360D01*
X3972638Y2346968D01*
Y2321577D01*
X3947246Y2296185D01*
X3896463D01*
X3871071Y2321577D01*
Y2346968D01*
X3896463Y2372360D01*
X3871071Y2397752D01*
Y2423143D01*
X3896463Y2372360D02*
X3947246D01*
X4124989Y2448535D02*
X4023421D01*
Y2372360D01*
X4074205Y2397752D01*
X4099597D01*
X4124989Y2372360D01*
Y2321577D01*
X4099597Y2296185D01*
X4048813D01*
X4023421Y2321577D01*
X4175772Y2296185D02*
Y2321577D01*
X4201164D01*
Y2296185D01*
X4175772D01*
X4302731Y2423143D02*
X4328123Y2448535D01*
X4378906D01*
X4404298Y2423143D01*
Y2321577D01*
X4378906Y2296185D01*
X4328123D01*
X4302731Y2321577D01*
Y2423143D01*
X4455082Y2321577D02*
X4480474Y2296185D01*
X4531257D01*
X4556649Y2321577D01*
Y2423143D01*
X4531257Y2448535D01*
X4480474D01*
X4455082Y2423143D01*
Y2397752D01*
X4480474Y2372360D01*
X4556649D01*
D33*
X5075301Y431800D02*
D03*
X8102600Y1104900D02*
D03*
X381000Y609600D02*
D03*
D34*
X5575300Y431800D02*
D03*
D35*
X7213600Y1587500D02*
D03*
X6959600D02*
D03*
D36*
X7086600D02*
D03*
D37*
X8102600Y604901D02*
D03*
X381000Y1109599D02*
D03*
D38*
X3238500Y114300D02*
D03*
D39*
Y241300D02*
D03*
Y368300D02*
D03*
Y495300D02*
D03*
Y622300D02*
D03*
X3111500Y114300D02*
D03*
Y241300D02*
D03*
Y368300D02*
D03*
Y495300D02*
D03*
Y622300D02*
D03*
D40*
X1430020Y1384300D02*
D03*
X731520Y683260D02*
D03*
X1838960Y378460D02*
D03*
X2260600Y1503680D02*
D03*
X6593840Y1440180D02*
D03*
X3378200Y1209040D02*
D03*
X3395980Y487680D02*
D03*
X4749800Y965200D02*
D03*
X4826000Y916940D02*
D03*
X4638040Y1549400D02*
D03*
X6718300Y520700D02*
D03*
X7467600Y1186180D02*
D03*
X3825240Y541020D02*
D03*
X3583940Y210820D02*
D03*
X2181860Y1587500D02*
D03*
X2598420Y1399540D02*
D03*
X5562600Y919480D02*
D03*
X1437640Y800100D02*
D03*
X5547360Y1051560D02*
D03*
X2293620Y782320D02*
D03*
X1463040Y1046480D02*
D03*
X1694180Y60960D02*
D03*
X497840Y101600D02*
D03*
X1422400Y1216660D02*
D03*
X891540Y1211580D02*
D03*
X3474720Y1600200D02*
D03*
X3200400Y1503680D02*
D03*
X2979420Y1285240D02*
D03*
X3091180Y1384300D02*
D03*
X2733040Y632460D02*
D03*
X2814320Y830580D02*
D03*
X2938780Y1150620D02*
D03*
X2131060Y855980D02*
D03*
X3091180Y1546860D02*
D03*
X2395220Y1013460D02*
D03*
X2496820Y243840D02*
D03*
X3500120Y576580D02*
D03*
X2311400Y246380D02*
D03*
X3154680Y833120D02*
D03*
X4145280Y533400D02*
D03*
X4218940Y538480D02*
D03*
X7780020Y662940D02*
D03*
X7777480Y106680D02*
D03*
X1427480Y619760D02*
D03*
X2948940Y1033780D02*
D03*
X4025204Y295824D02*
D03*
X6436360Y1229360D02*
D03*
X6675120Y952500D02*
D03*
X3352800Y850900D02*
D03*
X4559300Y1727200D02*
D03*
X7632700Y381000D02*
D03*
X7480300Y190500D02*
D03*
X6032500Y736600D02*
D03*
X6019800Y495300D02*
D03*
X4660900Y1371600D02*
D03*
X4826000Y1485900D02*
D03*
X3721100Y1354399D02*
D03*
X3831102D02*
D03*
X3941100D02*
D03*
X4051102D02*
D03*
X4161099D02*
D03*
X4271101D02*
D03*
X3721100Y1244402D02*
D03*
X3831102D02*
D03*
X3941100D02*
D03*
X4051102D02*
D03*
X4161099D02*
D03*
X4271101D02*
D03*
X3721100Y1134400D02*
D03*
X3831102D02*
D03*
X3941100D02*
D03*
X4051102D02*
D03*
X4161099D02*
D03*
X4271101D02*
D03*
X3721100Y1024402D02*
D03*
X3831102D02*
D03*
X3941100D02*
D03*
X4051102D02*
D03*
X4161099D02*
D03*
X4271101D02*
D03*
X3721100Y914400D02*
D03*
X3831102D02*
D03*
X3941100D02*
D03*
X4051102D02*
D03*
X4161099D02*
D03*
X4271101D02*
D03*
X3721100Y804398D02*
D03*
X3831102D02*
D03*
X3941100D02*
D03*
X4051102D02*
D03*
X4161099D02*
D03*
X4271101D02*
D03*
%TF.MD5,0bacb7e48792758c1f7bc7aabebf4a16*%
M02*
