%TF.GenerationSoftware,Altium Limited,Altium Designer,25.4.2 (15)*%
G04 Layer_Physical_Order=2*
G04 Layer_Color=36540*
%FSLAX45Y45*%
%MOMM*%
%TF.SameCoordinates,D0FDF368-1468-4A38-90CB-FD56B44771C5*%
%TF.FilePolarity,Positive*%
%TF.FileFunction,Copper,L2,Inr,Signal*%
%TF.Part,Single*%
G01*
G75*
%TA.AperFunction,ComponentPad*%
%ADD33C,1.95000*%
%ADD34R,1.95000X1.95000*%
%ADD35O,1.00000X2.00000*%
%ADD36O,1.00000X2.00000*%
%ADD37R,1.95000X1.95000*%
%ADD39C,1.06000*%
%TA.AperFunction,ViaPad*%
%ADD40C,0.50000*%
G36*
X8356600Y1701800D02*
X8369300Y1696539D01*
Y63500D01*
X3329028D01*
X3320347Y73705D01*
X3312860Y88900D01*
X3316900Y103978D01*
Y124622D01*
X3311557Y144561D01*
X3301235Y162439D01*
X3287331Y177800D01*
X3301236Y193162D01*
X3311557Y211039D01*
X3316900Y230978D01*
Y251622D01*
X3311557Y271561D01*
X3301235Y289439D01*
X3287331Y304800D01*
X3301236Y320162D01*
X3311557Y338039D01*
X3316900Y357978D01*
Y378622D01*
X3311557Y398561D01*
X3301235Y416439D01*
X3287331Y431800D01*
X3301236Y447162D01*
X3311557Y465039D01*
X3316263Y482600D01*
X3238500D01*
Y508000D01*
X3316263D01*
X3311557Y525561D01*
X3301235Y543439D01*
X3287331Y558800D01*
X3301236Y574162D01*
X3311557Y592039D01*
X3316900Y611978D01*
Y632622D01*
X3311557Y652561D01*
X3301235Y670439D01*
X3286639Y685035D01*
X3268761Y695357D01*
X3248822Y700700D01*
X3228178D01*
X3208239Y695357D01*
X3190361Y685035D01*
X3175000Y671131D01*
X3159638Y685036D01*
X3141761Y695357D01*
X3121822Y700700D01*
X3101178D01*
X3081239Y695357D01*
X3063361Y685035D01*
X3048765Y670439D01*
X3038443Y652561D01*
X3033100Y632622D01*
Y611978D01*
X3038443Y592039D01*
X3048765Y574161D01*
X3062669Y558800D01*
X3048764Y543438D01*
X3038443Y525561D01*
X3033100Y505622D01*
Y484978D01*
X3038443Y465039D01*
X3048765Y447161D01*
X3062669Y431800D01*
X3048764Y416438D01*
X3038443Y398561D01*
X3033100Y378622D01*
Y357978D01*
X3038443Y338039D01*
X3048765Y320161D01*
X3062669Y304800D01*
X3048764Y289438D01*
X3038443Y271561D01*
X3033100Y251622D01*
Y230978D01*
X3038443Y211039D01*
X3048765Y193161D01*
X3062669Y177800D01*
X3048764Y162438D01*
X3038443Y144561D01*
X3033100Y124622D01*
Y103978D01*
X3037140Y88900D01*
X3029653Y73705D01*
X3020972Y63500D01*
X101600D01*
X101600Y152400D01*
Y1701800D01*
X3045236D01*
X3062208Y1676400D01*
X3061100Y1673725D01*
Y1653675D01*
X3068773Y1635151D01*
X3082951Y1620973D01*
X3101475Y1613300D01*
X3121525D01*
X3140049Y1620973D01*
X3154227Y1635151D01*
X3161900Y1653675D01*
Y1673725D01*
X3160792Y1676400D01*
X3177764Y1701800D01*
X4515269D01*
X4516573Y1698651D01*
X4530751Y1684473D01*
X4549275Y1676800D01*
X4569325D01*
X4587849Y1684473D01*
X4602027Y1698651D01*
X4603331Y1701800D01*
X6881883D01*
X6894409Y1676400D01*
X6893738Y1675525D01*
X6886141Y1657184D01*
X6883549Y1637500D01*
Y1537500D01*
X6886141Y1517816D01*
X6893738Y1499475D01*
X6905824Y1483724D01*
X6921575Y1471638D01*
X6939917Y1464041D01*
X6959600Y1461449D01*
X6979283Y1464041D01*
X6997625Y1471638D01*
X7013376Y1483724D01*
X7040735Y1477654D01*
X7048575Y1471638D01*
X7066917Y1464041D01*
X7086600Y1461449D01*
X7106283Y1464041D01*
X7124625Y1471638D01*
X7132465Y1477654D01*
X7159824Y1483724D01*
X7175575Y1471638D01*
X7193917Y1464041D01*
X7200900Y1463121D01*
Y1587500D01*
X7213600D01*
Y1600200D01*
X7289651D01*
Y1637500D01*
X7287059Y1657184D01*
X7279462Y1675525D01*
X7278791Y1676400D01*
X7291317Y1701800D01*
X8356600D01*
D02*
G37*
%LPC*%
G36*
X7289651Y1574800D02*
X7226300D01*
Y1463121D01*
X7233283Y1464041D01*
X7251625Y1471638D01*
X7267376Y1483724D01*
X7279462Y1499475D01*
X7287059Y1517816D01*
X7289651Y1537500D01*
Y1574800D01*
D02*
G37*
G36*
X4836025Y1536300D02*
X4815975D01*
X4797451Y1528627D01*
X4783273Y1514449D01*
X4775600Y1495925D01*
Y1475875D01*
X4783273Y1457351D01*
X4797451Y1443173D01*
X4815975Y1435500D01*
X4836025D01*
X4854549Y1443173D01*
X4868727Y1457351D01*
X4876400Y1475875D01*
Y1495925D01*
X4868727Y1514449D01*
X4854549Y1528627D01*
X4836025Y1536300D01*
D02*
G37*
G36*
X4258401Y1403691D02*
X4242552Y1397126D01*
X4230457Y1385031D01*
X4216100Y1383908D01*
X4201744Y1385031D01*
X4189648Y1397126D01*
X4173799Y1403691D01*
Y1354399D01*
X4148399D01*
Y1403691D01*
X4132550Y1397126D01*
X4120458Y1385034D01*
X4106101Y1383910D01*
X4091743Y1385034D01*
X4079651Y1397126D01*
X4063802Y1403691D01*
Y1354399D01*
X4038402D01*
Y1403691D01*
X4022553Y1397126D01*
X4010457Y1385031D01*
X3996101Y1383908D01*
X3981744Y1385031D01*
X3969649Y1397126D01*
X3953800Y1403691D01*
Y1354399D01*
X3928400D01*
Y1403691D01*
X3912550Y1397126D01*
X3900458Y1385034D01*
X3886101Y1383910D01*
X3871744Y1385034D01*
X3859652Y1397126D01*
X3843802Y1403691D01*
Y1354399D01*
X3818402D01*
Y1403691D01*
X3802553Y1397126D01*
X3790457Y1385031D01*
X3776101Y1383908D01*
X3761745Y1385031D01*
X3749649Y1397126D01*
X3733800Y1403691D01*
Y1354399D01*
X3721100D01*
Y1341699D01*
X3671808D01*
X3678373Y1325850D01*
X3690465Y1313758D01*
X3691590Y1299400D01*
X3690465Y1285043D01*
X3678373Y1272951D01*
X3671808Y1257102D01*
X3721100D01*
Y1231702D01*
X3671808D01*
X3678373Y1215853D01*
X3690469Y1203757D01*
X3691591Y1189401D01*
X3690469Y1175044D01*
X3678373Y1162949D01*
X3671808Y1147100D01*
X3721100D01*
Y1121700D01*
X3671808D01*
X3678373Y1105850D01*
X3690465Y1093758D01*
X3691590Y1079401D01*
X3690465Y1065044D01*
X3678373Y1052952D01*
X3671808Y1037102D01*
X3721100D01*
Y1011702D01*
X3671808D01*
X3678373Y995853D01*
X3690469Y983757D01*
X3691591Y969401D01*
X3690469Y955045D01*
X3678373Y942949D01*
X3671808Y927100D01*
X3721100D01*
Y901700D01*
X3671808D01*
X3678373Y885851D01*
X3690469Y873755D01*
X3691591Y859399D01*
X3690469Y845043D01*
X3678373Y832947D01*
X3671808Y817098D01*
X3721100D01*
Y804398D01*
X3733800D01*
Y755106D01*
X3749649Y761671D01*
X3761745Y773766D01*
X3776101Y774889D01*
X3790457Y773766D01*
X3802553Y761671D01*
X3818402Y755106D01*
Y804398D01*
X3843802D01*
Y755106D01*
X3859652Y761671D01*
X3871744Y773763D01*
X3886101Y774887D01*
X3900458Y773763D01*
X3912550Y761671D01*
X3928400Y755106D01*
Y804398D01*
X3953800D01*
Y755106D01*
X3969649Y761671D01*
X3981744Y773766D01*
X3996101Y774889D01*
X4010457Y773766D01*
X4022553Y761671D01*
X4038402Y755106D01*
Y804398D01*
X4063802D01*
Y755106D01*
X4079651Y761671D01*
X4091743Y773763D01*
X4106101Y774887D01*
X4120458Y773763D01*
X4132550Y761671D01*
X4148399Y755106D01*
Y804398D01*
X4173799D01*
Y755106D01*
X4189648Y761671D01*
X4201744Y773766D01*
X4216100Y774889D01*
X4230457Y773766D01*
X4242552Y761671D01*
X4258401Y755106D01*
Y804398D01*
X4271101D01*
Y817098D01*
X4320393D01*
X4313828Y832947D01*
X4301733Y845043D01*
X4300610Y859399D01*
X4301733Y873755D01*
X4313828Y885851D01*
X4320393Y901700D01*
X4271101D01*
Y927100D01*
X4320393D01*
X4313828Y942949D01*
X4301733Y955045D01*
X4300610Y969401D01*
X4301733Y983757D01*
X4313828Y995853D01*
X4320393Y1011702D01*
X4271101D01*
Y1037102D01*
X4320393D01*
X4313828Y1052952D01*
X4301736Y1065044D01*
X4300612Y1079401D01*
X4301736Y1093758D01*
X4313828Y1105850D01*
X4320393Y1121700D01*
X4271101D01*
Y1147100D01*
X4320393D01*
X4313828Y1162949D01*
X4301733Y1175044D01*
X4300610Y1189401D01*
X4301733Y1203757D01*
X4313828Y1215853D01*
X4320393Y1231702D01*
X4271101D01*
Y1257102D01*
X4320393D01*
X4313828Y1272951D01*
X4301736Y1285043D01*
X4300612Y1299400D01*
X4301736Y1313758D01*
X4313828Y1325850D01*
X4320393Y1341699D01*
X4271101D01*
Y1354399D01*
X4258401D01*
Y1403691D01*
D02*
G37*
G36*
X4283801D02*
Y1367099D01*
X4320393D01*
X4313828Y1382948D01*
X4299651Y1397126D01*
X4283801Y1403691D01*
D02*
G37*
G36*
X3708400D02*
X3692551Y1397126D01*
X3678373Y1382948D01*
X3671808Y1367099D01*
X3708400D01*
Y1403691D01*
D02*
G37*
G36*
X4670925Y1422000D02*
X4650875D01*
X4632351Y1414327D01*
X4618173Y1400149D01*
X4610500Y1381625D01*
Y1361575D01*
X4618173Y1343051D01*
X4632351Y1328873D01*
X4650875Y1321200D01*
X4670925D01*
X4689449Y1328873D01*
X4703627Y1343051D01*
X4711300Y1361575D01*
Y1381625D01*
X4703627Y1400149D01*
X4689449Y1414327D01*
X4670925Y1422000D01*
D02*
G37*
G36*
X503900Y1232499D02*
X258100D01*
Y986699D01*
X503900D01*
Y1232499D01*
D02*
G37*
G36*
X8118780Y1227800D02*
X8086420D01*
X8055162Y1219425D01*
X8027138Y1203244D01*
X8004256Y1180362D01*
X7988075Y1152338D01*
X7979700Y1121080D01*
Y1088720D01*
X7988075Y1057462D01*
X8004256Y1029438D01*
X8027138Y1006556D01*
X8055162Y990375D01*
X8086420Y982000D01*
X8118780D01*
X8150038Y990375D01*
X8178062Y1006556D01*
X8200944Y1029438D01*
X8217125Y1057462D01*
X8225500Y1088720D01*
Y1121080D01*
X8217125Y1152338D01*
X8200944Y1180362D01*
X8178062Y1203244D01*
X8150038Y1219425D01*
X8118780Y1227800D01*
D02*
G37*
G36*
X3364504Y939800D02*
X3341096D01*
X3318486Y933742D01*
X3298214Y922038D01*
X3281662Y905486D01*
X3269958Y885214D01*
X3263900Y862604D01*
Y839196D01*
X3269958Y816586D01*
X3281662Y796314D01*
X3298214Y779762D01*
X3318486Y768058D01*
X3341096Y762000D01*
X3364504D01*
X3387114Y768058D01*
X3407386Y779762D01*
X3423938Y796314D01*
X3435642Y816586D01*
X3441700Y839196D01*
Y862604D01*
X3435642Y885214D01*
X3423938Y905486D01*
X3407386Y922038D01*
X3387114Y933742D01*
X3364504Y939800D01*
D02*
G37*
G36*
X4320393Y791698D02*
X4283801D01*
Y755106D01*
X4299651Y761671D01*
X4313828Y775848D01*
X4320393Y791698D01*
D02*
G37*
G36*
X3708400D02*
X3671808D01*
X3678373Y775848D01*
X3692551Y761671D01*
X3708400Y755106D01*
Y791698D01*
D02*
G37*
G36*
X6042525Y787000D02*
X6022475D01*
X6003951Y779327D01*
X5989773Y765149D01*
X5982100Y746625D01*
Y726575D01*
X5989773Y708051D01*
X6003951Y693873D01*
X6022475Y686200D01*
X6042525D01*
X6061049Y693873D01*
X6075227Y708051D01*
X6082900Y726575D01*
Y746625D01*
X6075227Y765149D01*
X6061049Y779327D01*
X6042525Y787000D01*
D02*
G37*
G36*
X2857800Y1245900D02*
X1586799D01*
X1576888Y1243929D01*
X1568487Y1238315D01*
X1562873Y1229913D01*
X1560901Y1220003D01*
Y558002D01*
X1562873Y548092D01*
X1568487Y539690D01*
X1576888Y534076D01*
X1586799Y532105D01*
X2857800D01*
X2867710Y534076D01*
X2876112Y539690D01*
X2881726Y548092D01*
X2883697Y558002D01*
Y1220003D01*
X2881726Y1229913D01*
X2876112Y1238315D01*
X2867710Y1243929D01*
X2857800Y1245900D01*
D02*
G37*
G36*
X397180Y732500D02*
X364820D01*
X333562Y724125D01*
X305538Y707944D01*
X282656Y685062D01*
X266475Y657038D01*
X258100Y625780D01*
Y593420D01*
X266475Y562162D01*
X282656Y534138D01*
X305538Y511256D01*
X333562Y495075D01*
X364820Y486700D01*
X397180D01*
X428438Y495075D01*
X456462Y511256D01*
X479344Y534138D01*
X495525Y562162D01*
X503900Y593420D01*
Y625780D01*
X495525Y657038D01*
X479344Y685062D01*
X456462Y707944D01*
X428438Y724125D01*
X397180Y732500D01*
D02*
G37*
G36*
X8225500Y727801D02*
X7979700D01*
Y482001D01*
X8225500D01*
Y727801D01*
D02*
G37*
G36*
X6029825Y545700D02*
X6009775D01*
X5991251Y538027D01*
X5977073Y523849D01*
X5969400Y505325D01*
Y485275D01*
X5977073Y466751D01*
X5991251Y452573D01*
X6009775Y444900D01*
X6029825D01*
X6048349Y452573D01*
X6062527Y466751D01*
X6070200Y485275D01*
Y505325D01*
X6062527Y523849D01*
X6048349Y538027D01*
X6029825Y545700D01*
D02*
G37*
G36*
X5091481Y554700D02*
X5088001D01*
Y444500D01*
X5198201D01*
Y447980D01*
X5189826Y479238D01*
X5173645Y507262D01*
X5150763Y530144D01*
X5122739Y546325D01*
X5091481Y554700D01*
D02*
G37*
G36*
X5062601D02*
X5059121D01*
X5027863Y546325D01*
X4999839Y530144D01*
X4976957Y507262D01*
X4960776Y479238D01*
X4952401Y447980D01*
Y444500D01*
X5062601D01*
Y554700D01*
D02*
G37*
G36*
X7642725Y431400D02*
X7622675D01*
X7604151Y423727D01*
X7589973Y409549D01*
X7582300Y391025D01*
Y370975D01*
X7589973Y352451D01*
X7604151Y338273D01*
X7622675Y330600D01*
X7642725D01*
X7661249Y338273D01*
X7675427Y352451D01*
X7683100Y370975D01*
Y391025D01*
X7675427Y409549D01*
X7661249Y423727D01*
X7642725Y431400D01*
D02*
G37*
G36*
X5698200Y554700D02*
X5452400D01*
Y308900D01*
X5698200D01*
Y554700D01*
D02*
G37*
G36*
X5198201Y419100D02*
X5088001D01*
Y308900D01*
X5091481D01*
X5122739Y317275D01*
X5150763Y333456D01*
X5173645Y356338D01*
X5189826Y384362D01*
X5198201Y415620D01*
Y419100D01*
D02*
G37*
G36*
X5062601D02*
X4952401D01*
Y415620D01*
X4960776Y384362D01*
X4976957Y356338D01*
X4999839Y333456D01*
X5027863Y317275D01*
X5059121Y308900D01*
X5062601D01*
Y419100D01*
D02*
G37*
G36*
X7490325Y240900D02*
X7470275D01*
X7451751Y233227D01*
X7437573Y219049D01*
X7429900Y200525D01*
Y180475D01*
X7437573Y161951D01*
X7451751Y147773D01*
X7470275Y140100D01*
X7490325D01*
X7508849Y147773D01*
X7523027Y161951D01*
X7530700Y180475D01*
Y200525D01*
X7523027Y219049D01*
X7508849Y233227D01*
X7490325Y240900D01*
D02*
G37*
%LPD*%
D33*
X5075301Y431800D02*
D03*
X8102600Y1104900D02*
D03*
X381000Y609600D02*
D03*
D34*
X5575300Y431800D02*
D03*
D35*
X7213600Y1587500D02*
D03*
X6959600D02*
D03*
D36*
X7086600D02*
D03*
D37*
X8102600Y604901D02*
D03*
X381000Y1109599D02*
D03*
D39*
X3238500Y114300D02*
D03*
Y241300D02*
D03*
Y368300D02*
D03*
Y495300D02*
D03*
Y622300D02*
D03*
X3111500Y114300D02*
D03*
Y241300D02*
D03*
Y368300D02*
D03*
Y495300D02*
D03*
Y622300D02*
D03*
D40*
X1430020Y1384300D02*
D03*
X731520Y683260D02*
D03*
X1838960Y378460D02*
D03*
X2260600Y1503680D02*
D03*
X6593840Y1440180D02*
D03*
X3378200Y1209040D02*
D03*
X3395980Y487680D02*
D03*
X4749800Y965200D02*
D03*
X4826000Y916940D02*
D03*
X4638040Y1549400D02*
D03*
X6718300Y520700D02*
D03*
X7467600Y1186180D02*
D03*
X3825240Y541020D02*
D03*
X3583940Y210820D02*
D03*
X2181860Y1587500D02*
D03*
X2598420Y1399540D02*
D03*
X5562600Y919480D02*
D03*
X1437640Y800100D02*
D03*
X5547360Y1051560D02*
D03*
X2293620Y782320D02*
D03*
X1463040Y1046480D02*
D03*
X1694180Y60960D02*
D03*
X497840Y101600D02*
D03*
X1422400Y1216660D02*
D03*
X891540Y1211580D02*
D03*
X3474720Y1600200D02*
D03*
X3200400Y1503680D02*
D03*
X2979420Y1285240D02*
D03*
X3091180Y1384300D02*
D03*
X2733040Y632460D02*
D03*
X2814320Y830580D02*
D03*
X2938780Y1150620D02*
D03*
X2131060Y855980D02*
D03*
X3091180Y1546860D02*
D03*
X2395220Y1013460D02*
D03*
X2496820Y243840D02*
D03*
X3500120Y576580D02*
D03*
X2311400Y246380D02*
D03*
X3154680Y833120D02*
D03*
X4145280Y533400D02*
D03*
X4218940Y538480D02*
D03*
X7780020Y662940D02*
D03*
X7777480Y106680D02*
D03*
X1427480Y619760D02*
D03*
X2948940Y1033780D02*
D03*
X4025204Y295824D02*
D03*
X6436360Y1229360D02*
D03*
X6675120Y952500D02*
D03*
X3352800Y850900D02*
D03*
X4559300Y1727200D02*
D03*
X7632700Y381000D02*
D03*
X7480300Y190500D02*
D03*
X6032500Y736600D02*
D03*
X6019800Y495300D02*
D03*
X4660900Y1371600D02*
D03*
X4826000Y1485900D02*
D03*
X3721100Y1354399D02*
D03*
X3831102D02*
D03*
X3941100D02*
D03*
X4051102D02*
D03*
X4161099D02*
D03*
X4271101D02*
D03*
X3721100Y1244402D02*
D03*
X3831102D02*
D03*
X3941100D02*
D03*
X4051102D02*
D03*
X4161099D02*
D03*
X4271101D02*
D03*
X3721100Y1134400D02*
D03*
X3831102D02*
D03*
X3941100D02*
D03*
X4051102D02*
D03*
X4161099D02*
D03*
X4271101D02*
D03*
X3721100Y1024402D02*
D03*
X3831102D02*
D03*
X3941100D02*
D03*
X4051102D02*
D03*
X4161099D02*
D03*
X4271101D02*
D03*
X3721100Y914400D02*
D03*
X3831102D02*
D03*
X3941100D02*
D03*
X4051102D02*
D03*
X4161099D02*
D03*
X4271101D02*
D03*
X3721100Y804398D02*
D03*
X3831102D02*
D03*
X3941100D02*
D03*
X4051102D02*
D03*
X4161099D02*
D03*
X4271101D02*
D03*
%TF.MD5,eb88211e2acc126b7ae5ef4481e757c9*%
M02*
