%TF.GenerationSoftware,Altium Limited,Altium Designer,25.4.2 (15)*%
G04 Layer_Color=32896*
%FSLAX45Y45*%
%MOMM*%
%TF.SameCoordinates,47237EEE-74C4-40EA-AC85-0918F70ECB2B*%
%TF.FilePolarity,Positive*%
%TF.FileFunction,Legend,Bot*%
%TF.Part,Single*%
G01*
G75*
%TA.AperFunction,NonConductor*%
%ADD31C,0.25400*%
%ADD45C,0.20000*%
%ADD46C,0.25000*%
%ADD47C,0.60000*%
D31*
X6903206Y1294584D02*
Y1211277D01*
X6886545Y1194616D01*
X6853222D01*
X6836561Y1211277D01*
Y1294584D01*
X6736593D02*
X6803238D01*
Y1244600D01*
X6769916Y1261261D01*
X6753254D01*
X6736593Y1244600D01*
Y1211277D01*
X6753254Y1194616D01*
X6786577D01*
X6803238Y1211277D01*
X2753784Y1085093D02*
X2670478D01*
X2653816Y1101755D01*
Y1135077D01*
X2670478Y1151738D01*
X2753784D01*
X2737123Y1185061D02*
X2753784Y1201723D01*
Y1235045D01*
X2737123Y1251706D01*
X2720461D01*
X2703800Y1235045D01*
Y1218384D01*
Y1235045D01*
X2687139Y1251706D01*
X2670478D01*
X2653816Y1235045D01*
Y1201723D01*
X2670478Y1185061D01*
X1176020Y714648D02*
Y631341D01*
X1159359Y614680D01*
X1126036D01*
X1109375Y631341D01*
Y714648D01*
X1076052Y614680D02*
X1042730D01*
X1059391D01*
Y714648D01*
X1076052Y697986D01*
D45*
X7547798Y950935D02*
Y1078179D01*
X7412802Y950935D02*
Y1078179D01*
X7774107Y849996D02*
Y1131204D01*
X7592894Y849996D02*
Y1131204D01*
X5952302Y953821D02*
Y1081065D01*
X6087298Y953821D02*
Y1081065D01*
X5725993Y858708D02*
Y1139916D01*
X5907207Y858708D02*
Y1139916D01*
X7083699Y84602D02*
Y1134598D01*
X6403701Y84602D02*
Y1134598D01*
X7083699D01*
X6403701Y84602D02*
X7083699D01*
X1901002Y280721D02*
Y407965D01*
X2035998Y280721D02*
Y407965D01*
X2091502Y279278D02*
Y406522D01*
X2226498Y279278D02*
Y406522D01*
X2198421Y1439098D02*
X2325665D01*
X2198421Y1304102D02*
X2325665D01*
X2468499Y1075599D02*
Y1100602D01*
Y595600D02*
Y620598D01*
X1963501Y595600D02*
X1988500D01*
X2443500D02*
X2468499D01*
X1963501Y1075599D02*
Y1100602D01*
Y595600D02*
Y620598D01*
Y1100602D02*
X1988500D01*
X2443500D02*
X2468499D01*
X2124898Y1293835D02*
Y1421079D01*
X1989902Y1293835D02*
Y1421079D01*
X1944807Y1336584D02*
Y1617797D01*
X1763593Y1336584D02*
Y1617797D01*
X1769298Y950935D02*
Y1078179D01*
X1634302Y950935D02*
Y1078179D01*
X1224900Y175199D02*
Y485201D01*
X1324900Y175199D02*
Y485201D01*
X1224900Y175199D02*
X1324900D01*
X1224900Y485201D02*
X1324900D01*
X1585793Y193578D02*
Y474792D01*
X1767007Y193578D02*
Y474792D01*
X655508Y306507D02*
X936722D01*
X655508Y125293D02*
X936722D01*
X676178Y547807D02*
X957392D01*
X676178Y366593D02*
X957392D01*
D46*
X7241200Y1141600D02*
G03*
X7241200Y1141600I-12500J0D01*
G01*
X2676000Y1023100D02*
G03*
X2676000Y1023100I-12500J0D01*
G01*
X1434900Y512700D02*
G03*
X1434900Y512700I-12500J0D01*
G01*
D47*
X7013699Y1034600D02*
G03*
X7013699Y1034600I-30000J0D01*
G01*
%TF.MD5,77c6214644861616f2ec9b975c152ca7*%
M02*
