%TF.GenerationSoftware,Altium Limited,Altium Designer,25.4.2 (15)*%
G04 Layer_Color=0*
%FSLAX45Y45*%
%MOMM*%
%TF.SameCoordinates,D0FDF368-1468-4A38-90CB-FD56B44771C5*%
%TF.FilePolarity,Positive*%
%TF.FileFunction,Plated,1,4,PTH,Drill*%
%TF.Part,Single*%
G01*
G75*
%TA.AperFunction,ComponentDrill*%
%ADD79C,1.30000*%
%ADD80C,0.90000*%
%ADD81C,0.90000*%
%ADD82C,1.30000*%
%ADD83C,0.71000*%
%TA.AperFunction,ViaDrill,NotFilled*%
%ADD84C,0.20000*%
%ADD85C,0.50000*%
D79*
X5075301Y431800D02*
D03*
X5575300D02*
D03*
D80*
X7213600Y1587500D02*
D03*
X6959600D02*
D03*
D81*
X7086600D02*
D03*
D82*
X8102600Y604901D02*
D03*
Y1104900D02*
D03*
X381000Y1109599D02*
D03*
Y609600D02*
D03*
D83*
X3238500Y114300D02*
D03*
Y241300D02*
D03*
Y368300D02*
D03*
Y495300D02*
D03*
Y622300D02*
D03*
X3111500Y114300D02*
D03*
Y241300D02*
D03*
Y368300D02*
D03*
Y495300D02*
D03*
Y622300D02*
D03*
D84*
X1430020Y1384300D02*
D03*
X731520Y683260D02*
D03*
X1838960Y378460D02*
D03*
X2260600Y1503680D02*
D03*
X6593840Y1440180D02*
D03*
X3378200Y1209040D02*
D03*
X3395980Y487680D02*
D03*
X4749800Y965200D02*
D03*
X4826000Y916940D02*
D03*
X4638040Y1549400D02*
D03*
X6718300Y520700D02*
D03*
X7467600Y1186180D02*
D03*
X3825240Y541020D02*
D03*
X3583940Y210820D02*
D03*
X2181860Y1587500D02*
D03*
X2598420Y1399540D02*
D03*
X5562600Y919480D02*
D03*
X1437640Y800100D02*
D03*
X5547360Y1051560D02*
D03*
X2293620Y782320D02*
D03*
X1463040Y1046480D02*
D03*
X1694180Y60960D02*
D03*
X497840Y101600D02*
D03*
X1422400Y1216660D02*
D03*
X891540Y1211580D02*
D03*
X3474720Y1600200D02*
D03*
X3200400Y1503680D02*
D03*
X2979420Y1285240D02*
D03*
X3091180Y1384300D02*
D03*
X2733040Y632460D02*
D03*
X2814320Y830580D02*
D03*
X2938780Y1150620D02*
D03*
X2131060Y855980D02*
D03*
X3091180Y1546860D02*
D03*
X2395220Y1013460D02*
D03*
X2496820Y243840D02*
D03*
X3500120Y576580D02*
D03*
X2311400Y246380D02*
D03*
X3154680Y833120D02*
D03*
X4145280Y533400D02*
D03*
X4218940Y538480D02*
D03*
X7780020Y662940D02*
D03*
X7777480Y106680D02*
D03*
X1427480Y619760D02*
D03*
X2948940Y1033780D02*
D03*
X4025204Y295824D02*
D03*
X6436360Y1229360D02*
D03*
X6675120Y952500D02*
D03*
X4559300Y1727200D02*
D03*
X7632700Y381000D02*
D03*
X7480300Y190500D02*
D03*
X6032500Y736600D02*
D03*
X6019800Y495300D02*
D03*
X4660900Y1371600D02*
D03*
X4826000Y1485900D02*
D03*
X3721100Y1354399D02*
D03*
X3831102D02*
D03*
X3941100D02*
D03*
X4051102D02*
D03*
X4161099D02*
D03*
X4271101D02*
D03*
X3721100Y1244402D02*
D03*
X3831102D02*
D03*
X3941100D02*
D03*
X4051102D02*
D03*
X4161099D02*
D03*
X4271101D02*
D03*
X3721100Y1134400D02*
D03*
X3831102D02*
D03*
X3941100D02*
D03*
X4051102D02*
D03*
X4161099D02*
D03*
X4271101D02*
D03*
X3721100Y1024402D02*
D03*
X3831102D02*
D03*
X3941100D02*
D03*
X4051102D02*
D03*
X4161099D02*
D03*
X4271101D02*
D03*
X3721100Y914400D02*
D03*
X3831102D02*
D03*
X3941100D02*
D03*
X4051102D02*
D03*
X4161099D02*
D03*
X4271101D02*
D03*
X3721100Y804398D02*
D03*
X3831102D02*
D03*
X3941100D02*
D03*
X4051102D02*
D03*
X4161099D02*
D03*
X4271101D02*
D03*
D85*
X3352800Y850900D02*
D03*
%TF.MD5,ea61ad18b9847b34bf31768629288f5e*%
M02*
