%TF.GenerationSoftware,Altium Limited,Altium Designer,25.4.2 (15)*%
G04 Layer_Physical_Order=3*
G04 Layer_Color=16440176*
%FSLAX45Y45*%
%MOMM*%
%TF.SameCoordinates,47237EEE-74C4-40EA-AC85-0918F70ECB2B*%
%TF.FilePolarity,Positive*%
%TF.FileFunction,Copper,L3,Inr,Signal*%
%TF.Part,Single*%
G01*
G75*
%TA.AperFunction,Conductor*%
%ADD10C,0.25400*%
%TA.AperFunction,ComponentPad*%
%ADD33C,1.95000*%
%ADD34R,1.95000X1.95000*%
%ADD35O,1.00000X2.00000*%
%ADD36O,1.00000X2.00000*%
%ADD37R,1.95000X1.95000*%
%ADD39C,1.06000*%
%TA.AperFunction,ViaPad*%
%ADD40C,0.50000*%
G36*
X8413541Y1773510D02*
X8434804Y1764702D01*
X8453941Y1751915D01*
X8470215Y1735641D01*
X8483002Y1716504D01*
X8491810Y1695241D01*
X8496300Y1672668D01*
Y1661160D01*
Y119380D01*
Y109123D01*
X8492298Y89003D01*
X8484448Y70051D01*
X8473051Y52995D01*
X8458545Y38489D01*
X8441489Y27092D01*
X8422536Y19242D01*
X8402417Y15240D01*
X3269855D01*
X3266511Y40640D01*
X3268761Y41243D01*
X3286639Y51565D01*
X3301235Y66161D01*
X3311557Y84039D01*
X3316900Y103978D01*
Y124622D01*
X3311557Y144561D01*
X3301235Y162439D01*
X3287331Y177800D01*
X3301236Y193162D01*
X3311557Y211039D01*
X3316900Y230978D01*
Y251622D01*
X3311557Y271561D01*
X3301235Y289439D01*
X3287331Y304800D01*
X3301236Y320162D01*
X3311557Y338039D01*
X3316900Y357978D01*
Y378622D01*
X3311557Y398561D01*
X3301235Y416439D01*
X3287331Y431800D01*
X3301236Y447162D01*
X3311557Y465039D01*
X3316900Y484978D01*
Y505622D01*
X3311557Y525561D01*
X3301235Y543439D01*
X3287331Y558800D01*
X3301236Y574162D01*
X3311557Y592039D01*
X3316263Y609600D01*
X3238500D01*
Y622300D01*
X3225800D01*
Y700063D01*
X3208239Y695357D01*
X3190361Y685035D01*
X3175000Y671131D01*
X3159638Y685036D01*
X3141761Y695357D01*
X3121822Y700700D01*
X3101178D01*
X3081239Y695357D01*
X3063361Y685035D01*
X3048765Y670439D01*
X3038443Y652561D01*
X3033100Y632622D01*
Y611978D01*
X3038443Y592039D01*
X3048765Y574161D01*
X3062669Y558800D01*
X3048764Y543438D01*
X3038443Y525561D01*
X3033100Y505622D01*
Y484978D01*
X3038443Y465039D01*
X3048765Y447161D01*
X3062669Y431800D01*
X3048764Y416438D01*
X3038443Y398561D01*
X3033100Y378622D01*
Y357978D01*
X3038443Y338039D01*
X3048765Y320161D01*
X3062669Y304800D01*
X3048764Y289438D01*
X3038443Y271561D01*
X3033100Y251622D01*
Y230978D01*
X3038443Y211039D01*
X3048765Y193161D01*
X3062669Y177800D01*
X3048764Y162438D01*
X3038443Y144561D01*
X3033100Y124622D01*
Y103978D01*
X3038443Y84039D01*
X3048765Y66161D01*
X3063361Y51565D01*
X3081239Y41243D01*
X3083489Y40640D01*
X3080145Y15240D01*
X1755195D01*
X1750940Y19234D01*
X1740316Y40640D01*
X1744580Y50935D01*
Y70985D01*
X1736907Y89509D01*
X1722729Y103687D01*
X1704205Y111360D01*
X1684155D01*
X1665631Y103687D01*
X1651453Y89509D01*
X1643780Y70985D01*
Y50935D01*
X1648044Y40640D01*
X1637420Y19234D01*
X1633165Y15240D01*
X113202D01*
X91120Y19632D01*
X70319Y28249D01*
X51598Y40757D01*
X35677Y56678D01*
X23169Y75399D01*
X14552Y96200D01*
X10160Y118282D01*
Y129540D01*
Y1661160D01*
Y1672668D01*
X14650Y1695241D01*
X23458Y1716504D01*
X36244Y1735641D01*
X52519Y1751915D01*
X71655Y1764702D01*
X92919Y1773510D01*
X115492Y1778000D01*
X4502903D01*
X4510046Y1766373D01*
X4515269Y1752600D01*
X4508900Y1737225D01*
Y1717175D01*
X4491675Y1692387D01*
X3638131D01*
X3596169Y1734349D01*
X3583566Y1742769D01*
X3568700Y1745727D01*
X2905760D01*
X2890894Y1742769D01*
X2878291Y1734349D01*
X2593883Y1449940D01*
X2588395D01*
X2569871Y1442267D01*
X2555693Y1428089D01*
X2548020Y1409565D01*
Y1389515D01*
X2555693Y1370991D01*
X2569871Y1356813D01*
X2588395Y1349140D01*
X2608445D01*
X2626969Y1356813D01*
X2641147Y1370991D01*
X2648820Y1389515D01*
Y1395003D01*
X2921851Y1668033D01*
X3440410D01*
X3445850Y1644326D01*
X3445877Y1642633D01*
X3431993Y1628749D01*
X3424320Y1610225D01*
Y1590175D01*
X3431993Y1571651D01*
X3446171Y1557473D01*
X3464695Y1549800D01*
X3484745D01*
X3503269Y1557473D01*
X3517447Y1571651D01*
X3525120Y1590175D01*
Y1610225D01*
X3517447Y1628749D01*
X3503563Y1642633D01*
X3503590Y1644326D01*
X3509030Y1668033D01*
X3552609D01*
X3594571Y1626071D01*
X3607174Y1617651D01*
X3622040Y1614693D01*
X4742848D01*
X4746205Y1611729D01*
X4757727Y1589293D01*
X4754880Y1582420D01*
X4853464D01*
X4850617Y1589293D01*
X4862139Y1611729D01*
X4865496Y1614693D01*
X5160429D01*
X5452633Y1322489D01*
Y1093270D01*
X5440552Y1087584D01*
X5427233Y1085483D01*
X5415889Y1096827D01*
X5397365Y1104500D01*
X5377315D01*
X5358791Y1096827D01*
X5355908Y1093944D01*
X4654489Y1115788D01*
X4653883Y1115687D01*
X4653280Y1115807D01*
X4569460D01*
X4554594Y1112849D01*
X4541991Y1104429D01*
X4402291Y964729D01*
X4393871Y952126D01*
X4390913Y937260D01*
Y696707D01*
X3676231D01*
X3511027Y861911D01*
Y937621D01*
X3508069Y952487D01*
X3499649Y965090D01*
X3484770Y979969D01*
X3472167Y988389D01*
X3457301Y991347D01*
X3010970D01*
X2996437Y1016747D01*
X2999340Y1023755D01*
Y1043805D01*
X2991667Y1062329D01*
X2977489Y1076507D01*
X2967710Y1080558D01*
X2966734Y1107647D01*
X2967329Y1107893D01*
X2981507Y1122071D01*
X2989180Y1140595D01*
Y1160645D01*
X2981507Y1179169D01*
X2967329Y1193347D01*
X2948805Y1201020D01*
X2928755D01*
X2910231Y1193347D01*
X2909097Y1192214D01*
X2883697Y1202735D01*
Y1220003D01*
X2881726Y1229913D01*
X2876112Y1238315D01*
X2867710Y1243929D01*
X2857800Y1245900D01*
X1586799D01*
X1576888Y1243929D01*
X1568487Y1238315D01*
X1562873Y1229913D01*
X1560901Y1220003D01*
Y978299D01*
X1433103Y850500D01*
X1427615D01*
X1409091Y842827D01*
X1394913Y828649D01*
X1387240Y810125D01*
Y790075D01*
X1394913Y771551D01*
X1409091Y757373D01*
X1427615Y749700D01*
X1447665D01*
X1466189Y757373D01*
X1480367Y771551D01*
X1488040Y790075D01*
Y795563D01*
X1537435Y844958D01*
X1560901Y835237D01*
Y558002D01*
X1562873Y548092D01*
X1568487Y539690D01*
X1576888Y534076D01*
X1586799Y532105D01*
X2857800D01*
X2867710Y534076D01*
X2876112Y539690D01*
X2881726Y548092D01*
X2883697Y558002D01*
Y913653D01*
X3311090D01*
X3311435Y913129D01*
X3318877Y888253D01*
X3310073Y879449D01*
X3302400Y860925D01*
Y840875D01*
X3310073Y822351D01*
X3324251Y808173D01*
X3342775Y800500D01*
X3362825D01*
X3381349Y808173D01*
X3395527Y822351D01*
X3403200Y840875D01*
Y860925D01*
X3395527Y879449D01*
X3386723Y888253D01*
X3394165Y913129D01*
X3394510Y913653D01*
X3433333D01*
Y845820D01*
X3436291Y830954D01*
X3444711Y818351D01*
X3632671Y630391D01*
X3645274Y621971D01*
X3660140Y619013D01*
X4414881D01*
X4429747Y621971D01*
X4442350Y630391D01*
X4457229Y645270D01*
X4465649Y657873D01*
X4468607Y672739D01*
Y921169D01*
X4585551Y1038113D01*
X4652674D01*
X4722504Y1035939D01*
X4727175Y1010381D01*
X4721251Y1007927D01*
X4707073Y993749D01*
X4700508Y977900D01*
X4799092D01*
X4792527Y993749D01*
X4778349Y1007927D01*
X4776103Y1008857D01*
X4781534Y1034101D01*
X5353887Y1016276D01*
X5358791Y1011373D01*
X5377315Y1003700D01*
X5397365D01*
X5415889Y1011373D01*
X5427233Y1022717D01*
X5440552Y1020616D01*
X5452633Y1014930D01*
Y990600D01*
X5455591Y975734D01*
X5464011Y963131D01*
X5512200Y914943D01*
Y909455D01*
X5519873Y890931D01*
X5534051Y876753D01*
X5552575Y869080D01*
X5572625D01*
X5591149Y876753D01*
X5605327Y890931D01*
X5613000Y909455D01*
Y929505D01*
X5605327Y948029D01*
X5591149Y962207D01*
X5572625Y969880D01*
X5567137D01*
X5530327Y1006691D01*
Y1338580D01*
X5527369Y1353446D01*
X5518949Y1366049D01*
X5203989Y1681009D01*
X5191386Y1689429D01*
X5176520Y1692387D01*
X4626925D01*
X4609700Y1717175D01*
Y1737225D01*
X4603331Y1752600D01*
X4608554Y1766373D01*
X4615697Y1778000D01*
X8390968D01*
X8413541Y1773510D01*
D02*
G37*
%LPC*%
G36*
X7213600Y1713551D02*
X7193917Y1710959D01*
X7175575Y1703362D01*
X7159824Y1691276D01*
X7132465Y1697346D01*
X7124625Y1703362D01*
X7106283Y1710959D01*
X7086600Y1713551D01*
X7066917Y1710959D01*
X7048575Y1703362D01*
X7040735Y1697346D01*
X7013376Y1691276D01*
X6997625Y1703362D01*
X6979283Y1710959D01*
X6972300Y1711879D01*
Y1587500D01*
Y1463121D01*
X6979283Y1464041D01*
X6997625Y1471638D01*
X7013376Y1483724D01*
X7040735Y1477654D01*
X7048575Y1471638D01*
X7066917Y1464041D01*
X7086600Y1461449D01*
X7106283Y1464041D01*
X7124625Y1471638D01*
X7132465Y1477654D01*
X7159824Y1483724D01*
X7175575Y1471638D01*
X7193917Y1464041D01*
X7213600Y1461449D01*
X7233283Y1464041D01*
X7251625Y1471638D01*
X7267376Y1483724D01*
X7279462Y1499475D01*
X7287059Y1517816D01*
X7289651Y1537500D01*
Y1637500D01*
X7287059Y1657184D01*
X7279462Y1675525D01*
X7267376Y1691276D01*
X7251625Y1703362D01*
X7233283Y1710959D01*
X7213600Y1713551D01*
D02*
G37*
G36*
X6946900Y1711879D02*
X6939917Y1710959D01*
X6921575Y1703362D01*
X6905824Y1691276D01*
X6893738Y1675525D01*
X6886141Y1657184D01*
X6883549Y1637500D01*
Y1600200D01*
X6946900D01*
Y1711879D01*
D02*
G37*
G36*
X4791472Y1557020D02*
X4754880D01*
X4761445Y1541171D01*
X4775623Y1526993D01*
X4791472Y1520428D01*
Y1557020D01*
D02*
G37*
G36*
X6946900Y1574800D02*
X6883549D01*
Y1537500D01*
X6886141Y1517816D01*
X6893738Y1499475D01*
X6905824Y1483724D01*
X6921575Y1471638D01*
X6939917Y1464041D01*
X6946900Y1463121D01*
Y1574800D01*
D02*
G37*
G36*
X3101205Y1597260D02*
X3081155D01*
X3062631Y1589587D01*
X3048453Y1575409D01*
X3040780Y1556885D01*
Y1536835D01*
X3048453Y1518311D01*
X3062631Y1504133D01*
X3081155Y1496460D01*
X3101205D01*
X3119729Y1504133D01*
X3124600Y1509004D01*
X3150000Y1498483D01*
Y1493655D01*
X3157673Y1475131D01*
X3171851Y1460953D01*
X3190375Y1453280D01*
X3210425D01*
X3228949Y1460953D01*
X3243127Y1475131D01*
X3250800Y1493655D01*
Y1513705D01*
X3243127Y1532229D01*
X3228949Y1546407D01*
X3210425Y1554080D01*
X3190375D01*
X3171851Y1546407D01*
X3166980Y1541536D01*
X3141580Y1552057D01*
Y1556885D01*
X3133907Y1575409D01*
X3119729Y1589587D01*
X3101205Y1597260D01*
D02*
G37*
G36*
X2191885Y1637900D02*
X2171835D01*
X2153311Y1630227D01*
X2139133Y1616049D01*
X2131460Y1597525D01*
Y1577475D01*
X2139133Y1558951D01*
X2153311Y1544773D01*
X2171835Y1537100D01*
X2191885D01*
X2192504Y1537356D01*
X2211944Y1517916D01*
X2210200Y1513705D01*
Y1493655D01*
X2217873Y1475131D01*
X2232051Y1460953D01*
X2250575Y1453280D01*
X2270625D01*
X2289149Y1460953D01*
X2303327Y1475131D01*
X2311000Y1493655D01*
Y1513705D01*
X2303327Y1532229D01*
X2289149Y1546407D01*
X2270625Y1554080D01*
X2250575D01*
X2249956Y1553824D01*
X2230516Y1573264D01*
X2232260Y1577475D01*
Y1597525D01*
X2224587Y1616049D01*
X2210409Y1630227D01*
X2191885Y1637900D01*
D02*
G37*
G36*
X6606540Y1489472D02*
Y1452880D01*
X6643132D01*
X6636567Y1468729D01*
X6622389Y1482907D01*
X6606540Y1489472D01*
D02*
G37*
G36*
X6581140D02*
X6565291Y1482907D01*
X6551113Y1468729D01*
X6544548Y1452880D01*
X6581140D01*
Y1489472D01*
D02*
G37*
G36*
X4853464Y1557020D02*
X4816872D01*
Y1517581D01*
X4819592Y1515451D01*
X4831408Y1498956D01*
X4826000Y1485900D01*
Y1465850D01*
X4833673Y1447326D01*
X4847851Y1433148D01*
X4866375Y1425475D01*
X4886425D01*
X4904949Y1433148D01*
X4919127Y1447326D01*
X4926800Y1465850D01*
Y1485900D01*
X4919127Y1504424D01*
X4904949Y1518602D01*
X4886425Y1526275D01*
X4866375D01*
X4866078Y1526152D01*
X4860980Y1530144D01*
X4849164Y1546639D01*
X4853464Y1557020D01*
D02*
G37*
G36*
X4718732Y1522991D02*
X4698682D01*
X4680158Y1515318D01*
X4665980Y1501140D01*
X4658307Y1482616D01*
Y1462566D01*
X4665980Y1444041D01*
X4680158Y1429864D01*
X4698682Y1422191D01*
X4718732D01*
X4737256Y1429864D01*
X4751434Y1444041D01*
X4759107Y1462566D01*
Y1482616D01*
X4751434Y1501140D01*
X4737256Y1515318D01*
X4718732Y1522991D01*
D02*
G37*
G36*
X4574405Y1500740D02*
X4554355D01*
X4535831Y1493067D01*
X4521653Y1478889D01*
X4513980Y1460365D01*
Y1440315D01*
X4521653Y1421791D01*
X4535831Y1407613D01*
X4554355Y1399940D01*
X4574405D01*
X4592929Y1407613D01*
X4607107Y1421791D01*
X4614780Y1440315D01*
Y1460365D01*
X4607107Y1478889D01*
X4592929Y1493067D01*
X4574405Y1500740D01*
D02*
G37*
G36*
X1442720Y1433592D02*
Y1397000D01*
X1479312D01*
X1472747Y1412849D01*
X1458569Y1427027D01*
X1442720Y1433592D01*
D02*
G37*
G36*
X1417320D02*
X1401471Y1427027D01*
X1387293Y1412849D01*
X1380728Y1397000D01*
X1417320D01*
Y1433592D01*
D02*
G37*
G36*
X6643132Y1427480D02*
X6606540D01*
Y1390888D01*
X6622389Y1397453D01*
X6636567Y1411631D01*
X6643132Y1427480D01*
D02*
G37*
G36*
X6581140D02*
X6544548D01*
X6551113Y1411631D01*
X6565291Y1397453D01*
X6581140Y1390888D01*
Y1427480D01*
D02*
G37*
G36*
X4281127Y1404799D02*
X4261076D01*
X4242552Y1397126D01*
X4230457Y1385031D01*
X4216100Y1383908D01*
X4201744Y1385031D01*
X4189648Y1397126D01*
X4171124Y1404799D01*
X4151074D01*
X4132550Y1397126D01*
X4120458Y1385034D01*
X4106101Y1383910D01*
X4091743Y1385034D01*
X4079651Y1397126D01*
X4061127Y1404799D01*
X4041077D01*
X4022553Y1397126D01*
X4010457Y1385031D01*
X3996101Y1383908D01*
X3981744Y1385031D01*
X3969649Y1397126D01*
X3951125Y1404799D01*
X3931074D01*
X3912550Y1397126D01*
X3900458Y1385034D01*
X3886101Y1383910D01*
X3871744Y1385034D01*
X3859652Y1397126D01*
X3841127Y1404799D01*
X3821077D01*
X3802553Y1397126D01*
X3790457Y1385031D01*
X3776101Y1383908D01*
X3761745Y1385031D01*
X3749649Y1397126D01*
X3731125Y1404799D01*
X3711075D01*
X3692551Y1397126D01*
X3678373Y1382948D01*
X3670700Y1364424D01*
Y1344374D01*
X3678373Y1325850D01*
X3690465Y1313758D01*
X3691590Y1299400D01*
X3690465Y1285043D01*
X3678373Y1272951D01*
X3670700Y1254427D01*
Y1234377D01*
X3678373Y1215853D01*
X3690469Y1203757D01*
X3691591Y1189401D01*
X3690469Y1175044D01*
X3678373Y1162949D01*
X3670700Y1144425D01*
Y1124374D01*
X3678373Y1105850D01*
X3690465Y1093758D01*
X3691590Y1079401D01*
X3690465Y1065044D01*
X3678373Y1052952D01*
X3670700Y1034427D01*
Y1014377D01*
X3678373Y995853D01*
X3690469Y983757D01*
X3691591Y969401D01*
X3690469Y955045D01*
X3678373Y942949D01*
X3670700Y924425D01*
Y904375D01*
X3678373Y885851D01*
X3690469Y873755D01*
X3691591Y859399D01*
X3690469Y845043D01*
X3678373Y832947D01*
X3670700Y814423D01*
Y794373D01*
X3678373Y775848D01*
X3692551Y761671D01*
X3711075Y753998D01*
X3731125D01*
X3749649Y761671D01*
X3761745Y773766D01*
X3776101Y774889D01*
X3790457Y773766D01*
X3802553Y761671D01*
X3821077Y753998D01*
X3841127D01*
X3859652Y761671D01*
X3871744Y773763D01*
X3886101Y774887D01*
X3900458Y773763D01*
X3912550Y761671D01*
X3931074Y753998D01*
X3951125D01*
X3969649Y761671D01*
X3981744Y773766D01*
X3996101Y774889D01*
X4010457Y773766D01*
X4022553Y761671D01*
X4041077Y753998D01*
X4061127D01*
X4079651Y761671D01*
X4091743Y773763D01*
X4106101Y774887D01*
X4120458Y773763D01*
X4132550Y761671D01*
X4151074Y753998D01*
X4171124D01*
X4189648Y761671D01*
X4201744Y773766D01*
X4216100Y774889D01*
X4230457Y773766D01*
X4242552Y761671D01*
X4261076Y753998D01*
X4281127D01*
X4299651Y761671D01*
X4313828Y775848D01*
X4321501Y794373D01*
Y814423D01*
X4313828Y832947D01*
X4301733Y845043D01*
X4300610Y859399D01*
X4301733Y873755D01*
X4313828Y885851D01*
X4321501Y904375D01*
Y924425D01*
X4313828Y942949D01*
X4301733Y955045D01*
X4300610Y969401D01*
X4301733Y983757D01*
X4313828Y995853D01*
X4321501Y1014377D01*
Y1034427D01*
X4313828Y1052952D01*
X4301736Y1065044D01*
X4300612Y1079401D01*
X4301736Y1093758D01*
X4313828Y1105850D01*
X4321501Y1124374D01*
Y1144425D01*
X4313828Y1162949D01*
X4301733Y1175044D01*
X4300610Y1189401D01*
X4301733Y1203757D01*
X4313828Y1215853D01*
X4321501Y1234377D01*
Y1254427D01*
X4313828Y1272951D01*
X4301736Y1285043D01*
X4300612Y1299400D01*
X4301736Y1313758D01*
X4313828Y1325850D01*
X4321501Y1344374D01*
Y1364424D01*
X4313828Y1382948D01*
X4299651Y1397126D01*
X4281127Y1404799D01*
D02*
G37*
G36*
X1479312Y1371600D02*
X1442720D01*
Y1335008D01*
X1458569Y1341573D01*
X1472747Y1355751D01*
X1479312Y1371600D01*
D02*
G37*
G36*
X1417320D02*
X1380728D01*
X1387293Y1355751D01*
X1401471Y1341573D01*
X1417320Y1335008D01*
Y1371600D01*
D02*
G37*
G36*
X3101205Y1434700D02*
X3081155D01*
X3062631Y1427027D01*
X3048453Y1412849D01*
X3040780Y1394325D01*
Y1374275D01*
X3048453Y1355751D01*
X3062631Y1341573D01*
X3081155Y1333900D01*
X3101205D01*
X3119729Y1341573D01*
X3133907Y1355751D01*
X3141580Y1374275D01*
Y1394325D01*
X3133907Y1412849D01*
X3119729Y1427027D01*
X3101205Y1434700D01*
D02*
G37*
G36*
X4699474Y1379273D02*
X4679424D01*
X4660900Y1371600D01*
X4646722Y1357422D01*
X4639049Y1338898D01*
Y1318848D01*
X4646722Y1300324D01*
X4660900Y1286146D01*
X4679424Y1278473D01*
X4699474D01*
X4717999Y1286146D01*
X4732176Y1300324D01*
X4739849Y1318848D01*
Y1338898D01*
X4732176Y1357422D01*
X4717999Y1371600D01*
X4699474Y1379273D01*
D02*
G37*
G36*
X2989445Y1335640D02*
X2969395D01*
X2950871Y1327967D01*
X2936693Y1313789D01*
X2929020Y1295265D01*
Y1275215D01*
X2936693Y1256691D01*
X2950871Y1242513D01*
X2969395Y1234840D01*
X2989445D01*
X3007969Y1242513D01*
X3022147Y1256691D01*
X3029820Y1275215D01*
Y1295265D01*
X3022147Y1313789D01*
X3007969Y1327967D01*
X2989445Y1335640D01*
D02*
G37*
G36*
X3390900Y1258332D02*
Y1221740D01*
X3427492D01*
X3420927Y1237589D01*
X3406749Y1251767D01*
X3390900Y1258332D01*
D02*
G37*
G36*
X3365500D02*
X3349651Y1251767D01*
X3335473Y1237589D01*
X3328908Y1221740D01*
X3365500D01*
Y1258332D01*
D02*
G37*
G36*
X7480300Y1235472D02*
Y1198880D01*
X7516892D01*
X7510327Y1214729D01*
X7496149Y1228907D01*
X7480300Y1235472D01*
D02*
G37*
G36*
X7454900D02*
X7439051Y1228907D01*
X7424873Y1214729D01*
X7418308Y1198880D01*
X7454900D01*
Y1235472D01*
D02*
G37*
G36*
X6446385Y1279760D02*
X6426335D01*
X6407811Y1272087D01*
X6393633Y1257909D01*
X6385960Y1239385D01*
Y1219335D01*
X6393633Y1200811D01*
X6407811Y1186633D01*
X6426335Y1178960D01*
X6446385D01*
X6464909Y1186633D01*
X6479087Y1200811D01*
X6486760Y1219335D01*
Y1239385D01*
X6479087Y1257909D01*
X6464909Y1272087D01*
X6446385Y1279760D01*
D02*
G37*
G36*
X1432425Y1267060D02*
X1412375D01*
X1393851Y1259387D01*
X1379673Y1245209D01*
X1372000Y1226685D01*
Y1206635D01*
X1379673Y1188111D01*
X1393851Y1173933D01*
X1412375Y1166260D01*
X1432425D01*
X1450949Y1173933D01*
X1465127Y1188111D01*
X1472800Y1206635D01*
Y1226685D01*
X1465127Y1245209D01*
X1450949Y1259387D01*
X1432425Y1267060D01*
D02*
G37*
G36*
X901565Y1261980D02*
X881515D01*
X862991Y1254307D01*
X848813Y1240129D01*
X841140Y1221605D01*
Y1201555D01*
X848813Y1183031D01*
X862991Y1168853D01*
X881515Y1161180D01*
X901565D01*
X920089Y1168853D01*
X934267Y1183031D01*
X941940Y1201555D01*
Y1221605D01*
X934267Y1240129D01*
X920089Y1254307D01*
X901565Y1261980D01*
D02*
G37*
G36*
X3427492Y1196340D02*
X3390900D01*
Y1159748D01*
X3406749Y1166313D01*
X3420927Y1180491D01*
X3427492Y1196340D01*
D02*
G37*
G36*
X3365500D02*
X3328908D01*
X3335473Y1180491D01*
X3349651Y1166313D01*
X3365500Y1159748D01*
Y1196340D01*
D02*
G37*
G36*
X7516892Y1173480D02*
X7480300D01*
Y1136888D01*
X7496149Y1143453D01*
X7510327Y1157631D01*
X7516892Y1173480D01*
D02*
G37*
G36*
X7454900D02*
X7418308D01*
X7424873Y1157631D01*
X7439051Y1143453D01*
X7454900Y1136888D01*
Y1173480D01*
D02*
G37*
G36*
X1473065Y1096880D02*
X1453015D01*
X1434491Y1089207D01*
X1420313Y1075029D01*
X1412640Y1056505D01*
Y1036455D01*
X1420313Y1017931D01*
X1434491Y1003753D01*
X1453015Y996080D01*
X1473065D01*
X1491589Y1003753D01*
X1505767Y1017931D01*
X1513440Y1036455D01*
Y1056505D01*
X1505767Y1075029D01*
X1491589Y1089207D01*
X1473065Y1096880D01*
D02*
G37*
G36*
X503900Y1232499D02*
X258100D01*
Y986699D01*
X503900D01*
Y1232499D01*
D02*
G37*
G36*
X8118780Y1227800D02*
X8086420D01*
X8055162Y1219425D01*
X8027138Y1203244D01*
X8004256Y1180362D01*
X7988075Y1152338D01*
X7979700Y1121080D01*
Y1088720D01*
X7988075Y1057462D01*
X8004256Y1029438D01*
X8027138Y1006556D01*
X8055162Y990375D01*
X8086420Y982000D01*
X8118780D01*
X8150038Y990375D01*
X8178062Y1006556D01*
X8200944Y1029438D01*
X8217125Y1057462D01*
X8225500Y1088720D01*
Y1121080D01*
X8217125Y1152338D01*
X8200944Y1180362D01*
X8178062Y1203244D01*
X8150038Y1219425D01*
X8118780Y1227800D01*
D02*
G37*
G36*
X4799092Y952500D02*
X4762500D01*
Y915908D01*
X4778349Y922473D01*
X4792527Y936651D01*
X4799092Y952500D01*
D02*
G37*
G36*
X4737100D02*
X4700508D01*
X4707073Y936651D01*
X4721251Y922473D01*
X4737100Y915908D01*
Y952500D01*
D02*
G37*
G36*
X6685145Y1002900D02*
X6665095D01*
X6646571Y995227D01*
X6632393Y981049D01*
X6624720Y962525D01*
Y942475D01*
X6632393Y923951D01*
X6646571Y909773D01*
X6665095Y902100D01*
X6685145D01*
X6703669Y909773D01*
X6717847Y923951D01*
X6725520Y942475D01*
Y962525D01*
X6717847Y981049D01*
X6703669Y995227D01*
X6685145Y1002900D01*
D02*
G37*
G36*
X4876665Y936860D02*
X4856615D01*
X4838091Y929187D01*
X4823913Y915009D01*
X4816240Y896485D01*
Y876435D01*
X4823913Y857911D01*
X4838091Y843733D01*
X4856615Y836060D01*
X4876665D01*
X4895189Y843733D01*
X4909367Y857911D01*
X4917040Y876435D01*
Y896485D01*
X4909367Y915009D01*
X4895189Y929187D01*
X4876665Y936860D01*
D02*
G37*
G36*
X3164705Y883520D02*
X3144655D01*
X3126131Y875847D01*
X3111953Y861669D01*
X3104280Y843145D01*
Y823095D01*
X3111953Y804571D01*
X3126131Y790393D01*
X3144655Y782720D01*
X3164705D01*
X3183229Y790393D01*
X3197407Y804571D01*
X3205080Y823095D01*
Y843145D01*
X3197407Y861669D01*
X3183229Y875847D01*
X3164705Y883520D01*
D02*
G37*
G36*
X744220Y732552D02*
Y695960D01*
X780812D01*
X774247Y711809D01*
X760069Y725987D01*
X744220Y732552D01*
D02*
G37*
G36*
X718820D02*
X702971Y725987D01*
X688793Y711809D01*
X682228Y695960D01*
X718820D01*
Y732552D01*
D02*
G37*
G36*
X6042525Y787000D02*
X6022475D01*
X6003951Y779327D01*
X5989773Y765149D01*
X5982100Y746625D01*
Y726575D01*
X5989773Y708051D01*
X6003951Y693873D01*
X6022475Y686200D01*
X6042525D01*
X6061049Y693873D01*
X6075227Y708051D01*
X6082900Y726575D01*
Y746625D01*
X6075227Y765149D01*
X6061049Y779327D01*
X6042525Y787000D01*
D02*
G37*
G36*
X3251200Y700063D02*
Y635000D01*
X3316263D01*
X3311557Y652561D01*
X3301235Y670439D01*
X3286639Y685035D01*
X3268761Y695357D01*
X3251200Y700063D01*
D02*
G37*
G36*
X780812Y670560D02*
X744220D01*
Y633968D01*
X760069Y640533D01*
X774247Y654711D01*
X780812Y670560D01*
D02*
G37*
G36*
X718820D02*
X682228D01*
X688793Y654711D01*
X702971Y640533D01*
X718820Y633968D01*
Y670560D01*
D02*
G37*
G36*
X7790045Y713340D02*
X7769995D01*
X7751471Y705667D01*
X7737293Y691489D01*
X7729620Y672965D01*
Y652915D01*
X7737293Y634391D01*
X7751471Y620213D01*
X7769995Y612540D01*
X7790045D01*
X7808569Y620213D01*
X7822747Y634391D01*
X7830420Y652915D01*
Y672965D01*
X7822747Y691489D01*
X7808569Y705667D01*
X7790045Y713340D01*
D02*
G37*
G36*
X4228965Y588880D02*
X4208915D01*
X4190391Y581207D01*
X4179570Y570386D01*
X4173829Y576127D01*
X4155305Y583800D01*
X4135255D01*
X4116731Y576127D01*
X4102553Y561949D01*
X4094880Y543425D01*
Y523375D01*
X4102553Y504851D01*
X4116731Y490673D01*
X4135255Y483000D01*
X4155305D01*
X4173829Y490673D01*
X4184650Y501494D01*
X4190391Y495753D01*
X4208915Y488080D01*
X4228965D01*
X4247489Y495753D01*
X4261667Y509931D01*
X4269340Y528455D01*
Y548505D01*
X4261667Y567029D01*
X4247489Y581207D01*
X4228965Y588880D01*
D02*
G37*
G36*
X1437505Y670160D02*
X1417455D01*
X1398931Y662487D01*
X1384753Y648309D01*
X1377080Y629785D01*
Y609735D01*
X1384753Y591211D01*
X1398931Y577033D01*
X1417455Y569360D01*
X1437505D01*
X1456029Y577033D01*
X1470207Y591211D01*
X1477880Y609735D01*
Y629785D01*
X1470207Y648309D01*
X1456029Y662487D01*
X1437505Y670160D01*
D02*
G37*
G36*
X3837940Y590312D02*
Y553720D01*
X3874532D01*
X3867967Y569569D01*
X3853789Y583747D01*
X3837940Y590312D01*
D02*
G37*
G36*
X3812540D02*
X3796691Y583747D01*
X3782513Y569569D01*
X3775948Y553720D01*
X3812540D01*
Y590312D01*
D02*
G37*
G36*
X6731000Y569992D02*
Y533400D01*
X6767592D01*
X6761027Y549249D01*
X6746849Y563427D01*
X6731000Y569992D01*
D02*
G37*
G36*
X6705600D02*
X6689751Y563427D01*
X6675573Y549249D01*
X6669008Y533400D01*
X6705600D01*
Y569992D01*
D02*
G37*
G36*
X3510145Y626980D02*
X3490095D01*
X3471571Y619307D01*
X3457393Y605129D01*
X3449720Y586605D01*
Y566555D01*
X3457393Y548031D01*
X3471571Y533853D01*
X3490095Y526180D01*
X3510145D01*
X3528669Y533853D01*
X3542847Y548031D01*
X3550520Y566555D01*
Y586605D01*
X3542847Y605129D01*
X3528669Y619307D01*
X3510145Y626980D01*
D02*
G37*
G36*
X3408680Y536972D02*
Y500380D01*
X3445272D01*
X3438707Y516229D01*
X3424529Y530407D01*
X3408680Y536972D01*
D02*
G37*
G36*
X3383280D02*
X3367431Y530407D01*
X3353253Y516229D01*
X3346688Y500380D01*
X3383280D01*
Y536972D01*
D02*
G37*
G36*
X3874532Y528320D02*
X3837940D01*
Y491728D01*
X3853789Y498293D01*
X3867967Y512471D01*
X3874532Y528320D01*
D02*
G37*
G36*
X3812540D02*
X3775948D01*
X3782513Y512471D01*
X3796691Y498293D01*
X3812540Y491728D01*
Y528320D01*
D02*
G37*
G36*
X397180Y732500D02*
X364820D01*
X333562Y724125D01*
X305538Y707944D01*
X282656Y685062D01*
X266475Y657038D01*
X258100Y625780D01*
Y593420D01*
X266475Y562162D01*
X282656Y534138D01*
X305538Y511256D01*
X333562Y495075D01*
X364820Y486700D01*
X397180D01*
X428438Y495075D01*
X456462Y511256D01*
X479344Y534138D01*
X495525Y562162D01*
X503900Y593420D01*
Y625780D01*
X495525Y657038D01*
X479344Y685062D01*
X456462Y707944D01*
X428438Y724125D01*
X397180Y732500D01*
D02*
G37*
G36*
X8225500Y727801D02*
X7979700D01*
Y482001D01*
X8225500D01*
Y727801D01*
D02*
G37*
G36*
X6767592Y508000D02*
X6731000D01*
Y471408D01*
X6746849Y477973D01*
X6761027Y492151D01*
X6767592Y508000D01*
D02*
G37*
G36*
X6705600D02*
X6669008D01*
X6675573Y492151D01*
X6689751Y477973D01*
X6705600Y471408D01*
Y508000D01*
D02*
G37*
G36*
X6029825Y545700D02*
X6009775D01*
X5991251Y538027D01*
X5977073Y523849D01*
X5969400Y505325D01*
Y485275D01*
X5977073Y466751D01*
X5991251Y452573D01*
X6009775Y444900D01*
X6029825D01*
X6048349Y452573D01*
X6062527Y466751D01*
X6070200Y485275D01*
Y505325D01*
X6062527Y523849D01*
X6048349Y538027D01*
X6029825Y545700D01*
D02*
G37*
G36*
X3445272Y474980D02*
X3408680D01*
Y438388D01*
X3424529Y444953D01*
X3438707Y459131D01*
X3445272Y474980D01*
D02*
G37*
G36*
X3383280D02*
X3346688D01*
X3353253Y459131D01*
X3367431Y444953D01*
X3383280Y438388D01*
Y474980D01*
D02*
G37*
G36*
X1851660Y427752D02*
Y391160D01*
X1888252D01*
X1881687Y407009D01*
X1867509Y421187D01*
X1851660Y427752D01*
D02*
G37*
G36*
X1826260D02*
X1810411Y421187D01*
X1796233Y407009D01*
X1789668Y391160D01*
X1826260D01*
Y427752D01*
D02*
G37*
G36*
X4411845Y454260D02*
X4391795D01*
X4373271Y446587D01*
X4359093Y432409D01*
X4351420Y413885D01*
Y393835D01*
X4359093Y375311D01*
X4373271Y361133D01*
X4391795Y353460D01*
X4411845D01*
X4430369Y361133D01*
X4444547Y375311D01*
X4444697Y375674D01*
X4472190D01*
X4473393Y372771D01*
X4487571Y358593D01*
X4506095Y350920D01*
X4526145D01*
X4544669Y358593D01*
X4558847Y372771D01*
X4566520Y391295D01*
Y411345D01*
X4558847Y429869D01*
X4544669Y444047D01*
X4526145Y451720D01*
X4506095D01*
X4487571Y444047D01*
X4473393Y429869D01*
X4473243Y429506D01*
X4445750D01*
X4444547Y432409D01*
X4430369Y446587D01*
X4411845Y454260D01*
D02*
G37*
G36*
X7642725Y431400D02*
X7622675D01*
X7604151Y423727D01*
X7589973Y409549D01*
X7582300Y391025D01*
Y370975D01*
X7589973Y352451D01*
X7604151Y338273D01*
X7622675Y330600D01*
X7642725D01*
X7661249Y338273D01*
X7675427Y352451D01*
X7683100Y370975D01*
Y391025D01*
X7675427Y409549D01*
X7661249Y423727D01*
X7642725Y431400D01*
D02*
G37*
G36*
X1888252Y365760D02*
X1851660D01*
Y329168D01*
X1867509Y335733D01*
X1881687Y349911D01*
X1888252Y365760D01*
D02*
G37*
G36*
X1826260D02*
X1789668D01*
X1796233Y349911D01*
X1810411Y335733D01*
X1826260Y329168D01*
Y365760D01*
D02*
G37*
G36*
X5698200Y554700D02*
X5452400D01*
Y308900D01*
X5698200D01*
Y554700D01*
D02*
G37*
G36*
X5091481D02*
X5059121D01*
X5027863Y546325D01*
X4999839Y530144D01*
X4976957Y507262D01*
X4960776Y479238D01*
X4952401Y447980D01*
Y415620D01*
X4960776Y384362D01*
X4976957Y356338D01*
X4999839Y333456D01*
X5027863Y317275D01*
X5059121Y308900D01*
X5091481D01*
X5122739Y317275D01*
X5150763Y333456D01*
X5173645Y356338D01*
X5189826Y384362D01*
X5198201Y415620D01*
Y447980D01*
X5189826Y479238D01*
X5173645Y507262D01*
X5150763Y530144D01*
X5122739Y546325D01*
X5091481Y554700D01*
D02*
G37*
G36*
X3596640Y260112D02*
Y223520D01*
X3633232D01*
X3626667Y239369D01*
X3612489Y253547D01*
X3596640Y260112D01*
D02*
G37*
G36*
X3571240D02*
X3555391Y253547D01*
X3541213Y239369D01*
X3534648Y223520D01*
X3571240D01*
Y260112D01*
D02*
G37*
G36*
X2321425Y296780D02*
X2301375D01*
X2282851Y289107D01*
X2268673Y274929D01*
X2261000Y256405D01*
Y236355D01*
X2268673Y217831D01*
X2282851Y203653D01*
X2301375Y195980D01*
X2321425D01*
X2339949Y203653D01*
X2354127Y217831D01*
X2361800Y236355D01*
Y256405D01*
X2354127Y274929D01*
X2339949Y289107D01*
X2321425Y296780D01*
D02*
G37*
G36*
X2506845Y294240D02*
X2486795D01*
X2468271Y286567D01*
X2454093Y272389D01*
X2446420Y253865D01*
Y233815D01*
X2454093Y215291D01*
X2468271Y201113D01*
X2486795Y193440D01*
X2506845D01*
X2525369Y201113D01*
X2539547Y215291D01*
X2547220Y233815D01*
Y253865D01*
X2539547Y272389D01*
X2525369Y286567D01*
X2506845Y294240D01*
D02*
G37*
G36*
X4038465Y271380D02*
X4018415D01*
X3999891Y263707D01*
X3985713Y249529D01*
X3978040Y231005D01*
Y210955D01*
X3985713Y192431D01*
X3999891Y178253D01*
X4018415Y170580D01*
X4038465D01*
X4056989Y178253D01*
X4071167Y192431D01*
X4078840Y210955D01*
Y231005D01*
X4071167Y249529D01*
X4056989Y263707D01*
X4038465Y271380D01*
D02*
G37*
G36*
X3633232Y198120D02*
X3596640D01*
Y161528D01*
X3612489Y168093D01*
X3626667Y182271D01*
X3633232Y198120D01*
D02*
G37*
G36*
X3571240D02*
X3534648D01*
X3541213Y182271D01*
X3555391Y168093D01*
X3571240Y161528D01*
Y198120D01*
D02*
G37*
G36*
X7490325Y240900D02*
X7470275D01*
X7451751Y233227D01*
X7437573Y219049D01*
X7429900Y200525D01*
Y180475D01*
X7437573Y161951D01*
X7451751Y147773D01*
X7470275Y140100D01*
X7490325D01*
X7508849Y147773D01*
X7523027Y161951D01*
X7530700Y180475D01*
Y200525D01*
X7523027Y219049D01*
X7508849Y233227D01*
X7490325Y240900D01*
D02*
G37*
G36*
X4307705Y258680D02*
X4287655D01*
X4269131Y251007D01*
X4254953Y236829D01*
X4247280Y218305D01*
Y198255D01*
X4254953Y179731D01*
X4269131Y165553D01*
X4287655Y157880D01*
X4307705D01*
X4326229Y165553D01*
X4335573Y174897D01*
X4345712Y171703D01*
X4359040Y163394D01*
Y147455D01*
X4366713Y128931D01*
X4380891Y114753D01*
X4399415Y107080D01*
X4419465D01*
X4437989Y114753D01*
X4452167Y128931D01*
X4459840Y147455D01*
Y167505D01*
X4452167Y186029D01*
X4437989Y200207D01*
X4419465Y207880D01*
X4399415D01*
X4380891Y200207D01*
X4371547Y190863D01*
X4361408Y194057D01*
X4348080Y202366D01*
Y218305D01*
X4340407Y236829D01*
X4326229Y251007D01*
X4307705Y258680D01*
D02*
G37*
G36*
X7787505Y157080D02*
X7767455D01*
X7748931Y149407D01*
X7734753Y135229D01*
X7727080Y116705D01*
Y96655D01*
X7734753Y78131D01*
X7748931Y63953D01*
X7767455Y56280D01*
X7787505D01*
X7806029Y63953D01*
X7820207Y78131D01*
X7827880Y96655D01*
Y116705D01*
X7820207Y135229D01*
X7806029Y149407D01*
X7787505Y157080D01*
D02*
G37*
G36*
X507865Y152000D02*
X487815D01*
X469291Y144327D01*
X455113Y130149D01*
X447440Y111625D01*
Y91575D01*
X455113Y73051D01*
X469291Y58873D01*
X487815Y51200D01*
X507865D01*
X526389Y58873D01*
X540567Y73051D01*
X548240Y91575D01*
Y111625D01*
X540567Y130149D01*
X526389Y144327D01*
X507865Y152000D01*
D02*
G37*
%LPD*%
D10*
X3660140Y657860D02*
X4414881D01*
X3472180Y845820D02*
X3660140Y657860D01*
X4429760Y672739D02*
Y937260D01*
X4414881Y657860D02*
X4429760Y672739D01*
X3472180Y845820D02*
Y937621D01*
X3457301Y952500D02*
X3472180Y937621D01*
X1437640Y800100D02*
X1590040Y952500D01*
X3457301D01*
X2598420Y1399540D02*
X2905760Y1706880D01*
X3568700D01*
X3622040Y1653540D01*
X5176520D01*
X5491480Y1338580D01*
Y990600D02*
Y1338580D01*
Y990600D02*
X5562600Y919480D01*
X4429760Y937260D02*
X4569460Y1076960D01*
X4653280D01*
X5387340Y1054100D01*
D33*
X5075301Y431800D02*
D03*
X8102600Y1104900D02*
D03*
X381000Y609600D02*
D03*
D34*
X5575300Y431800D02*
D03*
D35*
X7213600Y1587500D02*
D03*
X6959600D02*
D03*
D36*
X7086600D02*
D03*
D37*
X8102600Y604901D02*
D03*
X381000Y1109599D02*
D03*
D39*
X3238500Y114300D02*
D03*
Y241300D02*
D03*
Y368300D02*
D03*
Y495300D02*
D03*
Y622300D02*
D03*
X3111500Y114300D02*
D03*
Y241300D02*
D03*
Y368300D02*
D03*
Y495300D02*
D03*
Y622300D02*
D03*
D40*
X2293620Y858520D02*
D03*
X4708707Y1472591D02*
D03*
X4804172Y1569720D02*
D03*
X4876400Y1475875D02*
D03*
X4689449Y1328873D02*
D03*
X4866640Y886460D02*
D03*
X5387340Y1054100D02*
D03*
X4409440Y157480D02*
D03*
X4297680Y208280D02*
D03*
X4516120Y401320D02*
D03*
X4401820Y403860D02*
D03*
X4028440Y220980D02*
D03*
X4564380Y1450340D02*
D03*
X1430020Y1384300D02*
D03*
X731520Y683260D02*
D03*
X1838960Y378460D02*
D03*
X2260600Y1503680D02*
D03*
X6593840Y1440180D02*
D03*
X3378200Y1209040D02*
D03*
X3395980Y487680D02*
D03*
X4749800Y965200D02*
D03*
X6718300Y520700D02*
D03*
X7467600Y1186180D02*
D03*
X3825240Y541020D02*
D03*
X3583940Y210820D02*
D03*
X2181860Y1587500D02*
D03*
X2598420Y1399540D02*
D03*
X5562600Y919480D02*
D03*
X1437640Y800100D02*
D03*
X1463040Y1046480D02*
D03*
X1694180Y60960D02*
D03*
X497840Y101600D02*
D03*
X1422400Y1216660D02*
D03*
X891540Y1211580D02*
D03*
X3474720Y1600200D02*
D03*
X3200400Y1503680D02*
D03*
X2979420Y1285240D02*
D03*
X3091180Y1384300D02*
D03*
X2733040Y632460D02*
D03*
X2814320Y830580D02*
D03*
X2938780Y1150620D02*
D03*
X2131060Y855980D02*
D03*
X3091180Y1546860D02*
D03*
X2395220Y1013460D02*
D03*
X2496820Y243840D02*
D03*
X3500120Y576580D02*
D03*
X2311400Y246380D02*
D03*
X3154680Y833120D02*
D03*
X4145280Y533400D02*
D03*
X4218940Y538480D02*
D03*
X7780020Y662940D02*
D03*
X7777480Y106680D02*
D03*
X1427480Y619760D02*
D03*
X2948940Y1033780D02*
D03*
X6436360Y1229360D02*
D03*
X6675120Y952500D02*
D03*
X3352800Y850900D02*
D03*
X4559300Y1727200D02*
D03*
X7632700Y381000D02*
D03*
X7480300Y190500D02*
D03*
X6032500Y736600D02*
D03*
X6019800Y495300D02*
D03*
X3721100Y1354399D02*
D03*
X3831102D02*
D03*
X3941100D02*
D03*
X4051102D02*
D03*
X4161099D02*
D03*
X4271101D02*
D03*
X3721100Y1244402D02*
D03*
X3831102D02*
D03*
X3941100D02*
D03*
X4051102D02*
D03*
X4161099D02*
D03*
X4271101D02*
D03*
X3721100Y1134400D02*
D03*
X3831102D02*
D03*
X3941100D02*
D03*
X4051102D02*
D03*
X4161099D02*
D03*
X4271101D02*
D03*
X3721100Y1024402D02*
D03*
X3831102D02*
D03*
X3941100D02*
D03*
X4051102D02*
D03*
X4161099D02*
D03*
X4271101D02*
D03*
X3721100Y914400D02*
D03*
X3831102D02*
D03*
X3941100D02*
D03*
X4051102D02*
D03*
X4161099D02*
D03*
X4271101D02*
D03*
X3721100Y804398D02*
D03*
X3831102D02*
D03*
X3941100D02*
D03*
X4051102D02*
D03*
X4161099D02*
D03*
X4271101D02*
D03*
%TF.MD5,109710a88ad79978a9747ca78fb59fcc*%
M02*
