%TF.GenerationSoftware,Altium Limited,Altium Designer,25.4.2 (15)*%
G04 Layer_Physical_Order=4*
G04 Layer_Color=16711680*
%FSLAX45Y45*%
%MOMM*%
%TF.SameCoordinates,47237EEE-74C4-40EA-AC85-0918F70ECB2B*%
%TF.FilePolarity,Positive*%
%TF.FileFunction,Copper,L4,Bot,Signal*%
%TF.Part,Single*%
G01*
G75*
%TA.AperFunction,Conductor*%
%ADD10C,0.25400*%
%TA.AperFunction,SMDPad,CuDef*%
%ADD12R,0.53933X0.47247*%
%ADD24R,0.47247X0.53933*%
%ADD27R,1.01213X1.20840*%
%ADD30R,1.20840X1.01213*%
%TA.AperFunction,ComponentPad*%
%ADD33C,1.95000*%
%ADD34R,1.95000X1.95000*%
%ADD35O,1.00000X2.00000*%
%ADD36O,1.00000X2.00000*%
%ADD37R,1.95000X1.95000*%
%ADD38R,1.06000X1.06000*%
%ADD39C,1.06000*%
%TA.AperFunction,ViaPad*%
%ADD40C,0.50000*%
%TA.AperFunction,SMDPad,CuDef*%
%ADD41O,2.10000X0.65000*%
%ADD42R,0.30000X1.60000*%
%ADD43R,1.60000X0.30000*%
G04:AMPARAMS|DCode=44|XSize=0.65mm|YSize=1.2mm|CornerRadius=0.04875mm|HoleSize=0mm|Usage=FLASHONLY|Rotation=90.000|XOffset=0mm|YOffset=0mm|HoleType=Round|Shape=RoundedRectangle|*
%AMROUNDEDRECTD44*
21,1,0.65000,1.10250,0,0,90.0*
21,1,0.55250,1.20000,0,0,90.0*
1,1,0.09750,0.55125,0.27625*
1,1,0.09750,0.55125,-0.27625*
1,1,0.09750,-0.55125,-0.27625*
1,1,0.09750,-0.55125,0.27625*
%
%ADD44ROUNDEDRECTD44*%
D10*
X2159000Y307685D02*
X2164425Y302260D01*
X2235200D01*
X2252980Y320040D01*
Y363220D01*
X2176780Y439420D02*
X2252980Y363220D01*
X2158181Y439420D02*
X2176780D01*
X2143302Y454299D02*
X2158181Y439420D01*
X2143302Y454299D02*
Y535799D01*
X2141002Y538099D02*
X2143302Y535799D01*
X1676400Y241300D02*
X1968500D01*
X2292309Y539410D02*
Y857209D01*
X2293620Y858520D01*
X2290999Y538099D02*
X2292309Y539410D01*
X2138702Y540399D02*
X2141002Y538099D01*
X4787900Y1546791D02*
X4804172Y1563063D01*
Y1569720D01*
X4749800Y966979D02*
X4787900Y1005079D01*
Y1546791D01*
X4749800Y965200D02*
Y966979D01*
X4566727Y1382736D02*
X4637621Y1440544D01*
X4708707Y1472591D01*
X4838105Y1210128D02*
Y1313151D01*
X4850916Y1188067D02*
X5562489Y782010D01*
X4838105Y1210128D02*
X4850916Y1188067D01*
X4838105Y1313151D02*
X4876400Y1351446D01*
Y1475875D01*
X4583551Y313979D02*
X4601317Y321417D01*
X3679245Y307048D02*
X4583551Y313979D01*
X4601317Y321417D02*
X4689449Y409549D01*
Y1328873D01*
X5791200Y1054100D02*
X5816600Y1079500D01*
X5387340Y1054100D02*
X5791200D01*
X3238500Y368300D02*
X3329940Y365760D01*
X3541757Y155139D01*
X4187528Y166667D01*
X4297680Y208280D01*
X3238500Y241300D02*
X3376110Y213291D01*
X3493208Y104271D01*
X4355343Y114653D01*
X4409440Y157480D01*
X4516120Y401320D02*
X4547224Y1303031D01*
X4566727Y1382736D01*
X4403173Y1154833D02*
X4497289Y1431471D01*
X4401820Y403860D02*
Y1146652D01*
X4403173Y1154833D01*
X3437361Y525837D02*
X3679245Y307048D01*
X4497289Y1431471D02*
X4564380Y1450340D01*
X2141002Y1158098D02*
X2241001D01*
X2057400Y1394115D02*
X2199528D01*
X2222043Y1371600D01*
X2225385D01*
X2057400Y1473200D02*
X2117314D01*
X2147794Y1503680D01*
X2260600D01*
X1430020Y1384300D02*
X1841500D01*
X1854200Y1397000D01*
X731520Y683260D02*
X732964D01*
X804084Y612140D01*
X876300D01*
X896976Y591464D01*
Y457200D02*
Y591464D01*
X1838960Y378460D02*
X1840230Y379730D01*
X1967230D01*
X1968500Y381000D01*
X2225385Y1371600D02*
X2228728D01*
X2241001Y1359327D01*
Y1158098D02*
Y1359327D01*
X2057400Y1394115D02*
Y1473200D01*
X1973224Y1557376D02*
X2057400Y1473200D01*
X1854200Y1557376D02*
X1973224D01*
X6718300Y520700D02*
X6927598D01*
X7156198Y292100D01*
X7228698D01*
X7467600Y1186180D02*
X7472307Y1181473D01*
Y1065481D02*
Y1181473D01*
X2181860Y1587500D02*
X2410460D01*
X2598420Y1399540D01*
X5562600Y919480D02*
X5816244D01*
X5816600Y919124D01*
X1415801Y228600D02*
X1422400Y235199D01*
X1333139Y228600D02*
X1415801D01*
X1318260Y243479D02*
X1333139Y228600D01*
X1318260Y243479D02*
Y410322D01*
X1333139Y425201D01*
X1422400D01*
X1449900D02*
X1469700Y445001D01*
Y489260D01*
X1501140Y520700D01*
Y736600D01*
X1437640Y800100D02*
X1501140Y736600D01*
X1449900Y425201D02*
X1530599D01*
X6258697Y165100D02*
X6451600D01*
X6466840Y180340D01*
Y912221D01*
X6451961Y927100D02*
X6466840Y912221D01*
X6258697Y927100D02*
X6451961D01*
X6070143D02*
X6258697D01*
X6019800Y977443D02*
X6070143Y927100D01*
X6019800Y977443D02*
Y980785D01*
X5961482Y919124D02*
X6019800Y977443D01*
X5816600Y919124D02*
X5961482D01*
X2288699Y1155798D02*
X2290999Y1158098D01*
X2288699Y1064419D02*
Y1155798D01*
X2199640Y975360D02*
X2288699Y1064419D01*
X1908261Y975360D02*
X2199640D01*
X1906001Y973099D02*
X1908261Y975360D01*
X2190999Y538099D02*
Y905759D01*
X2344420Y1059180D01*
X2763520D02*
X2903220Y1198880D01*
X2344420Y1059180D02*
X2763520D01*
X1463040Y1046480D02*
Y1051215D01*
X1701800D01*
X1694180Y60960D02*
Y251460D01*
X1676400Y254000D02*
X1691640D01*
X1694180Y251460D01*
X1676400Y241300D02*
Y254000D01*
X497840Y101600D02*
Y215900D01*
X715924D01*
Y457200D01*
X736600D01*
X1968500Y307685D02*
X2159000D01*
X1968500Y241300D02*
Y307685D01*
X1544320Y254000D02*
X1676400D01*
X1544320D02*
Y330200D01*
X1422400D02*
X1544320D01*
X1419860Y1214120D02*
X1422400Y1216660D01*
X894080Y1214120D02*
X1419860D01*
X891540Y1211580D02*
X894080Y1214120D01*
X3200400Y1498600D02*
Y1503680D01*
X3091180Y1389380D02*
X3200400Y1498600D01*
X3091180Y1384300D02*
Y1389380D01*
X2903220Y1262741D02*
X2921012Y1280533D01*
X2974713D01*
X2979420Y1285240D01*
X2903220Y1198880D02*
Y1262741D01*
X2726383Y632460D02*
X2733040D01*
X2685743Y673100D02*
X2726383Y632460D01*
X2526000Y673100D02*
X2685743D01*
X2814320Y830580D02*
Y1023620D01*
X2862580Y1071880D01*
Y1074420D01*
X2938780Y1150620D01*
X2131060Y784860D02*
Y855980D01*
X2069302Y723102D02*
X2131060Y784860D01*
X1906001Y723102D02*
X2069302D01*
X5673382Y1660251D02*
X5688321Y1655393D01*
X3204571Y1660251D02*
X5673382D01*
X5688321Y1655393D02*
X6096146Y1358797D01*
X3091180Y1546860D02*
X3204571Y1660251D01*
X2393109Y1011349D02*
X2395220Y1013460D01*
X2393109Y540210D02*
Y1011349D01*
X2390999Y538099D02*
X2393109Y540210D01*
X2338701Y535799D02*
X2341001Y538099D01*
X2338701Y421723D02*
Y535799D01*
X2336800Y419822D02*
X2338701Y421723D01*
X2336800Y398780D02*
Y419822D01*
Y398780D02*
X2352040Y383540D01*
Y317500D02*
Y383540D01*
Y317500D02*
X2425700Y243840D01*
X2496820D01*
X3500120Y576580D02*
X3566160Y642620D01*
X4086860D01*
X4094119Y649879D01*
X4115161D01*
X4145280Y619760D01*
Y533400D02*
Y619760D01*
X2311400Y246380D02*
Y358140D01*
X2241001Y428539D02*
X2311400Y358140D01*
X2241001Y428539D02*
Y538099D01*
X3154680Y833120D02*
X3271520D01*
X3317240Y787400D01*
X3449320D01*
X3533140Y703580D01*
X4147820D01*
X4221480Y629920D01*
Y541020D02*
Y629920D01*
X4218940Y538480D02*
X4221480Y541020D01*
X7688580Y754380D02*
X7780020Y662940D01*
X2415540Y365760D02*
X2456180D01*
X2390999Y390302D02*
Y538099D01*
Y390302D02*
X2415540Y365760D01*
X7688580Y754380D02*
Y905333D01*
X7683501Y910412D02*
X7688580Y905333D01*
X7669353Y924560D02*
X7683501Y910412D01*
X7607300Y924560D02*
X7669353D01*
X7769860Y673100D02*
X7780020Y662940D01*
X7553960Y977900D02*
X7607300Y924560D01*
X7480300Y977900D02*
X7553960D01*
X7472680Y970280D02*
X7480300Y977900D01*
X7355093Y970280D02*
X7472680D01*
X7311913Y927100D02*
X7355093Y970280D01*
X7228698Y927100D02*
X7311913D01*
X7429500Y106680D02*
X7777480D01*
X7371080Y165100D02*
X7429500Y106680D01*
X7228698Y165100D02*
X7371080D01*
X3329579Y850900D02*
X3352800D01*
X3276600Y903879D02*
X3329579Y850900D01*
X3276600Y903879D02*
Y1079500D01*
X2997200Y1358900D02*
X3276600Y1079500D01*
X2997200Y1358900D02*
Y1689100D01*
X3035300Y1727200D01*
X4559300D01*
X7606797Y717730D02*
X7632700Y684248D01*
Y381000D02*
Y684248D01*
X7228698Y800100D02*
X7377655D01*
X7386400Y798547D02*
X7606797Y717730D01*
X7377655Y800100D02*
X7386400Y798547D01*
X6096146Y1358797D02*
X6168167Y1307953D01*
X7712215Y1281722D01*
X7815766Y1251169D01*
X7874036Y1183330D01*
X7876928Y347825D01*
X7775241Y266915D02*
X7876928Y347825D01*
X7601038Y270710D02*
X7775241Y266915D01*
X7556500Y299232D02*
X7601038Y270710D01*
X7556500Y299232D02*
Y444500D01*
X7381566Y557415D02*
X7556500Y444500D01*
X7301198Y546100D02*
X7381566Y557415D01*
X7228698Y546100D02*
X7301198D01*
X7228698D02*
Y673100D01*
X7467477Y255314D02*
X7480300Y190500D01*
X7457356Y363217D02*
X7467477Y255314D01*
X7382204Y419100D02*
X7457356Y363217D01*
X7228698Y419100D02*
X7382204D01*
X6032500Y736600D02*
X6102577Y731969D01*
X6186197Y673100D01*
X6258697D01*
X6019800Y495300D02*
X6103690Y546100D01*
X6258697D01*
X6019800Y1054100D02*
X6258697D01*
X6008876Y1050147D02*
X6019800Y1054100D01*
X5921948Y1050147D02*
X6008876D01*
X5891906Y1079500D02*
X5921948Y1050147D01*
X5816600Y1079500D02*
X5891906D01*
X7645594Y1065481D02*
X7683501Y1070788D01*
X7472307Y1065481D02*
X7645594D01*
X7469376Y1054100D02*
X7480300Y1051215D01*
X7228698Y1054100D02*
X7469376D01*
X3429528Y651906D02*
X3437361Y525837D01*
X2593300Y725402D02*
X3360737Y739225D01*
X3429528Y651906D01*
X2526000Y723102D02*
X2593300Y725402D01*
X5562489Y516600D02*
X5575300Y431800D01*
X5562489Y516600D02*
Y782010D01*
X2148076Y393824D02*
X2159000Y379557D01*
X2094946Y422612D02*
X2148076Y393824D01*
X2093299Y470799D02*
X2094946Y422612D01*
X2090999Y538099D02*
X2093299Y470799D01*
X1968500Y381000D02*
X1979424Y395266D01*
X2033633Y441306D01*
X2038702Y470799D01*
X2041002Y538099D01*
X2042571Y470799D01*
X2046476Y1328310D02*
X2057400Y1320800D01*
X1986449Y1328310D02*
X2046476D01*
X1930892Y1384300D02*
X1986449Y1328310D01*
X1892107Y1384300D02*
X1930892D01*
X1854200Y1397000D02*
X1892107Y1384300D01*
X2088699Y1225398D02*
X2090999Y1158098D01*
X2079034Y1288348D02*
X2088699Y1225398D01*
X2057400Y1320800D02*
X2079034Y1288348D01*
X2290999Y1158098D02*
X2293299Y1225398D01*
Y1360676D01*
X2298700Y1371600D01*
X1838701Y974682D02*
X1906001Y973099D01*
X1712724Y974682D02*
X1838701D01*
X1701800Y977900D02*
X1712724Y974682D01*
X1668424Y406400D02*
X1676400Y414376D01*
X1549400Y406400D02*
X1668424D01*
X1530599Y425201D02*
X1549400Y406400D01*
X895599Y235199D02*
X1127399D01*
X876300Y215900D02*
X895599Y235199D01*
X1099899Y425201D02*
X1127399D01*
X1067900Y457200D02*
X1099899Y425201D01*
X896976Y457200D02*
X1067900D01*
D12*
X2225385Y1371600D02*
D03*
X2298700D02*
D03*
D24*
X7480300Y1051215D02*
D03*
Y977900D02*
D03*
X6019800Y980785D02*
D03*
Y1054100D02*
D03*
X1968500Y307685D02*
D03*
Y381000D02*
D03*
X2159000Y306243D02*
D03*
Y379557D02*
D03*
X2057400Y1394115D02*
D03*
Y1320800D02*
D03*
X1701800Y1051215D02*
D03*
Y977900D02*
D03*
D27*
X7683501Y1070788D02*
D03*
Y910412D02*
D03*
X5816600Y919124D02*
D03*
Y1079500D02*
D03*
X1854200Y1557376D02*
D03*
Y1397000D02*
D03*
X1676400Y254000D02*
D03*
Y414376D02*
D03*
D30*
X715924Y215900D02*
D03*
X876300D02*
D03*
X736600Y457200D02*
D03*
X896976D02*
D03*
D33*
X5075301Y431800D02*
D03*
X8102600Y1104900D02*
D03*
X381000Y609600D02*
D03*
D34*
X5575300Y431800D02*
D03*
D35*
X7213600Y1587500D02*
D03*
X6959600D02*
D03*
D36*
X7086600D02*
D03*
D37*
X8102600Y604901D02*
D03*
X381000Y1109599D02*
D03*
D38*
X3238500Y114300D02*
D03*
D39*
Y241300D02*
D03*
Y368300D02*
D03*
Y495300D02*
D03*
Y622300D02*
D03*
X3111500Y114300D02*
D03*
Y241300D02*
D03*
Y368300D02*
D03*
Y495300D02*
D03*
Y622300D02*
D03*
D40*
X2293620Y858520D02*
D03*
X4708707Y1472591D02*
D03*
X4804172Y1569720D02*
D03*
X4876400Y1475875D02*
D03*
X4689449Y1328873D02*
D03*
X4866640Y886460D02*
D03*
X5387340Y1054100D02*
D03*
X4409440Y157480D02*
D03*
X4297680Y208280D02*
D03*
X4516120Y401320D02*
D03*
X4401820Y403860D02*
D03*
X4028440Y220980D02*
D03*
X4564380Y1450340D02*
D03*
X1430020Y1384300D02*
D03*
X731520Y683260D02*
D03*
X1838960Y378460D02*
D03*
X2260600Y1503680D02*
D03*
X6593840Y1440180D02*
D03*
X3378200Y1209040D02*
D03*
X3395980Y487680D02*
D03*
X4749800Y965200D02*
D03*
X6718300Y520700D02*
D03*
X7467600Y1186180D02*
D03*
X3825240Y541020D02*
D03*
X3583940Y210820D02*
D03*
X2181860Y1587500D02*
D03*
X2598420Y1399540D02*
D03*
X5562600Y919480D02*
D03*
X1437640Y800100D02*
D03*
X1463040Y1046480D02*
D03*
X1694180Y60960D02*
D03*
X497840Y101600D02*
D03*
X1422400Y1216660D02*
D03*
X891540Y1211580D02*
D03*
X3474720Y1600200D02*
D03*
X3200400Y1503680D02*
D03*
X2979420Y1285240D02*
D03*
X3091180Y1384300D02*
D03*
X2733040Y632460D02*
D03*
X2814320Y830580D02*
D03*
X2938780Y1150620D02*
D03*
X2131060Y855980D02*
D03*
X3091180Y1546860D02*
D03*
X2395220Y1013460D02*
D03*
X2496820Y243840D02*
D03*
X3500120Y576580D02*
D03*
X2311400Y246380D02*
D03*
X3154680Y833120D02*
D03*
X4145280Y533400D02*
D03*
X4218940Y538480D02*
D03*
X7780020Y662940D02*
D03*
X7777480Y106680D02*
D03*
X1427480Y619760D02*
D03*
X2948940Y1033780D02*
D03*
X6436360Y1229360D02*
D03*
X6675120Y952500D02*
D03*
X3352800Y850900D02*
D03*
X4559300Y1727200D02*
D03*
X7632700Y381000D02*
D03*
X7480300Y190500D02*
D03*
X6032500Y736600D02*
D03*
X6019800Y495300D02*
D03*
X3721100Y1354399D02*
D03*
X3831102D02*
D03*
X3941100D02*
D03*
X4051102D02*
D03*
X4161099D02*
D03*
X4271101D02*
D03*
X3721100Y1244402D02*
D03*
X3831102D02*
D03*
X3941100D02*
D03*
X4051102D02*
D03*
X4161099D02*
D03*
X4271101D02*
D03*
X3721100Y1134400D02*
D03*
X3831102D02*
D03*
X3941100D02*
D03*
X4051102D02*
D03*
X4161099D02*
D03*
X4271101D02*
D03*
X3721100Y1024402D02*
D03*
X3831102D02*
D03*
X3941100D02*
D03*
X4051102D02*
D03*
X4161099D02*
D03*
X4271101D02*
D03*
X3721100Y914400D02*
D03*
X3831102D02*
D03*
X3941100D02*
D03*
X4051102D02*
D03*
X4161099D02*
D03*
X4271101D02*
D03*
X3721100Y804398D02*
D03*
X3831102D02*
D03*
X3941100D02*
D03*
X4051102D02*
D03*
X4161099D02*
D03*
X4271101D02*
D03*
D41*
X7228698Y1054100D02*
D03*
Y927100D02*
D03*
Y800100D02*
D03*
Y673100D02*
D03*
Y546100D02*
D03*
Y419100D02*
D03*
Y292100D02*
D03*
Y165100D02*
D03*
X6258697Y1054100D02*
D03*
Y927100D02*
D03*
Y800100D02*
D03*
Y673100D02*
D03*
Y546100D02*
D03*
Y419100D02*
D03*
Y292100D02*
D03*
Y165100D02*
D03*
D42*
X2390999Y1158098D02*
D03*
X2341001D02*
D03*
X2290999D02*
D03*
X2241001D02*
D03*
X2190999D02*
D03*
X2141002D02*
D03*
X2090999D02*
D03*
X2041002D02*
D03*
Y538099D02*
D03*
X2090999D02*
D03*
X2141002D02*
D03*
X2190999D02*
D03*
X2241001D02*
D03*
X2290999D02*
D03*
X2341001D02*
D03*
X2390999D02*
D03*
D43*
X1906001Y1023102D02*
D03*
Y973099D02*
D03*
Y923102D02*
D03*
Y873100D02*
D03*
Y823102D02*
D03*
Y773100D02*
D03*
Y723102D02*
D03*
Y673100D02*
D03*
X2526000D02*
D03*
Y723102D02*
D03*
Y773100D02*
D03*
Y823102D02*
D03*
Y873100D02*
D03*
Y923102D02*
D03*
Y973099D02*
D03*
Y1023102D02*
D03*
D44*
X1127399Y425201D02*
D03*
Y235199D02*
D03*
X1422400D02*
D03*
Y330200D02*
D03*
Y425201D02*
D03*
%TF.MD5,70b68cee2d1e5aad7aa922d38cc6e966*%
M02*
